<svg width="367" height="90" viewBox="0 0 367 90" fill="none" xmlns="http://www.w3.org/2000/svg">
<path d="M-305.357 2.42002L-304.044 3.1447L-302.817 0.920019H-305.357V2.42002ZM-330.887 2.42002V0.920019H-331.806L-332.223 1.73816L-330.887 2.42002ZM-347.315 34.61V36.11H-346.397L-345.979 35.2919L-347.315 34.61ZM-347.981 34.61L-349.323 35.2808L-348.908 36.11H-347.981V34.61ZM-364.076 2.42002L-362.735 1.7492L-363.149 0.920019H-364.076V2.42002ZM-390.716 2.42002V0.920019H-393.28L-392.024 3.15467L-390.716 2.42002ZM-359.414 58.142H-357.914V57.7495L-358.107 57.4073L-359.414 58.142ZM-359.414 89H-360.914V90.5H-359.414V89ZM-336.104 89V90.5H-334.604V89H-336.104ZM-336.104 58.142L-337.418 57.4173L-337.604 57.7556V58.142H-336.104ZM-305.357 0.920019H-330.887V3.92002H-305.357V0.920019ZM-332.223 1.73816L-348.651 33.9281L-345.979 35.2919L-329.551 3.10187L-332.223 1.73816ZM-347.315 33.11H-347.981V36.11H-347.315V33.11ZM-346.64 33.9392L-362.735 1.7492L-365.418 3.09084L-349.323 35.2808L-346.64 33.9392ZM-364.076 0.920019H-390.716V3.92002H-364.076V0.920019ZM-392.024 3.15467L-360.722 58.8766L-358.107 57.4073L-389.409 1.68537L-392.024 3.15467ZM-360.914 58.142V89H-357.914V58.142H-360.914ZM-359.414 90.5H-336.104V87.5H-359.414V90.5ZM-334.604 89V58.142H-337.604V89H-334.604ZM-334.791 58.8667L-304.044 3.1447L-306.671 1.69533L-337.418 57.4173L-334.791 58.8667ZM-260.877 21.458C-256.104 21.458 -252.423 21.7088 -249.564 22.3823C-246.733 23.0492 -244.802 24.1084 -243.422 25.6692C-242.026 27.2475 -241.058 29.491 -240.452 32.7799C-239.845 36.075 -239.622 40.2926 -239.622 45.71H-236.622C-236.622 40.2494 -236.843 35.809 -237.502 32.236C-238.162 28.6567 -239.282 25.822 -241.175 23.6818C-243.083 21.5241 -245.64 20.2246 -248.876 19.4623C-252.084 18.7067 -256.048 18.458 -260.877 18.458V21.458ZM-239.622 45.71C-239.622 51.1274 -239.845 55.345 -240.452 58.6401C-241.058 61.929 -242.026 64.1725 -243.422 65.7508C-244.802 67.3116 -246.733 68.3708 -249.564 69.0376C-252.423 69.7112 -256.104 69.962 -260.877 69.962V72.962C-256.048 72.962 -252.084 72.7133 -248.876 71.9577C-245.64 71.1954 -243.083 69.8959 -241.175 67.7382C-239.282 65.598 -238.162 62.7633 -237.502 59.184C-236.843 55.611 -236.622 51.1706 -236.622 45.71H-239.622ZM-260.877 69.962C-265.649 69.962 -269.33 69.7112 -272.19 69.0376C-275.02 68.3708 -276.952 67.3116 -278.332 65.7508C-279.728 64.1725 -280.695 61.929 -281.302 58.6401C-281.909 55.345 -282.132 51.1274 -282.132 45.71H-285.132C-285.132 51.1706 -284.911 55.611 -284.252 59.184C-283.592 62.7633 -282.472 65.598 -280.579 67.7382C-278.671 69.8959 -276.114 71.1954 -272.878 71.9577C-269.67 72.7133 -265.706 72.962 -260.877 72.962V69.962ZM-282.132 45.71C-282.132 40.2926 -281.909 36.075 -281.302 32.7799C-280.695 29.491 -279.728 27.2475 -278.332 25.6692C-276.952 24.1084 -275.02 23.0492 -272.19 22.3823C-269.33 21.7088 -265.649 21.458 -260.877 21.458V18.458C-265.706 18.458 -269.67 18.7067 -272.878 19.4623C-276.114 20.2246 -278.671 21.5241 -280.579 23.6818C-282.472 25.822 -283.592 28.6567 -284.252 32.236C-284.911 35.809 -285.132 40.2494 -285.132 45.71H-282.132ZM-309.552 45.71C-309.552 55.1445 -309.088 62.7699 -307.733 68.8815C-306.374 75.0149 -304.095 79.726 -300.396 83.222C-296.705 86.7107 -291.749 88.8477 -285.304 90.1229C-278.87 91.3957 -270.835 91.832 -260.877 91.832V88.832C-270.788 88.832 -278.584 88.3941 -284.721 87.1799C-290.847 85.968 -295.2 84.0049 -298.336 81.0417C-301.463 78.0859 -303.528 73.9933 -304.804 68.2323C-306.086 62.4496 -306.552 55.09 -306.552 45.71H-309.552ZM-260.877 91.832C-250.919 91.832 -242.884 91.3957 -236.45 90.1229C-230.005 88.8477 -225.048 86.7107 -221.357 83.222C-217.658 79.726 -215.38 75.0149 -214.02 68.8815C-212.666 62.7699 -212.202 55.1445 -212.202 45.71H-215.202C-215.202 55.09 -215.668 62.4496 -216.949 68.2323C-218.226 73.9933 -220.29 78.0859 -223.418 81.0417C-226.553 84.0049 -230.907 85.968 -237.032 87.1799C-243.17 88.3941 -250.966 88.832 -260.877 88.832V91.832ZM-212.202 45.71C-212.202 36.2755 -212.666 28.6501 -214.02 22.5385C-215.38 16.4051 -217.658 11.694 -221.357 8.19799C-225.048 4.70934 -230.005 2.57234 -236.45 1.29715C-242.884 0.0242736 -250.919 -0.411987 -260.877 -0.411987V2.58801C-250.966 2.58801 -243.17 3.02588 -237.032 4.2401C-230.907 5.452 -226.553 7.41506 -223.418 10.3783C-220.29 13.3341 -218.226 17.4267 -216.949 23.1877C-215.668 28.9704 -215.202 36.33 -215.202 45.71H-212.202ZM-260.877 -0.411987C-270.835 -0.411987 -278.87 0.0242736 -285.304 1.29715C-291.749 2.57234 -296.705 4.70934 -300.396 8.19799C-304.095 11.694 -306.374 16.4051 -307.733 22.5385C-309.088 28.6501 -309.552 36.2755 -309.552 45.71H-306.552C-306.552 36.33 -306.086 28.9704 -304.804 23.1877C-303.528 17.4267 -301.463 13.3341 -298.336 10.3783C-295.2 7.41506 -290.847 5.452 -284.721 4.2401C-278.584 3.02588 -270.788 2.58801 -260.877 2.58801V-0.411987ZM-129.102 2.42002H-127.602V0.920019H-129.102V2.42002ZM-152.412 2.42002V0.920019H-153.912V2.42002H-152.412ZM-182.604 2.42002H-181.104V0.920019H-182.604V2.42002ZM-205.914 2.42002V0.920019H-207.414V2.42002H-205.914ZM-127.602 53.48V2.42002H-130.602V53.48H-127.602ZM-129.102 0.920019H-152.412V3.92002H-129.102V0.920019ZM-153.912 2.42002V53.48H-150.912V2.42002H-153.912ZM-153.912 53.48C-153.912 57.2619 -154.059 60.181 -154.454 62.4476C-154.848 64.7118 -155.47 66.1939 -156.322 67.2091C-157.999 69.2066 -161.055 69.962 -167.508 69.962V72.962C-161.196 72.962 -156.705 72.3299 -154.025 69.1381C-152.699 67.5587 -151.94 65.4958 -151.498 62.9626C-151.057 60.432 -150.912 57.3016 -150.912 53.48H-153.912ZM-167.508 69.962C-173.961 69.962 -177.018 69.2066 -178.695 67.2091C-179.547 66.1939 -180.169 64.7118 -180.563 62.4476C-180.958 60.181 -181.104 57.2619 -181.104 53.48H-184.104C-184.104 57.3016 -183.96 60.432 -183.519 62.9626C-183.077 65.4958 -182.318 67.5587 -180.992 69.1381C-178.312 72.3299 -173.82 72.962 -167.508 72.962V69.962ZM-181.104 53.48V2.42002H-184.104V53.48H-181.104ZM-182.604 0.920019H-205.914V3.92002H-182.604V0.920019ZM-207.414 2.42002V53.48H-204.414V2.42002H-207.414ZM-207.414 53.48C-207.414 61.2762 -207.041 67.5952 -205.937 72.6688C-204.829 77.7628 -202.963 81.7071 -199.905 84.6431C-196.852 87.5736 -192.761 89.3558 -187.478 90.4152C-182.208 91.4721 -175.635 91.832 -167.508 91.832V88.832C-175.588 88.832 -181.919 88.4704 -186.888 87.4738C-191.845 86.4797 -195.33 84.8764 -197.827 82.4789C-200.319 80.0869 -201.977 76.7607 -203.006 72.0312C-204.039 67.2813 -204.414 61.2238 -204.414 53.48H-207.414ZM-167.508 91.832C-159.382 91.832 -152.809 91.4721 -147.539 90.4152C-142.256 89.3558 -138.165 87.5736 -135.112 84.6431C-132.054 81.7071 -130.188 77.7628 -129.08 72.6688C-127.976 67.5952 -127.602 61.2762 -127.602 53.48H-130.602C-130.602 61.2238 -130.978 67.2813 -132.011 72.0312C-133.04 76.7607 -134.698 80.0869 -137.19 82.4789C-139.687 84.8764 -143.172 86.4797 -148.129 87.4738C-153.098 88.4704 -159.429 88.832 -167.508 88.832V91.832ZM-120.171 2.42002V0.920019H-121.671V2.42002H-120.171ZM-120.171 89H-121.671V90.5H-120.171V89ZM-96.8609 89V90.5H-95.3609V89H-96.8609ZM-96.8609 60.695V59.195H-98.3609V60.695H-96.8609ZM-61.8959 89L-63.2299 89.6869L-62.8109 90.5H-61.8959V89ZM-36.3659 89V90.5H-34.8659V89H-36.3659ZM-36.3659 88.001H-34.8659V87.4307L-35.2449 87.0045L-36.3659 88.001ZM-55.5689 51.482L-55.9009 50.019L-55.9019 52.9447L-55.5689 51.482ZM-96.8609 42.935H-98.3609V44.435H-96.8609V42.935ZM-96.8609 21.29V19.79H-98.3609V21.29H-96.8609ZM-68.4449 0.920019H-120.171V3.92002H-68.4449V0.920019ZM-121.671 2.42002V89H-118.671V2.42002H-121.671ZM-120.171 90.5H-96.8609V87.5H-120.171V90.5ZM-95.3609 89V60.695H-98.3609V89H-95.3609ZM-96.8609 62.195H-73.9949V59.195H-96.8609V62.195ZM-73.9949 62.195C-70.3489 62.195 -68.5319 62.8166 -67.4789 64.0921C-66.3399 65.4715 -65.7269 68.0175 -65.7269 72.905H-62.7269C-62.7269 68.0245 -63.2799 64.4655 -65.1659 62.1819C-67.1369 59.7944 -70.2039 59.195 -73.9949 59.195V62.195ZM-65.7269 72.905C-65.7269 80.6517 -65.3039 85.6614 -63.2299 89.6869L-60.5629 88.3131C-62.2629 85.0126 -62.7269 80.6983 -62.7269 72.905H-65.7269ZM-61.8959 90.5H-36.3659V87.5H-61.8959V90.5ZM-34.8659 89V88.001H-37.8659V89H-34.8659ZM-35.2449 87.0045C-36.7629 85.2975 -37.8019 82.7176 -38.4449 79.3526C-39.0849 76.0062 -39.3059 72.0356 -39.3059 67.688H-42.3059C-42.3059 72.1094 -42.0839 76.2973 -41.3919 79.9161C-40.7029 83.5164 -39.5219 86.7085 -37.4869 88.9975L-35.2449 87.0045ZM-39.3059 67.688C-39.3059 62.1772 -40.6179 58.2331 -43.4669 55.3995C-46.2519 52.6306 -50.2989 51.1416 -55.2369 50.0193L-55.9019 52.9447C-51.0719 54.0424 -47.7369 55.3839 -45.5819 57.5268C-43.4929 59.6049 -42.3059 62.6538 -42.3059 67.688H-39.3059ZM-55.2379 52.945C-49.2389 51.5868 -44.8769 49.606 -42.0429 46.4145C-39.1789 43.1883 -38.0849 38.9649 -38.0849 33.611H-41.0849C-41.0849 38.5801 -42.0999 41.9602 -44.2869 44.4228C-46.5039 46.92 -50.1329 48.7132 -55.9009 50.019L-55.2379 52.945ZM-38.0849 33.611V30.281H-41.0849V33.611H-38.0849ZM-38.0849 30.281C-38.0849 24.3743 -38.3549 19.5628 -39.1779 15.6885C-40.0049 11.7946 -41.4139 8.73626 -43.7719 6.44927C-46.1249 4.16675 -49.2719 2.79986 -53.2919 1.99342C-57.2979 1.18966 -62.2889 0.920019 -68.4449 0.920019V3.92002C-62.3359 3.92002 -57.5869 4.1915 -53.8819 4.9348C-50.1909 5.67542 -47.6559 6.86153 -45.8609 8.60276C-44.0699 10.3395 -42.8629 12.7757 -42.1119 16.3118C-41.3569 19.8675 -41.0849 24.4217 -41.0849 30.281H-38.0849ZM-95.3609 42.935V21.29H-98.3609V42.935H-95.3609ZM-96.8609 22.79H-74.4389V19.79H-96.8609V22.79ZM-74.4389 22.79C-72.0269 22.79 -70.2039 22.9083 -68.8139 23.1916C-67.4349 23.4728 -66.5919 23.8948 -66.0329 24.4217C-65.4819 24.94 -65.0639 25.6933 -64.7879 26.9127C-64.5069 28.1555 -64.3949 29.7824 -64.3949 31.946H-61.3949C-61.3949 29.7251 -61.5049 27.8278 -61.8619 26.2505C-62.2249 24.6498 -62.861 23.2871 -63.976 22.2376C-65.081 21.1966 -66.5139 20.5988 -68.2149 20.2521C-69.9049 19.9076 -71.9679 19.79 -74.4389 19.79V22.79ZM-64.3949 31.946C-64.3949 34.1944 -64.5069 35.8877 -64.7909 37.182C-65.0699 38.4556 -65.4929 39.2398 -66.0469 39.7753C-66.6059 40.3159 -67.4449 40.7444 -68.8189 41.0291C-70.2059 41.3166 -72.0259 41.435 -74.4389 41.435V44.435C-71.9689 44.435 -69.9029 44.3175 -68.2099 43.9667C-66.5039 43.6132 -65.0679 43.0011 -63.9619 41.9322C-62.8509 40.8582 -62.2189 39.4641 -61.8599 37.8239C-61.5049 36.2044 -61.3949 34.2486 -61.3949 31.946H-64.3949ZM-74.4389 41.435H-96.8609V44.435H-74.4389V41.435ZM95.7371 52.259L97.2371 52.2486L97.2261 50.759H95.7371V52.259ZM71.317 52.259V50.759H69.7961L69.817 52.2795L71.317 52.259ZM71.317 39.05L69.817 39.0293L69.7961 40.55H71.317V39.05ZM95.7371 39.05V40.55H97.2261L97.2371 39.0604L95.7371 39.05ZM95.7371 50.759H71.317V53.759H95.7371V50.759ZM69.817 52.2795C69.872 56.3014 69.6951 59.3829 69.1551 61.7644C68.6211 64.1159 67.7541 65.6915 66.4821 66.8123C65.1901 67.9507 63.3261 68.7567 60.5421 69.2649C57.7541 69.7739 54.1741 69.962 49.5611 69.962V72.962C54.2161 72.962 58.0171 72.7754 61.0811 72.2161C64.1491 71.6559 66.6071 70.6998 68.4651 69.0632C70.3421 67.409 71.4521 65.1968 72.0811 62.4284C72.7021 59.69 72.872 56.3196 72.817 52.2385L69.817 52.2795ZM49.5611 69.962C40.1641 69.962 35.3511 68.9014 32.6611 65.7676C31.3071 64.1898 30.3661 61.943 29.7771 58.6481C29.1871 55.349 28.972 51.1281 28.972 45.71H25.972C25.972 51.1698 26.1861 55.607 26.8241 59.1761C27.4631 62.7492 28.5481 65.5807 30.3851 67.7214C34.0781 72.0246 40.3091 72.962 49.5611 72.962V69.962ZM28.972 45.71C28.972 40.2918 29.1871 36.071 29.7771 32.7719C30.3661 29.477 31.3071 27.2302 32.6611 25.6524C35.3511 22.5186 40.1641 21.458 49.5611 21.458V18.458C40.3091 18.458 34.0781 19.3954 30.3851 23.6986C28.5481 25.8393 27.4631 28.6708 26.8241 32.2439C26.1861 35.813 25.972 40.2501 25.972 45.71H28.972ZM49.5611 21.458C54.1731 21.458 57.7541 21.646 60.5431 22.1535C63.3271 22.6602 65.1921 23.4634 66.4841 24.5963C67.7561 25.711 68.6221 27.2764 69.1551 29.6107C69.6951 31.9757 69.872 35.0355 69.817 39.0293L72.817 39.0707C72.872 35.017 72.702 31.6666 72.08 28.9429C71.451 26.1885 70.3401 23.9869 68.4621 22.3404C66.6051 20.7122 64.148 19.7602 61.08 19.202C58.017 18.6446 54.2161 18.458 49.5611 18.458V21.458ZM71.317 40.55H95.7371V37.55H71.317V40.55ZM97.2371 39.0604C97.3471 23.1383 95.6641 12.9206 88.3791 6.92298C84.7601 3.9439 79.9051 2.12953 73.5911 1.04571C67.2781 -0.0380074 59.3771 -0.411987 49.5611 -0.411987V2.58801C59.3361 2.58801 67.0301 2.96329 73.0831 4.00245C79.1361 5.0415 83.417 6.72363 86.472 9.23905C92.535 14.2304 94.3481 22.9937 94.2371 39.0396L97.2371 39.0604ZM49.5611 -0.411987C39.7411 -0.411987 31.815 0.0242566 25.468 1.29795C19.108 2.57423 14.2161 4.71359 10.5741 8.20539C6.92707 11.7027 4.68205 16.4131 3.34305 22.543C2.00905 28.6525 1.55206 36.276 1.55206 45.71H4.55206C4.55206 36.3295 5.01005 28.968 6.27405 23.1832C7.53305 17.4187 9.56906 13.3254 12.6511 10.3709C15.7381 7.41081 20.0251 5.45011 26.0581 4.2393C32.1051 3.0259 39.7891 2.58801 49.5611 2.58801V-0.411987ZM1.55206 45.71C1.55206 55.144 2.00905 62.7675 3.34305 68.877C4.68205 75.0069 6.92707 79.7173 10.5741 83.2146C14.2161 86.7064 19.108 88.8458 25.468 90.1221C31.815 91.3958 39.7411 91.832 49.5611 91.832V88.832C39.7891 88.832 32.1051 88.3941 26.0581 87.1807C20.0251 85.9699 15.7381 84.0092 12.6511 81.0491C9.56906 78.0946 7.53305 74.0013 6.27405 68.2368C5.01005 62.452 4.55206 55.0905 4.55206 45.71H1.55206ZM49.5611 91.832C59.3771 91.832 67.2781 91.458 73.5911 90.3725C79.9051 89.2868 84.7621 87.4687 88.3801 84.482C95.6641 78.4702 97.3471 68.2252 97.2371 52.2486L94.2371 52.2694C94.3481 68.3718 92.5351 77.1633 86.4711 82.1683C83.4161 84.6899 79.1351 86.3752 73.0831 87.4159C67.0301 88.4567 59.3361 88.832 49.5611 88.832V91.832ZM167.169 2.42002L168.588 1.93586L168.242 0.920019H167.169V2.42002ZM129.429 2.42002V0.920019H128.359L128.011 1.93098L129.429 2.42002ZM99.5701 89L98.1521 88.511L97.4661 90.5H99.5701V89ZM125.1 89V90.5H126.234L126.543 89.4083L125.1 89ZM129.873 72.128V70.628H128.738L128.429 71.7197L129.873 72.128ZM164.616 72.128L166.043 71.6678L165.708 70.628H164.616V72.128ZM170.055 89L168.627 89.4602L168.962 90.5H170.055V89ZM196.695 89V90.5H198.791L198.114 88.5158L196.695 89ZM135.312 53.258L133.903 52.7427L133.166 54.758H135.312V53.258ZM147.411 20.18V18.68H146.362L146.002 19.6647L147.411 20.18ZM148.299 20.18L149.721 19.7028L149.377 18.68H148.299V20.18ZM159.399 53.258V54.758H161.484L160.821 52.7808L159.399 53.258ZM167.169 0.920019H129.429V3.92002H167.169V0.920019ZM128.011 1.93098L98.1521 88.511L100.988 89.489L130.847 2.90906L128.011 1.93098ZM99.5701 90.5H125.1V87.5H99.5701V90.5ZM126.543 89.4083L131.316 72.5363L128.429 71.7197L123.656 88.5917L126.543 89.4083ZM129.873 73.628H164.616V70.628H129.873V73.628ZM163.188 72.5882L168.627 89.4602L171.482 88.5398L166.043 71.6678L163.188 72.5882ZM170.055 90.5H196.695V87.5H170.055V90.5ZM198.114 88.5158L168.588 1.93586L165.749 2.90418L195.275 89.4842L198.114 88.5158ZM136.72 53.7733L148.819 20.6953L146.002 19.6647L133.903 52.7427L136.72 53.7733ZM147.411 21.68H148.299V18.68H147.411V21.68ZM146.877 20.6572L157.977 53.7352L160.821 52.7808L149.721 19.7028L146.877 20.6572ZM159.399 51.758H135.312V54.758H159.399V51.758ZM201.664 2.42002V0.920019H200.164V2.42002H201.664ZM201.664 89H200.164V90.5H201.664V89ZM224.974 89V90.5H226.474V89H224.974ZM224.974 60.695V59.195H223.474V60.695H224.974ZM259.939 89L258.605 89.6869L259.024 90.5H259.939V89ZM285.469 89V90.5H286.969V89H285.469ZM285.469 88.001H286.969V87.4307L286.59 87.0045L285.469 88.001ZM266.266 51.482L265.934 50.019L265.933 52.9447L266.266 51.482ZM224.974 42.935H223.474V44.435H224.974V42.935ZM224.974 21.29V19.79H223.474V21.29H224.974ZM253.39 0.920019H201.664V3.92002H253.39V0.920019ZM200.164 2.42002V89H203.164V2.42002H200.164ZM201.664 90.5H224.974V87.5H201.664V90.5ZM226.474 89V60.695H223.474V89H226.474ZM224.974 62.195H247.84V59.195H224.974V62.195ZM247.84 62.195C251.486 62.195 253.303 62.8166 254.356 64.0921C255.495 65.4715 256.108 68.0175 256.108 72.905H259.108C259.108 68.0245 258.555 64.4655 256.669 62.1819C254.698 59.7944 251.631 59.195 247.84 59.195V62.195ZM256.108 72.905C256.108 80.6517 256.531 85.6614 258.605 89.6869L261.272 88.3131C259.572 85.0126 259.108 80.6983 259.108 72.905H256.108ZM259.939 90.5H285.469V87.5H259.939V90.5ZM286.969 89V88.001H283.969V89H286.969ZM286.59 87.0045C285.072 85.2975 284.033 82.7176 283.39 79.3526C282.75 76.0062 282.529 72.0356 282.529 67.688H279.529C279.529 72.1094 279.751 76.2973 280.443 79.9161C281.132 83.5164 282.313 86.7085 284.348 88.9975L286.59 87.0045ZM282.529 67.688C282.529 62.1772 281.217 58.2331 278.368 55.3995C275.583 52.6306 271.536 51.1416 266.598 50.0193L265.933 52.9447C270.763 54.0424 274.098 55.3839 276.252 57.5268C278.342 59.6049 279.529 62.6538 279.529 67.688H282.529ZM266.597 52.945C272.596 51.5868 276.958 49.606 279.792 46.4145C282.656 43.1883 283.75 38.9649 283.75 33.611H280.75C280.75 38.5801 279.734 41.9602 277.548 44.4228C275.331 46.92 271.702 48.7132 265.934 50.019L266.597 52.945ZM283.75 33.611V30.281H280.75V33.611H283.75ZM283.75 30.281C283.75 24.3743 283.48 19.5628 282.657 15.6885C281.83 11.7946 280.421 8.73626 278.063 6.44927C275.71 4.16675 272.563 2.79986 268.543 1.99342C264.537 1.18966 259.546 0.920019 253.39 0.920019V3.92002C259.499 3.92002 264.248 4.1915 267.953 4.9348C271.644 5.67542 274.179 6.86153 275.974 8.60276C277.765 10.3395 278.972 12.7757 279.723 16.3118C280.478 19.8675 280.75 24.4217 280.75 30.281H283.75ZM226.474 42.935V21.29H223.474V42.935H226.474ZM224.974 22.79H247.396V19.79H224.974V22.79ZM247.396 22.79C249.808 22.79 251.63 22.9083 253.021 23.1916C254.4 23.4728 255.243 23.8948 255.802 24.4217C256.353 24.94 256.771 25.6933 257.047 26.9127C257.328 28.1555 257.44 29.7824 257.44 31.946H260.44C260.44 29.7251 260.329 27.8278 259.973 26.2505C259.61 24.6498 258.973 23.2871 257.859 22.2376C256.753 21.1966 255.321 20.5988 253.62 20.2521C251.93 19.9076 249.867 19.79 247.396 19.79V22.79ZM257.44 31.946C257.44 34.1944 257.328 35.8877 257.044 37.182C256.765 38.4556 256.342 39.2398 255.788 39.7753C255.229 40.3159 254.39 40.7444 253.016 41.0291C251.629 41.3166 249.809 41.435 247.396 41.435V44.435C249.866 44.435 251.932 44.3175 253.625 43.9667C255.331 43.6132 256.767 43.0011 257.873 41.9322C258.984 40.8582 259.615 39.4641 259.975 37.8239C260.33 36.2044 260.44 34.2486 260.44 31.946H257.44ZM247.396 41.435H224.974V44.435H247.396V41.435ZM315.362 89H313.862V90.5H315.362V89ZM338.672 89V90.5H340.172V89H338.672ZM338.672 21.29V19.79H337.172V21.29H338.672ZM365.423 21.29V22.79H366.923V21.29H365.423ZM365.423 2.42002H366.923V0.920019H365.423V2.42002ZM288.833 2.42002V0.920019H287.333V2.42002H288.833ZM288.833 21.29H287.333V22.79H288.833V21.29ZM315.362 21.29H316.862V19.79H315.362V21.29ZM315.362 90.5H338.672V87.5H315.362V90.5ZM340.172 89V21.29H337.172V89H340.172ZM338.672 22.79H365.423V19.79H338.672V22.79ZM366.923 21.29V2.42002H363.923V21.29H366.923ZM365.423 0.920019H288.833V3.92002H365.423V0.920019ZM287.333 2.42002V21.29H290.333V2.42002H287.333ZM288.833 22.79H315.362V19.79H288.833V22.79ZM313.862 21.29V89H316.862V21.29H313.862Z" fill="white"/>
</svg>
