<svg width="234" height="29" viewBox="0 0 234 29" fill="none" xmlns="http://www.w3.org/2000/svg">
<path d="M29.9801 16.4151L30.9801 16.4081L30.9732 15.4151H29.9801V16.4151ZM22.2801 16.4151V15.4151H21.2663L21.2802 16.4288L22.2801 16.4151ZM22.2801 12.2501L21.2802 12.2363L21.2662 13.2501H22.2801V12.2501ZM29.9801 12.2501V13.2501H30.9732L30.9801 12.257L29.9801 12.2501ZM29.9801 15.4151H22.2801V17.4151H29.9801V15.4151ZM21.2802 16.4288C21.2974 17.6865 21.2407 18.6074 21.0845 19.2956C20.9328 19.9638 20.7019 20.3488 20.4071 20.6085C20.099 20.8799 19.6156 21.1077 18.7881 21.2588C17.9573 21.4105 16.8671 21.4701 15.4201 21.4701V23.4701C16.8956 23.4701 18.1329 23.4115 19.1473 23.2263C20.1649 23.0405 21.0443 22.7127 21.7293 22.1091C22.4277 21.4938 22.8201 20.6844 23.0349 19.7383C23.2451 18.8121 23.2978 17.6987 23.28 16.4014L21.2802 16.4288ZM15.4201 21.4701C12.4316 21.4701 11.1632 21.114 10.4914 20.3313C10.1493 19.9327 9.87789 19.3269 9.70088 18.3369C9.52338 17.3441 9.45508 16.0512 9.45508 14.3501H7.45508C7.45508 16.079 7.5224 17.516 7.73209 18.6889C7.94227 19.8644 8.30959 20.86 8.97372 21.6338C10.3145 23.1961 12.5286 23.4701 15.4201 23.4701V21.4701ZM9.45508 14.3501C9.45508 12.649 9.52338 11.356 9.70088 10.3632C9.87789 9.37318 10.1493 8.76746 10.4914 8.36882C11.1632 7.58611 12.4316 7.23006 15.4201 7.23006V5.23006C12.5286 5.23006 10.3145 5.50401 8.97372 7.0663C8.30959 7.84016 7.94227 8.83569 7.73209 10.0113C7.5224 11.1841 7.45508 12.6212 7.45508 14.3501H9.45508ZM15.4201 7.23006C16.867 7.23006 17.9575 7.28961 18.7886 7.44086C19.6168 7.59156 20.1008 7.81869 20.409 8.0889C20.7034 8.34695 20.9335 8.72877 21.0848 9.39105C21.2407 10.0737 21.2974 10.9875 21.2802 12.2363L23.28 12.2639C23.2978 10.9751 23.2451 9.86765 23.0346 8.94579C22.8194 8.00354 22.4262 7.19754 21.7274 6.58497C21.0425 5.98456 20.1637 5.65825 19.1467 5.47317C18.1327 5.28864 16.8957 5.23006 15.4201 5.23006V7.23006ZM22.2801 13.2501H29.9801V11.2501H22.2801V13.2501ZM30.9801 12.257C31.0148 7.25828 30.5068 3.78095 27.9951 1.71304C26.7551 0.692234 25.1229 0.0969043 23.0864 -0.252711C21.0503 -0.602248 18.5224 -0.719941 15.4201 -0.719941V1.28006C18.4953 1.28006 20.8849 1.39862 22.748 1.71845C24.6106 2.03821 25.8594 2.54539 26.7239 3.25708C28.4208 4.65417 29.0154 7.16184 28.9801 12.2431L30.9801 12.257ZM15.4201 -0.719941C12.3152 -0.719941 9.77378 -0.582676 7.71966 -0.170473C5.65691 0.243462 4.00819 0.949423 2.76239 2.14385C1.51273 3.34198 0.768318 4.93561 0.332098 6.93268C-0.101148 8.91612 -0.244922 11.366 -0.244922 14.3501H1.75508C1.75508 11.4016 1.90005 9.1265 2.28603 7.35948C2.66903 5.60607 3.2743 4.42377 4.14652 3.58752C5.02259 2.74757 6.26793 2.16072 8.11316 1.79043C9.967 1.41842 12.3474 1.28006 15.4201 1.28006V-0.719941ZM-0.244922 14.3501C-0.244922 17.3341 -0.101148 19.784 0.332098 21.7674C0.768318 23.7645 1.51273 25.3581 2.76239 26.5563C4.00819 27.7507 5.65691 28.4567 7.71966 28.8706C9.77378 29.2828 12.3152 29.4201 15.4201 29.4201V27.4201C12.3474 27.4201 9.967 27.2817 8.11316 26.9097C6.26793 26.5394 5.02259 25.9525 4.14652 25.1126C3.2743 24.2764 2.66903 23.0941 2.28603 21.3406C1.90005 19.5736 1.75508 17.2985 1.75508 14.3501H-0.244922ZM15.4201 29.4201C18.5224 29.4201 21.0504 29.3024 23.0867 28.9522C25.1235 28.602 26.756 28.0054 27.996 26.9819C30.507 24.9095 31.0148 21.4237 30.9801 16.4081L28.9801 16.422C29.0154 21.5214 28.4207 24.0382 26.7229 25.4394C25.8585 26.1529 24.6101 26.6609 22.7477 26.9812C20.8848 27.3015 18.4953 27.4201 15.4201 27.4201V29.4201ZM33.4137 28.0001H32.4137V29.0001H33.4137V28.0001ZM40.7637 28.0001V29.0001H41.7637V28.0001H40.7637ZM40.7637 17.2201V16.2201H39.7637V17.2201H40.7637ZM51.9637 17.2201H52.9637V16.2201H51.9637V17.2201ZM51.9637 28.0001H50.9637V29.0001H51.9637V28.0001ZM59.3137 28.0001V29.0001H60.3137V28.0001H59.3137ZM59.3137 0.70006H60.3137V-0.29994H59.3137V0.70006ZM51.9637 0.70006V-0.29994H50.9637V0.70006H51.9637ZM51.9637 10.9201V11.9201H52.9637V10.9201H51.9637ZM40.7637 10.9201H39.7637V11.9201H40.7637V10.9201ZM40.7637 0.70006H41.7637V-0.29994H40.7637V0.70006ZM33.4137 0.70006V-0.29994H32.4137V0.70006H33.4137ZM33.4137 29.0001H40.7637V27.0001H33.4137V29.0001ZM41.7637 28.0001V17.2201H39.7637V28.0001H41.7637ZM40.7637 18.2201H51.9637V16.2201H40.7637V18.2201ZM50.9637 17.2201V28.0001H52.9637V17.2201H50.9637ZM51.9637 29.0001H59.3137V27.0001H51.9637V29.0001ZM60.3137 28.0001V0.70006H58.3137V28.0001H60.3137ZM59.3137 -0.29994H51.9637V1.70006H59.3137V-0.29994ZM50.9637 0.70006V10.9201H52.9637V0.70006H50.9637ZM51.9637 9.92006H40.7637V11.9201H51.9637V9.92006ZM41.7637 10.9201V0.70006H39.7637V10.9201H41.7637ZM40.7637 -0.29994H33.4137V1.70006H40.7637V-0.29994ZM32.4137 0.70006V28.0001H34.4137V0.70006H32.4137ZM63.1246 0.70006V-0.29994H62.1246V0.70006H63.1246ZM63.1246 28.0001H62.1246V29.0001H63.1246V28.0001ZM85.4896 28.0001V29.0001H86.4896V28.0001H85.4896ZM85.4896 21.7001H86.4896V20.7001H85.4896V21.7001ZM70.4746 21.7001H69.4746V22.7001H70.4746V21.7001ZM70.4746 17.1501V16.1501H69.4746V17.1501H70.4746ZM83.7046 17.1501V18.1501H84.7046V17.1501H83.7046ZM83.7046 11.2001H84.7046V10.2001H83.7046V11.2001ZM70.4746 11.2001H69.4746V12.2001H70.4746V11.2001ZM70.4746 7.00006V6.00006H69.4746V7.00006H70.4746ZM85.4896 7.00006V8.00006H86.4896V7.00006H85.4896ZM85.4896 0.70006H86.4896V-0.29994H85.4896V0.70006ZM62.1246 0.70006V28.0001H64.1246V0.70006H62.1246ZM63.1246 29.0001H85.4896V27.0001H63.1246V29.0001ZM86.4896 28.0001V21.7001H84.4896V28.0001H86.4896ZM85.4896 20.7001H70.4746V22.7001H85.4896V20.7001ZM71.4746 21.7001V17.1501H69.4746V21.7001H71.4746ZM70.4746 18.1501H83.7046V16.1501H70.4746V18.1501ZM84.7046 17.1501V11.2001H82.7046V17.1501H84.7046ZM83.7046 10.2001H70.4746V12.2001H83.7046V10.2001ZM71.4746 11.2001V7.00006H69.4746V11.2001H71.4746ZM70.4746 8.00006H85.4896V6.00006H70.4746V8.00006ZM86.4896 7.00006V0.70006H84.4896V7.00006H86.4896ZM85.4896 -0.29994H63.1246V1.70006H85.4896V-0.29994ZM118.156 16.4151L119.156 16.4081L119.149 15.4151H118.156V16.4151ZM110.456 16.4151V15.4151H109.442L109.456 16.4288L110.456 16.4151ZM110.456 12.2501L109.456 12.2363L109.442 13.2501H110.456V12.2501ZM118.156 12.2501V13.2501H119.149L119.156 12.257L118.156 12.2501ZM118.156 15.4151H110.456V17.4151H118.156V15.4151ZM109.456 16.4288C109.473 17.6865 109.416 18.6074 109.26 19.2956C109.109 19.9638 108.878 20.3488 108.583 20.6085C108.275 20.8799 107.791 21.1077 106.964 21.2588C106.133 21.4105 105.043 21.4701 103.596 21.4701V23.4701C105.071 23.4701 106.309 23.4115 107.323 23.2263C108.341 23.0405 109.22 22.7127 109.905 22.1091C110.603 21.4938 110.996 20.6844 111.211 19.7383C111.421 18.8121 111.474 17.6987 111.456 16.4014L109.456 16.4288ZM103.596 21.4701C100.607 21.4701 99.3389 21.114 98.6672 20.3313C98.3251 19.9327 98.0537 19.3269 97.8767 18.3369C97.6992 17.3441 97.6309 16.0512 97.6309 14.3501H95.6309C95.6309 16.079 95.6982 17.516 95.9079 18.6889C96.118 19.8644 96.4854 20.86 97.1495 21.6338C98.4903 23.1961 100.704 23.4701 103.596 23.4701V21.4701ZM97.6309 14.3501C97.6309 12.649 97.6992 11.356 97.8767 10.3632C98.0537 9.37318 98.3251 8.76746 98.6672 8.36882C99.3389 7.58611 100.607 7.23006 103.596 7.23006V5.23006C100.704 5.23006 98.4903 5.50401 97.1495 7.0663C96.4854 7.84016 96.118 8.83569 95.9079 10.0113C95.6982 11.1841 95.6309 12.6212 95.6309 14.3501H97.6309ZM103.596 7.23006C105.043 7.23006 106.133 7.28961 106.964 7.44086C107.793 7.59156 108.277 7.81869 108.585 8.0889C108.879 8.34695 109.109 8.72877 109.261 9.39105C109.416 10.0737 109.473 10.9875 109.456 12.2363L111.456 12.2639C111.474 10.9751 111.421 9.86765 111.21 8.94579C110.995 8.00354 110.602 7.19754 109.903 6.58497C109.218 5.98456 108.339 5.65825 107.322 5.47317C106.308 5.28864 105.071 5.23006 103.596 5.23006V7.23006ZM110.456 13.2501H118.156V11.2501H110.456V13.2501ZM119.156 12.257C119.191 7.25828 118.683 3.78095 116.171 1.71304C114.931 0.692234 113.299 0.0969043 111.262 -0.252711C109.226 -0.602248 106.698 -0.719941 103.596 -0.719941V1.28006C106.671 1.28006 109.061 1.39862 110.924 1.71845C112.786 2.03821 114.035 2.54539 114.9 3.25708C116.597 4.65417 117.191 7.16184 117.156 12.2431L119.156 12.257ZM103.596 -0.719941C100.491 -0.719941 97.9496 -0.582676 95.8954 -0.170473C93.8327 0.243462 92.184 0.949423 90.9382 2.14385C89.6885 3.34198 88.9441 4.93561 88.5079 6.93268C88.0746 8.91612 87.9309 11.366 87.9309 14.3501H89.9309C89.9309 11.4016 90.0758 9.1265 90.4618 7.35948C90.8448 5.60607 91.4501 4.42377 92.3223 3.58752C93.1984 2.74757 94.4437 2.16072 96.2889 1.79043C98.1428 1.41842 100.523 1.28006 103.596 1.28006V-0.719941ZM87.9309 14.3501C87.9309 17.3341 88.0746 19.784 88.5079 21.7674C88.9441 23.7645 89.6885 25.3581 90.9382 26.5563C92.184 27.7507 93.8327 28.4567 95.8954 28.8706C97.9496 29.2828 100.491 29.4201 103.596 29.4201V27.4201C100.523 27.4201 98.1428 27.2817 96.2889 26.9097C94.4437 26.5394 93.1984 25.9525 92.3223 25.1126C91.4501 24.2764 90.8448 23.0941 90.4618 21.3406C90.0758 19.5736 89.9309 17.2985 89.9309 14.3501H87.9309ZM103.596 29.4201C106.698 29.4201 109.226 29.3024 111.262 28.9522C113.299 28.602 114.932 28.0054 116.172 26.9819C118.683 24.9095 119.191 21.4237 119.156 16.4081L117.156 16.422C117.191 21.5214 116.596 24.0382 114.899 25.4394C114.034 26.1529 112.786 26.6609 110.924 26.9812C109.061 27.3015 106.671 27.4201 103.596 27.4201V29.4201ZM121.589 28.0001H120.589V29.0001H121.589V28.0001ZM128.939 28.0001V29.0001H129.939V28.0001H128.939ZM128.939 17.0451V16.0451H127.939V17.0451H128.939ZM132.824 17.0451L133.695 16.5528L133.408 16.0451H132.824V17.0451ZM139.019 28.0001L138.149 28.4923L138.436 29.0001H139.019V28.0001ZM147.419 28.0001V29.0001H149.216L148.269 27.4731L147.419 28.0001ZM138.564 13.7201L137.727 13.1732L137.379 13.7061L137.715 14.2471L138.564 13.7201ZM147.069 0.70006L147.907 1.24695L148.917 -0.29994H147.069V0.70006ZM139.019 0.70006V-0.29994H138.471L138.176 0.162424L139.019 0.70006ZM132.614 10.7451V11.7451H133.163L133.458 11.2827L132.614 10.7451ZM128.939 10.7451H127.939V11.7451H128.939V10.7451ZM128.939 0.70006H129.939V-0.29994H128.939V0.70006ZM121.589 0.70006V-0.29994H120.589V0.70006H121.589ZM121.589 29.0001H128.939V27.0001H121.589V29.0001ZM129.939 28.0001V17.0451H127.939V28.0001H129.939ZM128.939 18.0451H132.824V16.0451H128.939V18.0451ZM131.954 17.5373L138.149 28.4923L139.89 27.5078L133.695 16.5528L131.954 17.5373ZM139.019 29.0001H147.419V27.0001H139.019V29.0001ZM148.269 27.4731L139.414 13.1931L137.715 14.2471L146.57 28.5271L148.269 27.4731ZM139.402 14.2669L147.907 1.24695L146.232 0.153174L137.727 13.1732L139.402 14.2669ZM147.069 -0.29994H139.019V1.70006H147.069V-0.29994ZM138.176 0.162424L131.771 10.2074L133.458 11.2827L139.863 1.2377L138.176 0.162424ZM132.614 9.74506H128.939V11.7451H132.614V9.74506ZM129.939 10.7451V0.70006H127.939V10.7451H129.939ZM128.939 -0.29994H121.589V1.70006H128.939V-0.29994ZM120.589 0.70006V28.0001H122.589V0.70006H120.589ZM164.527 7.23006C166.021 7.23006 167.132 7.30953 167.973 7.50748C168.794 7.70097 169.293 7.99276 169.636 8.38001C169.988 8.77897 170.267 9.38253 170.449 10.3685C170.631 11.3587 170.702 12.6495 170.702 14.3501H172.702C172.702 12.6206 172.632 11.1814 172.415 10.006C172.198 8.82634 171.818 7.82865 171.134 7.05511C170.439 6.26986 169.523 5.8179 168.431 5.56076C167.359 5.30809 166.059 5.23006 164.527 5.23006V7.23006ZM170.702 14.3501C170.702 16.0506 170.631 17.3414 170.449 18.3316C170.267 19.3176 169.988 19.9212 169.636 20.3201C169.293 20.7074 168.794 20.9992 167.973 21.1926C167.132 21.3906 166.021 21.4701 164.527 21.4701V23.4701C166.059 23.4701 167.359 23.392 168.431 23.1394C169.523 22.8822 170.439 22.4303 171.134 21.645C171.818 20.8715 172.198 19.8738 172.415 18.6942C172.632 17.5187 172.702 16.0795 172.702 14.3501H170.702ZM164.527 21.4701C163.032 21.4701 161.921 21.3906 161.08 21.1926C160.259 20.9992 159.76 20.7074 159.418 20.3201C159.065 19.9212 158.786 19.3176 158.605 18.3316C158.422 17.3414 158.352 16.0506 158.352 14.3501H156.352C156.352 16.0795 156.421 17.5187 156.638 18.6942C156.855 19.8738 157.235 20.8715 157.919 21.645C158.614 22.4303 159.53 22.8822 160.622 23.1394C161.694 23.392 162.994 23.4701 164.527 23.4701V21.4701ZM158.352 14.3501C158.352 12.6495 158.422 11.3587 158.605 10.3685C158.786 9.38253 159.065 8.77897 159.418 8.38001C159.76 7.99276 160.259 7.70097 161.08 7.50748C161.921 7.30953 163.032 7.23006 164.527 7.23006V5.23006C162.994 5.23006 161.694 5.30809 160.622 5.56076C159.53 5.8179 158.614 6.26986 157.919 7.05511C157.235 7.82865 156.855 8.82634 156.638 10.006C156.421 11.1814 156.352 12.6206 156.352 14.3501H158.352ZM148.652 14.3501C148.652 17.3345 148.798 19.7856 149.237 21.7704C149.681 23.7698 150.437 25.364 151.703 26.5612C152.965 27.7535 154.634 28.4579 156.722 28.8711C158.803 29.2828 161.378 29.4201 164.527 29.4201V27.4201C161.41 27.4201 158.993 27.2817 157.11 26.9092C155.235 26.5381 153.968 25.9497 153.077 25.1077C152.191 24.2705 151.578 23.0887 151.19 21.3377C150.799 19.5721 150.652 17.2982 150.652 14.3501H148.652ZM164.527 29.4201C167.675 29.4201 170.25 29.2828 172.331 28.8711C174.419 28.4579 176.088 27.7535 177.35 26.5612C178.616 25.364 179.373 23.7698 179.816 21.7704C180.256 19.7856 180.402 17.3345 180.402 14.3501H178.402C178.402 17.2982 178.254 19.5721 177.863 21.3377C177.475 23.0887 176.862 24.2705 175.976 25.1077C175.085 25.9497 173.818 26.5381 171.943 26.9092C170.06 27.2817 167.643 27.4201 164.527 27.4201V29.4201ZM180.402 14.3501C180.402 11.3657 180.256 8.91457 179.816 6.92969C179.373 4.93029 178.616 3.33616 177.35 2.13892C176.088 0.946589 174.419 0.242207 172.331 -0.171003C170.25 -0.582665 167.675 -0.719941 164.527 -0.719941V1.28006C167.643 1.28006 170.06 1.41841 171.943 1.79097C173.818 2.16197 175.085 2.75041 175.976 3.59245C176.862 4.42959 177.475 5.6114 177.863 7.36246C178.254 9.12805 178.402 11.402 178.402 14.3501H180.402ZM164.527 -0.719941C161.378 -0.719941 158.803 -0.582665 156.722 -0.171003C154.634 0.242207 152.965 0.946589 151.703 2.13892C150.437 3.33616 149.681 4.93029 149.237 6.92969C148.798 8.91457 148.652 11.3657 148.652 14.3501H150.652C150.652 11.402 150.799 9.12805 151.19 7.36246C151.578 5.6114 152.191 4.42959 153.077 3.59245C153.968 2.75041 155.235 2.16197 157.11 1.79097C158.993 1.41841 161.41 1.28006 164.527 1.28006V-0.719941ZM207.077 0.70006H208.077V-0.29994H207.077V0.70006ZM199.727 0.70006V-0.29994H198.727V0.70006H199.727ZM190.207 0.70006H191.207V-0.29994H190.207V0.70006ZM182.857 0.70006V-0.29994H181.857V0.70006H182.857ZM208.077 16.8001V0.70006H206.077V16.8001H208.077ZM207.077 -0.29994H199.727V1.70006H207.077V-0.29994ZM198.727 0.70006V16.8001H200.727V0.70006H198.727ZM198.727 16.8001C198.727 17.9855 198.681 18.8689 198.564 19.5372C198.448 20.2039 198.276 20.5692 198.091 20.7902C197.738 21.2102 197.027 21.4701 194.967 21.4701V23.4701C196.933 23.4701 198.601 23.2924 199.622 22.0762C200.124 21.4791 200.387 20.7265 200.534 19.8806C200.682 19.0362 200.727 18.0121 200.727 16.8001H198.727ZM194.967 21.4701C192.908 21.4701 192.196 21.2102 191.844 20.7902C191.658 20.5692 191.486 20.2039 191.37 19.5372C191.253 18.8689 191.207 17.9855 191.207 16.8001H189.207C189.207 18.0121 189.252 19.0362 189.4 19.8806C189.547 20.7265 189.81 21.4791 190.312 22.0762C191.333 23.2924 193.002 23.4701 194.967 23.4701V21.4701ZM191.207 16.8001V0.70006H189.207V16.8001H191.207ZM190.207 -0.29994H182.857V1.70006H190.207V-0.29994ZM181.857 0.70006V16.8001H183.857V0.70006H181.857ZM181.857 16.8001C181.857 19.2675 181.975 21.3059 182.335 22.9626C182.698 24.6329 183.323 25.9851 184.387 27.0064C185.447 28.0241 186.844 28.6175 188.567 28.963C190.281 29.3069 192.396 29.4201 194.967 29.4201V27.4201C192.428 27.4201 190.474 27.3058 188.96 27.0021C187.454 26.7001 186.462 26.226 185.772 25.5637C185.086 24.905 184.6 23.9648 184.289 22.5375C183.976 21.0967 183.857 19.2326 183.857 16.8001H181.857ZM194.967 29.4201C197.538 29.4201 199.653 29.3069 201.367 28.963C203.091 28.6175 204.487 28.0241 205.547 27.0064C206.611 25.9851 207.236 24.6329 207.599 22.9626C207.96 21.3059 208.077 19.2675 208.077 16.8001H206.077C206.077 19.2326 205.958 21.0967 205.645 22.5375C205.334 23.9648 204.848 24.905 204.162 25.5637C203.472 26.226 202.48 26.7001 200.974 27.0021C199.46 27.3058 197.506 27.4201 194.967 27.4201V29.4201ZM218.033 28.0001H217.033V29.0001H218.033V28.0001ZM225.383 28.0001V29.0001H226.383V28.0001H225.383ZM225.383 6.65006V5.65006H224.383V6.65006H225.383ZM233.818 6.65006V7.65006H234.818V6.65006H233.818ZM233.818 0.70006H234.818V-0.29994H233.818V0.70006ZM209.668 0.70006V-0.29994H208.668V0.70006H209.668ZM209.668 6.65006H208.668V7.65006H209.668V6.65006ZM218.033 6.65006H219.033V5.65006H218.033V6.65006ZM218.033 29.0001H225.383V27.0001H218.033V29.0001ZM226.383 28.0001V6.65006H224.383V28.0001H226.383ZM225.383 7.65006H233.818V5.65006H225.383V7.65006ZM234.818 6.65006V0.70006H232.818V6.65006H234.818ZM233.818 -0.29994H209.668V1.70006H233.818V-0.29994ZM208.668 0.70006V6.65006H210.668V0.70006H208.668ZM209.668 7.65006H218.033V5.65006H209.668V7.65006ZM217.033 6.65006V28.0001H219.033V6.65006H217.033Z" fill="white"/>
</svg>
