<svg width="355" height="90" viewBox="0 0 355 90" fill="none" xmlns="http://www.w3.org/2000/svg">
<path d="M85.359 1.33201H59.829L43.401 33.522H42.735L26.64 1.33201H0L31.302 57.054V87.912H54.612V57.054L85.359 1.33201ZM129.839 18.87C149.042 18.87 152.594 22.866 152.594 44.622C152.594 66.378 149.042 70.374 129.839 70.374C110.636 70.374 107.084 66.378 107.084 44.622C107.084 22.866 110.636 18.87 129.839 18.87ZM82.6647 44.622C82.6647 82.251 90.1017 89.244 129.839 89.244C169.577 89.244 177.014 82.251 177.014 44.622C177.014 6.993 169.577 0 129.839 0C90.1017 0 82.6647 6.993 82.6647 44.622ZM261.615 52.392V1.33201H238.304V52.392C238.304 67.599 235.973 70.374 223.208 70.374C210.443 70.374 208.112 67.599 208.112 52.392V1.33201H184.802V52.392C184.802 83.472 190.796 89.244 223.208 89.244C255.62 89.244 261.615 83.472 261.615 52.392ZM322.271 1.33201H270.546V87.912H293.855V59.607H316.721C324.158 59.607 326.49 62.049 326.49 71.817C326.49 79.587 326.933 84.249 328.82 87.912H354.35V86.913C350.798 82.917 349.91 75.369 349.91 66.6C349.91 56.055 344.915 52.614 335.147 50.394C346.913 47.73 351.132 42.846 351.132 32.523V29.193C351.132 5.661 346.802 1.33201 322.271 1.33201ZM293.855 41.847V20.202H316.277C326.045 20.202 327.822 22.089 327.822 30.858C327.822 39.96 326.045 41.847 316.277 41.847H293.855Z" fill="white"/>
</svg>
