<svg width="229" height="127" viewBox="0 0 229 127" fill="none" xmlns="http://www.w3.org/2000/svg">
<path d="M113.994 125.661C148.6 125.661 176.653 97.755 176.653 63.3307C176.653 28.9064 148.6 1 113.994 1C79.3884 1 51.3348 28.9064 51.3348 63.3307C51.3348 97.755 79.3884 125.661 113.994 125.661Z" stroke="black" stroke-width="2" stroke-miterlimit="10"/>
<path d="M113.994 125.661C138.519 125.661 158.4 97.755 158.4 63.3307C158.4 28.9064 138.519 1 113.994 1C89.469 1 69.5876 28.9064 69.5876 63.3307C69.5876 97.755 89.469 125.661 113.994 125.661Z" stroke="black" stroke-width="2" stroke-miterlimit="10"/>
<path d="M113.994 125.661C128.454 125.661 140.176 97.755 140.176 63.3307C140.176 28.9064 128.454 1 113.994 1C99.5341 1 87.8121 28.9064 87.8121 63.3307C87.8121 97.755 99.5341 125.661 113.994 125.661Z" stroke="black" stroke-width="2" stroke-miterlimit="10"/>
<path d="M113.994 125.661C118.373 125.661 121.923 97.755 121.923 63.3307C121.923 28.9064 118.373 1 113.994 1C109.615 1 106.066 28.9064 106.066 63.3307C106.066 97.755 109.615 125.661 113.994 125.661Z" stroke="black" stroke-width="2" stroke-miterlimit="10"/>
<path d="M113.994 125.661C148.6 125.661 176.653 97.755 176.653 63.3307C176.653 28.9064 148.6 1 113.994 1C79.3884 1 51.3348 28.9064 51.3348 63.3307C51.3348 97.755 79.3884 125.661 113.994 125.661Z" stroke="white" stroke-width="1.51786" stroke-miterlimit="10"/>
<path d="M113.994 125.661C138.519 125.661 158.4 97.755 158.4 63.3307C158.4 28.9064 138.519 1 113.994 1C89.4689 1 69.5876 28.9064 69.5876 63.3307C69.5876 97.755 89.4689 125.661 113.994 125.661Z" stroke="white" stroke-width="1.51786" stroke-miterlimit="10"/>
<path d="M113.994 125.661C128.454 125.661 140.176 97.755 140.176 63.3307C140.176 28.9064 128.454 1 113.994 1C99.5341 1 87.8122 28.9064 87.8122 63.3307C87.8122 97.755 99.5341 125.661 113.994 125.661Z" stroke="white" stroke-width="1.51786" stroke-miterlimit="10"/>
<path d="M113.994 125.661C118.373 125.661 121.923 97.755 121.923 63.3307C121.923 28.9064 118.373 1 113.994 1C109.615 1 106.066 28.9064 106.066 63.3307C106.066 97.755 109.615 125.661 113.994 125.661Z" stroke="white" stroke-width="1.51786" stroke-miterlimit="10"/>
<path d="M78.9141 11.7806H149.217" stroke="black" stroke-width="2" stroke-miterlimit="10" stroke-linecap="round"/>
<path d="M59.5199 32.406H168.439" stroke="black" stroke-width="2" stroke-miterlimit="10" stroke-linecap="round"/>
<path d="M59.5763 94.2264H168.382" stroke="black" stroke-width="2" stroke-miterlimit="10" stroke-linecap="round"/>
<path d="M78.7428 114.852H149.217" stroke="black" stroke-width="2" stroke-miterlimit="10" stroke-linecap="round"/>
<path d="M78.9141 11.7806H149.217" stroke="white" stroke-width="1.51786" stroke-miterlimit="10" stroke-linecap="round"/>
<path d="M59.5199 32.406H168.439" stroke="white" stroke-width="1.51786" stroke-miterlimit="10" stroke-linecap="round"/>
<path d="M59.5763 94.2264H168.382" stroke="white" stroke-width="1.51786" stroke-miterlimit="10" stroke-linecap="round"/>
<path d="M78.7428 114.852H149.217" stroke="white" stroke-width="1.51786" stroke-miterlimit="10" stroke-linecap="round"/>
<g clip-path="url(#clip0_6698_30)">
<path d="M18.5544 51.9258H8.49645L0.538818 75H7.34274L8.61478 70.5035H17.874L19.3235 75H26.4233L18.5544 51.9258ZM10.0643 65.4745L13.2888 56.659H13.5254L16.4836 65.4745H10.0643ZM32.9598 57.2506H38.0184C42.012 57.2506 42.6924 57.9902 42.6924 63.4629C42.6924 68.8765 42.012 69.6752 38.0184 69.6752H32.9598L32.9303 63.4629L32.9598 57.2506ZM26.7476 75H38.6692C47.5143 75 49.2005 73.4321 49.2005 63.4629C49.2005 53.4936 47.5143 51.9258 38.6692 51.9258H26.7476V75ZM56.4866 57.2506H61.5451C65.5387 57.2506 66.2191 57.9902 66.2191 63.4629C66.2191 68.8765 65.5387 69.6752 61.5451 69.6752H56.4866L56.457 63.4629L56.4866 57.2506ZM50.2743 75H62.1959C71.041 75 72.7272 73.4321 72.7272 63.4629C72.7272 53.4936 71.041 51.9258 62.1959 51.9258H50.2743V75ZM87.7047 75H93.917V56.9548H101.046V51.9258H80.6345V56.9548H87.7047V75ZM113.66 56.5998C118.778 56.5998 119.724 57.6647 119.724 63.4629C119.724 69.261 118.778 70.326 113.66 70.326C108.542 70.326 107.596 69.261 107.596 63.4629C107.596 57.6647 108.542 56.5998 113.66 56.5998ZM101.087 63.4629C101.087 73.4913 103.069 75.355 113.66 75.355C124.25 75.355 126.232 73.4913 126.232 63.4629C126.232 53.4345 124.25 51.5708 113.66 51.5708C103.069 51.5708 101.087 53.4345 101.087 63.4629ZM159.582 65.2083H153.074C153.133 69.5273 152.216 70.326 147.276 70.326C142.306 70.326 141.389 69.261 141.389 63.4629C141.389 57.6647 142.306 56.5998 147.276 56.5998C152.216 56.5998 153.133 57.3985 153.074 61.688H159.582C159.641 53.1682 157.718 51.5708 147.276 51.5708C136.833 51.5708 134.881 53.4345 134.881 63.4629C134.881 73.4913 136.833 75.355 147.276 75.355C157.718 75.355 159.641 73.7575 159.582 65.2083ZM177.619 51.9258H167.561L159.604 75H166.407L167.68 70.5035H176.939L178.388 75H185.488L177.619 51.9258ZM169.129 65.4745L172.354 56.659H172.59L175.548 65.4745H169.129ZM199.598 51.9258H185.812V75H192.025V67.4565H198.119C200.101 67.4565 200.722 68.1073 200.722 70.7106C200.722 72.7813 200.84 74.0238 201.343 75H208.147V74.7338C207.2 73.6688 206.964 71.6572 206.964 69.3202C206.964 66.5099 205.632 65.5928 203.029 65.0012C206.165 64.2912 207.289 62.9896 207.289 60.2384V59.3509C207.289 53.0795 206.135 51.9258 199.598 51.9258ZM192.025 62.7234V56.9548H198C200.603 56.9548 201.077 57.4577 201.077 59.7947C201.077 62.2205 200.603 62.7234 198 62.7234H192.025ZM215.114 75H221.326V56.9548H228.455V51.9258H208.044V56.9548H215.114V75Z" fill="black"/>
<path d="M18.5544 51.9258L19.3958 51.6389L19.1905 51.0369H18.5544V51.9258ZM8.49644 51.9258V51.0369H7.8627L7.65608 51.636L8.49644 51.9258ZM0.538802 75L-0.301554 74.7102L-0.708069 75.8889H0.538802V75ZM7.34273 75V75.8889H8.01507L8.19809 75.242L7.34273 75ZM8.61477 70.5035V69.6146H7.94243L7.75941 70.2615L8.61477 70.5035ZM17.874 70.5035L18.7201 70.2308L18.5214 69.6146H17.874V70.5035ZM19.3235 75L18.4775 75.2727L18.6761 75.8889H19.3235V75ZM26.4233 75V75.8889H27.6656L27.2646 74.7131L26.4233 75ZM10.0643 65.4745L9.22947 65.1691L8.79263 66.3634H10.0643V65.4745ZM13.2888 56.659V55.77H12.6674L12.4539 56.3536L13.2888 56.659ZM13.5254 56.659L14.3682 56.3762L14.1648 55.77H13.5254V56.659ZM16.4836 65.4745V66.3634H17.7196L17.3264 65.1917L16.4836 65.4745ZM18.5544 51.0369H8.49644V52.8147H18.5544V51.0369ZM7.65608 51.636L-0.301554 74.7102L1.37916 75.2898L9.3368 52.2156L7.65608 51.636ZM0.538802 75.8889H7.34273V74.1111H0.538802V75.8889ZM8.19809 75.242L9.47013 70.7455L7.75941 70.2615L6.48737 74.758L8.19809 75.242ZM8.61477 71.3924H17.874V69.6146H8.61477V71.3924ZM17.028 70.7762L18.4775 75.2727L20.1696 74.7273L18.7201 70.2308L17.028 70.7762ZM19.3235 75.8889H26.4233V74.1111H19.3235V75.8889ZM27.2646 74.7131L19.3958 51.6389L17.7131 52.2127L25.5819 75.2869L27.2646 74.7131ZM10.8991 65.7799L14.1236 56.9643L12.4539 56.3536L9.22947 65.1691L10.8991 65.7799ZM13.2888 57.5479H13.5254V55.77H13.2888V57.5479ZM12.6827 56.9418L15.6409 65.7573L17.3264 65.1917L14.3682 56.3762L12.6827 56.9418ZM16.4836 64.5856H10.0643V66.3634H16.4836V64.5856ZM32.9598 57.2506V56.3617H32.0751L32.0709 57.2464L32.9598 57.2506ZM32.9598 69.6752L32.0709 69.6794L32.0751 70.5641H32.9598V69.6752ZM32.9303 63.4629L32.0413 63.4587V63.4671L32.9303 63.4629ZM26.7476 75H25.8586V75.8889H26.7476V75ZM26.7476 51.9258V51.0369H25.8586V51.9258H26.7476ZM32.9598 58.1395H38.0184V56.3617H32.9598V58.1395ZM38.0184 58.1395C39.0074 58.1395 39.7065 58.1874 40.2199 58.3145C40.7052 58.4347 40.9673 58.6113 41.1488 58.8469C41.3504 59.1087 41.5283 59.5418 41.6447 60.3156C41.7604 61.0855 41.8035 62.1025 41.8035 63.4629H43.5813C43.5813 62.087 43.5393 60.9592 43.4027 60.0512C43.2668 59.1472 43.0249 58.3693 42.5573 57.7621C42.0694 57.1287 41.4126 56.7783 40.6472 56.5888C39.9098 56.4062 39.0262 56.3617 38.0184 56.3617V58.1395ZM41.8035 63.4629C41.8035 64.8082 41.7605 65.8178 41.6447 66.5848C41.5284 67.3554 41.3505 67.7926 41.1465 68.0596C40.7769 68.5436 40.0718 68.7863 38.0184 68.7863V70.5641C39.9586 70.5641 41.5905 70.4074 42.5595 69.1387C43.0248 68.5293 43.2666 67.7517 43.4027 66.8501C43.5393 65.9447 43.5813 64.8244 43.5813 63.4629H41.8035ZM38.0184 68.7863H32.9598V70.5641H38.0184V68.7863ZM33.8488 69.671L33.8192 63.4587L32.0413 63.4671L32.0709 69.6794L33.8488 69.671ZM33.8192 63.4671L33.8488 57.2548L32.0709 57.2464L32.0413 63.4587L33.8192 63.4671ZM26.7476 75.8889H38.6692V74.1111H26.7476V75.8889ZM38.6692 75.8889C40.8925 75.8889 42.735 75.7919 44.2339 75.4681C45.7473 75.1413 46.9755 74.5699 47.902 73.5761C48.822 72.5892 49.3583 71.2778 49.6719 69.6384C49.9846 68.0041 50.0894 65.9683 50.0894 63.4629H48.3116C48.3116 65.9421 48.2057 67.8408 47.9257 69.3043C47.6468 70.7627 47.2087 71.7125 46.6016 72.3638C46.0009 73.0081 45.149 73.4517 43.8586 73.7304C42.5537 74.0122 40.8685 74.1111 38.6692 74.1111V75.8889ZM50.0894 63.4629C50.0894 60.9575 49.9846 58.9217 49.6719 57.2874C49.3583 55.648 48.822 54.3366 47.902 53.3497C46.9755 52.3559 45.7473 51.7845 44.2339 51.4577C42.735 51.1339 40.8925 51.0369 38.6692 51.0369V52.8147C40.8685 52.8147 42.5537 52.9136 43.8586 53.1954C45.149 53.4741 46.0009 53.9177 46.6016 54.562C47.2087 55.2133 47.6468 56.1631 47.9257 57.6215C48.2057 59.085 48.3116 60.9837 48.3116 63.4629H50.0894ZM38.6692 51.0369H26.7476V52.8147H38.6692V51.0369ZM25.8586 51.9258V75H27.6365V51.9258H25.8586ZM56.4865 57.2506V56.3617H55.6018L55.5976 57.2464L56.4865 57.2506ZM56.4865 69.6752L55.5976 69.6794L55.6018 70.5641H56.4865V69.6752ZM56.457 63.4629L55.568 63.4587L55.5681 63.4671L56.457 63.4629ZM50.2743 75H49.3853V75.8889H50.2743V75ZM50.2743 51.9258V51.0369H49.3853V51.9258H50.2743ZM56.4865 58.1395H61.5451V56.3617H56.4865V58.1395ZM61.5451 58.1395C62.5341 58.1395 63.2332 58.1874 63.7466 58.3145C64.2319 58.4347 64.494 58.6113 64.6755 58.8469C64.8771 59.1087 65.055 59.5418 65.1714 60.3156C65.2872 61.0855 65.3302 62.1025 65.3302 63.4629H67.108C67.108 62.087 67.066 60.9592 66.9295 60.0512C66.7935 59.1472 66.5517 58.3693 66.084 57.7621C65.5961 57.1287 64.9394 56.7783 64.1739 56.5888C63.4365 56.4062 62.5529 56.3617 61.5451 56.3617V58.1395ZM65.3302 63.4629C65.3302 64.8082 65.2872 65.8178 65.1714 66.5848C65.0551 67.3554 64.8772 67.7926 64.6733 68.0596C64.3036 68.5436 63.5985 68.7863 61.5451 68.7863V70.5641C63.4853 70.5641 65.1172 70.4074 66.0862 69.1387C66.5516 68.5293 66.7933 67.7517 66.9294 66.8501C67.066 65.9447 67.108 64.8244 67.108 63.4629H65.3302ZM61.5451 68.7863H56.4865V70.5641H61.5451V68.7863ZM57.3755 69.671L57.3459 63.4587L55.5681 63.4671L55.5976 69.6794L57.3755 69.671ZM57.3459 63.4671L57.3755 57.2548L55.5976 57.2464L55.5681 63.4587L57.3459 63.4671ZM50.2743 75.8889H62.1959V74.1111H50.2743V75.8889ZM62.1959 75.8889C64.4192 75.8889 66.2617 75.7919 67.7606 75.4681C69.274 75.1413 70.5022 74.5699 71.4287 73.5761C72.3487 72.5892 72.885 71.2778 73.1986 69.6384C73.5113 68.0041 73.6161 65.9683 73.6161 63.4629H71.8383C71.8383 65.9421 71.7324 67.8408 71.4525 69.3043C71.1735 70.7627 70.7354 71.7125 70.1283 72.3638C69.5276 73.0081 68.6758 73.4517 67.3853 73.7304C66.0804 74.0122 64.3952 74.1111 62.1959 74.1111V75.8889ZM73.6161 63.4629C73.6161 60.9575 73.5113 58.9217 73.1986 57.2874C72.885 55.648 72.3487 54.3366 71.4287 53.3497C70.5022 52.3559 69.274 51.7845 67.7606 51.4577C66.2617 51.1339 64.4192 51.0369 62.1959 51.0369V52.8147C64.3952 52.8147 66.0804 52.9136 67.3853 53.1954C68.6758 53.4741 69.5276 53.9177 70.1283 54.562C70.7354 55.2133 71.1735 56.1631 71.4525 57.6215C71.7324 59.085 71.8383 60.9837 71.8383 63.4629H73.6161ZM62.1959 51.0369H50.2743V52.8147H62.1959V51.0369ZM49.3853 51.9258V75H51.1632V51.9258H49.3853ZM87.7047 75H86.8158V75.8889H87.7047V75ZM93.917 75V75.8889H94.8059V75H93.917ZM93.917 56.9548V56.0659H93.028V56.9548H93.917ZM101.046 56.9548V57.8437H101.935V56.9548H101.046ZM101.046 51.9258H101.935V51.0369H101.046V51.9258ZM80.6345 51.9258V51.0369H79.7456V51.9258H80.6345ZM80.6345 56.9548H79.7456V57.8437H80.6345V56.9548ZM87.7047 56.9548H88.5936V56.0659H87.7047V56.9548ZM87.7047 75.8889H93.917V74.1111H87.7047V75.8889ZM94.8059 75V56.9548H93.028V75H94.8059ZM93.917 57.8437H101.046V56.0659H93.917V57.8437ZM101.935 56.9548V51.9258H100.157V56.9548H101.935ZM101.046 51.0369H80.6345V52.8147H101.046V51.0369ZM79.7456 51.9258V56.9548H81.5234V51.9258H79.7456ZM80.6345 57.8437H87.7047V56.0659H80.6345V57.8437ZM86.8158 56.9548V75H88.5936V56.9548H86.8158ZM113.66 57.4887C114.923 57.4887 115.857 57.5559 116.563 57.722C117.251 57.8842 117.664 58.1273 117.945 58.4459C118.236 58.7749 118.469 59.2764 118.622 60.1056C118.776 60.9385 118.835 62.0262 118.835 63.4629H120.613C120.613 62.0006 120.554 60.7808 120.371 59.7833C120.186 58.782 119.863 57.9302 119.277 57.2682C118.683 56.5958 117.899 56.2103 116.97 55.9915C116.059 55.7768 114.956 55.7109 113.66 55.7109V57.4887ZM118.835 63.4629C118.835 64.8996 118.776 65.9873 118.622 66.8202C118.469 67.6493 118.236 68.1509 117.945 68.4799C117.664 68.7985 117.251 69.0416 116.563 69.2038C115.857 69.3699 114.923 69.4371 113.66 69.4371V71.2149C114.956 71.2149 116.059 71.149 116.97 70.9342C117.899 70.7155 118.683 70.33 119.277 69.6576C119.863 68.9956 120.186 68.1438 120.371 67.1425C120.554 66.145 120.613 64.9253 120.613 63.4629H118.835ZM113.66 69.4371C112.397 69.4371 111.462 69.3699 110.757 69.2038C110.069 69.0416 109.656 68.7985 109.374 68.4799C109.084 68.1509 108.85 67.6493 108.698 66.8202C108.544 65.9873 108.484 64.8996 108.484 63.4629H106.707C106.707 64.9253 106.765 66.145 106.949 67.1425C107.134 68.1438 107.457 68.9956 108.043 69.6576C108.637 70.33 109.421 70.7155 110.349 70.9342C111.261 71.149 112.364 71.2149 113.66 71.2149V69.4371ZM108.484 63.4629C108.484 62.0262 108.544 60.9385 108.698 60.1056C108.85 59.2764 109.084 58.7749 109.374 58.4459C109.656 58.1273 110.069 57.8842 110.757 57.722C111.462 57.5559 112.397 57.4887 113.66 57.4887V55.7109C112.364 55.7109 111.261 55.7768 110.349 55.9915C109.421 56.2103 108.637 56.5958 108.043 57.2682C107.457 57.9302 107.134 58.782 106.949 59.7833C106.765 60.7808 106.707 62.0006 106.707 63.4629H108.484ZM100.199 63.4629C100.199 65.9861 100.322 68.0617 100.695 69.7441C101.07 71.4395 101.713 72.7959 102.792 73.8156C103.866 74.8311 105.285 75.4289 107.055 75.7791C108.818 76.1279 110.998 76.2439 113.66 76.2439V74.4661C111.026 74.4661 108.987 74.3491 107.4 74.0351C105.82 73.7224 104.758 73.2276 104.013 72.5236C103.273 71.8239 102.757 70.834 102.43 69.3594C102.101 67.8719 101.976 65.9539 101.976 63.4629H100.199ZM113.66 76.2439C116.322 76.2439 118.502 76.1279 120.265 75.7791C122.035 75.4289 123.454 74.8311 124.528 73.8156C125.607 72.7959 126.249 71.4395 126.625 69.7441C126.998 68.0617 127.121 65.9861 127.121 63.4629H125.343C125.343 65.9539 125.219 67.8719 124.889 69.3594C124.563 70.834 124.047 71.8239 123.307 72.5236C122.562 73.2276 121.5 73.7224 119.92 74.0351C118.332 74.3491 116.293 74.4661 113.66 74.4661V76.2439ZM127.121 63.4629C127.121 60.9397 126.998 58.8641 126.625 57.1817C126.249 55.4863 125.607 54.1299 124.528 53.1102C123.454 52.0947 122.035 51.4969 120.265 51.1467C118.502 50.7979 116.322 50.6819 113.66 50.6819V52.4597C116.293 52.4597 118.332 52.5767 119.92 52.8907C121.5 53.2034 122.562 53.6982 123.307 54.4022C124.047 55.1019 124.563 56.0918 124.889 57.5664C125.219 59.0539 125.343 60.9719 125.343 63.4629H127.121ZM113.66 50.6819C110.998 50.6819 108.818 50.7979 107.055 51.1467C105.285 51.4969 103.866 52.0947 102.792 53.1102C101.713 54.1299 101.07 55.4863 100.695 57.1817C100.322 58.8641 100.199 60.9397 100.199 63.4629H101.976C101.976 60.9719 102.101 59.0539 102.43 57.5664C102.757 56.0918 103.273 55.1019 104.013 54.4022C104.758 53.6982 105.82 53.2034 107.4 52.8907C108.987 52.5767 111.026 52.4597 113.66 52.4597V50.6819ZM159.582 65.2083L160.471 65.2021L160.465 64.3193H159.582V65.2083ZM153.074 65.2083V64.3193H152.173L152.185 65.2204L153.074 65.2083ZM153.074 61.688L152.185 61.6757L152.173 62.5769H153.074V61.688ZM159.582 61.688V62.5769H160.465L160.471 61.6941L159.582 61.688ZM159.582 64.3193H153.074V66.0972H159.582V64.3193ZM152.185 65.2204C152.2 66.2826 152.152 67.0567 152.021 67.6332C151.894 68.192 151.702 68.5081 151.462 68.7198C151.21 68.942 150.81 69.1323 150.115 69.2592C149.416 69.3867 148.498 69.4371 147.276 69.4371V71.2149C148.524 71.2149 149.573 71.1655 150.434 71.0082C151.298 70.8504 152.05 70.5711 152.637 70.0537C153.236 69.5259 153.572 68.8325 153.755 68.0267C153.933 67.2388 153.978 66.2934 153.963 65.1961L152.185 65.2204ZM147.276 69.4371C144.748 69.4371 143.696 69.1343 143.143 68.4898C142.861 68.1611 142.634 67.6577 142.485 66.8249C142.336 65.9897 142.278 64.9001 142.278 63.4629H140.5C140.5 64.9248 140.557 66.1426 140.735 67.1378C140.913 68.1354 141.226 68.9854 141.794 69.6477C142.942 70.9852 144.834 71.2149 147.276 71.2149V69.4371ZM142.278 63.4629C142.278 62.0257 142.336 60.9361 142.485 60.1009C142.634 59.2681 142.861 58.7647 143.143 58.436C143.696 57.7915 144.748 57.4887 147.276 57.4887V55.7109C144.834 55.7109 142.942 55.9406 141.794 57.2781C141.226 57.9404 140.913 58.7903 140.735 59.788C140.557 60.7832 140.5 62.001 140.5 63.4629H142.278ZM147.276 57.4887C148.498 57.4887 149.417 57.5391 150.115 57.6662C150.811 57.7928 151.211 57.9826 151.464 58.2038C151.704 58.4141 151.895 58.7276 152.021 59.2812C152.152 59.853 152.2 60.6211 152.185 61.6757L153.963 61.7002C153.978 60.6101 153.933 59.6698 153.754 58.8854C153.571 58.0829 153.235 57.3924 152.636 56.8669C152.049 56.3522 151.297 56.0742 150.433 55.9171C149.572 55.7604 148.524 55.7109 147.276 55.7109V57.4887ZM153.074 62.5769H159.582V60.799H153.074V62.5769ZM160.471 61.6941C160.5 57.471 160.073 54.5107 157.932 52.7482C156.876 51.8787 155.488 51.3736 153.763 51.0774C152.038 50.7813 149.899 50.6819 147.276 50.6819V52.4597C149.874 52.4597 151.891 52.56 153.462 52.8296C155.033 53.0993 156.08 53.526 156.802 54.1208C158.219 55.2869 158.723 57.3852 158.693 61.6818L160.471 61.6941ZM147.276 50.6819C144.651 50.6819 142.499 50.7979 140.759 51.1472C139.011 51.498 137.608 52.0973 136.547 53.1145C135.483 54.1351 134.85 55.4911 134.481 57.1843C134.113 58.8655 133.992 60.9399 133.992 63.4629H135.77C135.77 60.9716 135.892 59.0525 136.218 57.5637C136.54 56.0871 137.049 55.0968 137.778 54.3979C138.51 53.6957 139.554 53.2023 141.109 52.8903C142.671 52.5767 144.679 52.4597 147.276 52.4597V50.6819ZM133.992 63.4629C133.992 65.9859 134.113 68.0603 134.481 69.7415C134.85 71.4347 135.483 72.7907 136.547 73.8113C137.608 74.8285 139.011 75.4278 140.759 75.7786C142.499 76.1279 144.651 76.2439 147.276 76.2439V74.4661C144.679 74.4661 142.671 74.3491 141.109 74.0355C139.554 73.7235 138.51 73.2301 137.778 72.5279C137.049 71.829 136.54 70.8387 136.218 69.3621C135.892 67.8733 135.77 65.9542 135.77 63.4629H133.992ZM147.276 76.2439C149.898 76.2439 152.038 76.1445 153.763 75.8479C155.488 75.5512 156.877 75.045 157.933 74.1732C160.073 72.4068 160.5 69.4395 160.471 65.2021L158.693 65.2144C158.723 69.5263 158.218 71.6323 156.801 72.802C156.079 73.3982 155.032 73.8257 153.462 74.0957C151.891 74.3658 149.874 74.4661 147.276 74.4661V76.2439ZM177.619 51.9258L178.461 51.6389L178.255 51.0369H177.619V51.9258ZM167.561 51.9258V51.0369H166.927L166.721 51.636L167.561 51.9258ZM159.604 75L158.763 74.7102L158.357 75.8889H159.604V75ZM166.407 75V75.8889H167.08L167.263 75.242L166.407 75ZM167.68 70.5035V69.6146H167.007L166.824 70.2615L167.68 70.5035ZM176.939 70.5035L177.785 70.2308L177.586 69.6146H176.939V70.5035ZM178.388 75L177.542 75.2727L177.741 75.8889H178.388V75ZM185.488 75V75.8889H186.73L186.329 74.7131L185.488 75ZM169.129 65.4745L168.294 65.1691L167.857 66.3634H169.129V65.4745ZM172.354 56.659V55.77H171.732L171.519 56.3536L172.354 56.659ZM172.59 56.659L173.433 56.3762L173.23 55.77H172.59V56.659ZM175.548 65.4745V66.3634H176.784L176.391 65.1917L175.548 65.4745ZM177.619 51.0369H167.561V52.8147H177.619V51.0369ZM166.721 51.636L158.763 74.7102L160.444 75.2898L168.402 52.2156L166.721 51.636ZM159.604 75.8889H166.407V74.1111H159.604V75.8889ZM167.263 75.242L168.535 70.7455L166.824 70.2615L165.552 74.758L167.263 75.242ZM167.68 71.3924H176.939V69.6146H167.68V71.3924ZM176.093 70.7762L177.542 75.2727L179.234 74.7273L177.785 70.2308L176.093 70.7762ZM178.388 75.8889H185.488V74.1111H178.388V75.8889ZM186.329 74.7131L178.461 51.6389L176.778 52.2127L184.647 75.2869L186.329 74.7131ZM169.964 65.7799L173.188 56.9643L171.519 56.3536L168.294 65.1691L169.964 65.7799ZM172.354 57.5479H172.59V55.77H172.354V57.5479ZM171.747 56.9418L174.706 65.7573L176.391 65.1917L173.433 56.3762L171.747 56.9418ZM175.548 64.5856H169.129V66.3634H175.548V64.5856ZM185.812 51.9258V51.0369H184.923V51.9258H185.812ZM185.812 75H184.923V75.8889H185.812V75ZM192.025 75V75.8889H192.914V75H192.025ZM192.025 67.4565V66.5676H191.136V67.4565H192.025ZM201.343 75L200.553 75.4071L200.801 75.8889H201.343V75ZM208.147 75V75.8889H209.036V75H208.147ZM208.147 74.7338H209.036V74.3958L208.811 74.1432L208.147 74.7338ZM203.029 65.0012L202.833 64.1342L202.832 65.868L203.029 65.0012ZM192.025 62.7234H191.136V63.6123H192.025V62.7234ZM192.025 56.9548V56.0659H191.136V56.9548H192.025ZM199.598 51.0369H185.812V52.8147H199.598V51.0369ZM184.923 51.9258V75H186.701V51.9258H184.923ZM185.812 75.8889H192.025V74.1111H185.812V75.8889ZM192.914 75V67.4565H191.136V75H192.914ZM192.025 68.3454H198.119V66.5676H192.025V68.3454ZM198.119 68.3454C199.067 68.3454 199.347 68.5147 199.478 68.6733C199.66 68.8935 199.833 69.4069 199.833 70.7106H201.611C201.611 69.411 201.473 68.2974 200.849 67.5413C200.174 66.7237 199.153 66.5676 198.119 66.5676V68.3454ZM199.833 70.7106C199.833 72.7675 199.939 74.216 200.553 75.4071L202.133 74.5929C201.741 73.8316 201.611 72.7951 201.611 70.7106H199.833ZM201.343 75.8889H208.147V74.1111H201.343V75.8889ZM209.036 75V74.7338H207.258V75H209.036ZM208.811 74.1432C208.491 73.7832 208.238 73.1955 208.073 72.337C207.911 71.4896 207.853 70.4668 207.853 69.3202H206.075C206.075 70.5106 206.134 71.6621 206.327 72.671C206.518 73.6688 206.856 74.6194 207.483 75.3243L208.811 74.1432ZM207.853 69.3202C207.853 67.7738 207.483 66.5767 206.599 65.6984C205.755 64.8583 204.56 64.4375 203.226 64.1344L202.832 65.868C204.102 66.1565 204.874 66.49 205.346 66.959C205.779 67.3897 206.075 68.0563 206.075 69.3202H207.853ZM203.226 65.8682C204.862 65.4976 206.144 64.9392 207 63.9754C207.874 62.9911 208.178 61.728 208.178 60.2384H206.4C206.4 61.5 206.142 62.2633 205.67 62.7951C205.18 63.3474 204.332 63.7948 202.833 64.1342L203.226 65.8682ZM208.178 60.2384V59.3509H206.4V60.2384H208.178ZM208.178 59.3509C208.178 57.7691 208.107 56.4448 207.876 55.3603C207.643 54.2642 207.235 53.3477 206.514 52.6485C205.796 51.9519 204.857 51.5582 203.732 51.3325C202.616 51.1084 201.246 51.0369 199.598 51.0369V52.8147C201.218 52.8147 202.444 52.8874 203.383 53.0756C204.313 53.2623 204.889 53.5489 205.276 53.9247C205.661 54.2978 205.949 54.8456 206.137 55.7297C206.327 56.6254 206.4 57.7971 206.4 59.3509H208.178ZM192.914 62.7234V56.9548H191.136V62.7234H192.914ZM192.025 57.8437H198V56.0659H192.025V57.8437ZM198 57.8437C198.634 57.8437 199.08 57.8753 199.402 57.9409C199.717 58.0051 199.845 58.0889 199.905 58.1455C199.96 58.1971 200.036 58.2984 200.095 58.5612C200.158 58.8379 200.188 59.2274 200.188 59.7947H201.966C201.966 59.1935 201.937 58.6437 201.829 58.1688C201.719 57.68 201.513 57.2175 201.124 56.8512C200.74 56.4899 200.262 56.3019 199.757 56.1989C199.257 56.0971 198.668 56.0659 198 56.0659V57.8437ZM200.188 59.7947C200.188 60.3851 200.158 60.7935 200.094 61.0855C200.033 61.3651 199.954 61.4747 199.897 61.5296C199.837 61.5875 199.711 61.6718 199.399 61.7364C199.079 61.8027 198.634 61.8344 198 61.8344V63.6123C198.668 63.6123 199.258 63.5811 199.76 63.4773C200.268 63.3719 200.749 63.1788 201.133 62.8078C201.52 62.4337 201.722 61.9628 201.83 61.4659C201.937 60.9812 201.966 60.4172 201.966 59.7947H200.188ZM198 61.8344H192.025V63.6123H198V61.8344ZM215.114 75H214.225V75.8889H215.114V75ZM221.326 75V75.8889H222.215V75H221.326ZM221.326 56.9548V56.0659H220.437V56.9548H221.326ZM228.455 56.9548V57.8437H229.344V56.9548H228.455ZM228.455 51.9258H229.344V51.0369H228.455V51.9258ZM208.044 51.9258V51.0369H207.155V51.9258H208.044ZM208.044 56.9548H207.155V57.8437H208.044V56.9548ZM215.114 56.9548H216.003V56.0659H215.114V56.9548ZM215.114 75.8889H221.326V74.1111H215.114V75.8889ZM222.215 75V56.9548H220.437V75H222.215ZM221.326 57.8437H228.455V56.0659H221.326V57.8437ZM229.344 56.9548V51.9258H227.567V56.9548H229.344ZM228.455 51.0369H208.044V52.8147H228.455V51.0369ZM207.155 51.9258V56.9548H208.933V51.9258H207.155ZM208.044 57.8437H215.114V56.0659H208.044V57.8437ZM214.225 56.9548V75H216.003V56.9548H214.225Z" fill="white"/>
</g>
<defs>
<clipPath id="clip0_6698_30">
<rect width="229" height="25" fill="white" transform="translate(0 51)"/>
</clipPath>
</defs>
</svg>
