<svg width="128" height="127" viewBox="0 0 128 127" fill="none" xmlns="http://www.w3.org/2000/svg">
<path d="M63.6593 125.661C98.2651 125.661 126.319 97.755 126.319 63.3307C126.319 28.9064 98.2651 1 63.6593 1C29.0535 1 1 28.9064 1 63.3307C1 97.755 29.0535 125.661 63.6593 125.661Z" stroke="white" stroke-width="1.51786" stroke-miterlimit="10"/>
<path d="M63.659 125.661C88.1839 125.661 108.065 97.755 108.065 63.3307C108.065 28.9064 88.1839 1 63.659 1C39.1341 1 19.2527 28.9064 19.2527 63.3307C19.2527 97.755 39.1341 125.661 63.659 125.661Z" stroke="white" stroke-width="1.51786" stroke-miterlimit="10"/>
<path d="M63.6591 125.661C78.1188 125.661 89.8408 97.755 89.8408 63.3307C89.8408 28.9064 78.1188 1 63.6591 1C49.1993 1 37.4774 28.9064 37.4774 63.3307C37.4774 97.755 49.1993 125.661 63.6591 125.661Z" stroke="white" stroke-width="1.51786" stroke-miterlimit="10"/>
<path d="M63.6594 125.661C68.0383 125.661 71.588 97.755 71.588 63.3307C71.588 28.9064 68.0383 1 63.6594 1C59.2805 1 55.7307 28.9064 55.7307 63.3307C55.7307 97.755 59.2805 125.661 63.6594 125.661Z" stroke="white" stroke-width="1.51786" stroke-miterlimit="10"/>
<path d="M28.5793 11.7806H98.882" stroke="white" stroke-width="1.51786" stroke-miterlimit="10" stroke-linecap="round"/>
<path d="M9.18506 32.406H118.104" stroke="white" stroke-width="1.51786" stroke-miterlimit="10" stroke-linecap="round"/>
<path d="M9.24146 94.2264H118.047" stroke="white" stroke-width="1.51786" stroke-miterlimit="10" stroke-linecap="round"/>
<path d="M28.408 114.852H98.8818" stroke="white" stroke-width="1.51786" stroke-miterlimit="10" stroke-linecap="round"/>
<g filter="url(#filter0_i_6701_3)">
<path d="M0.873322 51.8733V74.5425H14.8527C20.6943 74.5425 21.7987 73.5544 21.7987 68.294V67.7127C21.7987 64.3123 20.6943 63.3242 16.7708 63.0626C20.055 62.7138 20.985 61.871 20.985 58.3834V57.7731C20.985 52.8033 20.0259 51.8733 14.8527 51.8733H0.873322ZM6.97655 69.4274V65.3586H13.1379C15.2886 65.3586 15.6955 65.6783 15.6955 67.4221C15.6955 69.0496 15.2886 69.4274 13.1379 69.4274H6.97655ZM6.97655 60.6504V56.8721H12.8473C14.562 56.8721 14.8817 57.1918 14.8817 58.7903C14.8817 60.3307 14.562 60.6504 12.8473 60.6504H6.97655ZM43.946 65.2423V51.8733H37.8427V65.2423C37.8427 69.224 37.2324 69.9505 33.8901 69.9505C30.5479 69.9505 29.9376 69.224 29.9376 65.2423V51.8733H23.8343V65.2423C23.8343 73.38 25.4037 74.8913 33.8901 74.8913C42.3766 74.8913 43.946 73.38 43.946 65.2423ZM67.6167 51.8733H60.9322L56.6309 60.3016H56.4565L52.2423 51.8733H45.2672L53.463 66.463V74.5425H59.5663V66.463L67.6167 51.8733ZM83.7497 74.5425V57.6859H83.9241L87.2664 74.5425H95.4041L99.2404 57.6859H99.4148V74.5425H105.518V51.8733H94.8519L91.4515 69.3112H91.219L88.2836 51.8733H77.6465V74.5425H83.7497ZM107.845 51.8733V74.5425H126.416V69.3112H113.948V65.533H124.934V60.5922H113.948V57.1047H126.416V51.8733H107.845Z" fill="black"/>
<path d="M0.873324 51.8733V51H0V51.8733H0.873324ZM0.873324 74.5426H0V75.4159H0.873324V74.5426ZM16.7708 63.0626L16.6787 62.1942L16.7128 63.934L16.7708 63.0626ZM6.97655 69.4274H6.10328V70.3008H6.97655V69.4274ZM6.97655 65.3586V64.4853H6.10328V65.3586H6.97655ZM6.97655 60.6504H6.10328V61.5237H6.97655V60.6504ZM6.97655 56.8722V55.9989H6.10328V56.8722H6.97655ZM0 51.8733V74.5426H1.74665V51.8733H0ZM0.873324 75.4159H14.8527V73.6692H0.873324V75.4159ZM14.8527 75.4159C16.3265 75.4159 17.5571 75.3546 18.5646 75.1641C19.5768 74.9728 20.4346 74.6387 21.1002 74.0404C21.7744 73.4343 22.1633 72.6369 22.3853 71.6886C22.6036 70.7558 22.6721 69.6263 22.6721 68.294H20.9255C20.9255 69.5919 20.8559 70.5586 20.6846 71.2905C20.5169 72.0069 20.2646 72.4429 19.9325 72.7414C19.5918 73.0477 19.0782 73.2895 18.2403 73.4478C17.3978 73.607 16.2997 73.6692 14.8527 73.6692V75.4159ZM22.6721 68.294V67.7127H20.9255V68.294H22.6721ZM22.6721 67.7127C22.6721 65.9648 22.3999 64.5356 21.3472 63.5677C20.3363 62.6383 18.7945 62.3223 16.8289 62.1913L16.7128 63.934C18.6708 64.0645 19.6428 64.3734 20.165 64.8535C20.6455 65.2952 20.9255 66.0603 20.9255 67.7127H22.6721ZM16.8631 63.9311C18.5056 63.7566 19.8648 63.444 20.7485 62.4954C21.6391 61.5393 21.8583 60.1448 21.8583 58.3835H20.1117C20.1117 60.1097 19.8658 60.8804 19.4705 61.3048C19.0681 61.7367 18.3202 62.0199 16.6787 62.1942L16.8631 63.9311ZM21.8583 58.3835V57.7731H20.1117V58.3835H21.8583ZM21.8583 57.7731C21.8583 56.5154 21.7989 55.4494 21.6078 54.5693C21.414 53.6774 21.0722 52.9157 20.4647 52.3305C19.8601 51.7483 19.0789 51.4243 18.1659 51.2402C17.2608 51.0577 16.1602 51 14.8527 51V52.7467C16.1317 52.7467 17.0911 52.8053 17.8207 52.9524C18.5426 53.098 18.9711 53.3171 19.253 53.5886C19.5318 53.8571 19.7532 54.2598 19.9009 54.94C20.0512 55.632 20.1117 56.546 20.1117 57.7731H21.8583ZM14.8527 51H0.873324V52.7467H14.8527V51ZM7.8499 69.4274V65.3586H6.10328V69.4274H7.8499ZM6.97655 66.232H13.1379V64.4853H6.97655V66.232ZM13.1379 66.232C13.6643 66.232 14.0337 66.2523 14.3002 66.297C14.5666 66.3419 14.654 66.3994 14.6761 66.417C14.6871 66.426 14.8222 66.5192 14.8222 67.4221H16.5688C16.5688 66.5812 16.5005 65.6427 15.7704 65.0558C15.4219 64.7756 15.0043 64.6442 14.5896 64.5745C14.1749 64.5049 13.687 64.4853 13.1379 64.4853V66.232ZM14.8222 67.4221C14.8222 68.2491 14.6931 68.3407 14.6761 68.3545C14.6485 68.3767 14.5552 68.4361 14.2913 68.4833C14.0271 68.5305 13.6593 68.5541 13.1379 68.5541V70.3008C13.692 70.3008 14.1815 70.2772 14.5985 70.2027C15.0158 70.1282 15.4275 69.9914 15.7704 69.7157C16.4945 69.1337 16.5688 68.2226 16.5688 67.4221H14.8222ZM13.1379 68.5541H6.97655V70.3008H13.1379V68.5541ZM7.8499 60.6504V56.8722H6.10328V60.6504H7.8499ZM6.97655 57.7455H12.8473V55.9989H6.97655V57.7455ZM12.8473 57.7455C13.2603 57.7455 13.5315 57.7658 13.7151 57.803C13.8917 57.8388 13.9187 57.877 13.9059 57.8648C13.8888 57.8486 13.92 57.8602 13.9525 58.0062C13.988 58.165 14.0085 58.4071 14.0085 58.7903H15.7551C15.7551 58.3743 15.7356 57.9771 15.6574 57.6263C15.5764 57.2629 15.4206 56.8949 15.1093 56.5989C14.8022 56.3069 14.4277 56.1653 14.0621 56.0912C13.7034 56.0185 13.2917 55.9989 12.8473 55.9989V57.7455ZM14.0085 58.7903C14.0085 59.1581 13.988 59.3871 13.9539 59.5349C13.9232 59.6684 13.8952 59.6748 13.9142 59.6572C13.9268 59.6455 13.8975 59.6841 13.7179 59.7199C13.5326 59.7568 13.2598 59.777 12.8473 59.777V61.5237C13.2921 61.5237 13.7024 61.504 14.0593 61.4329C14.422 61.3605 14.794 61.2229 15.1009 60.9388C15.4142 60.6487 15.5733 60.2863 15.6561 59.9267C15.7356 59.5814 15.7551 59.1927 15.7551 58.7903H14.0085ZM12.8473 59.777H6.97655V61.5237H12.8473V59.777ZM43.946 51.8733H44.8193V51H43.946V51.8733ZM37.8427 51.8733V51H36.9694V51.8733H37.8427ZM29.9376 51.8733H30.8109V51H29.9376V51.8733ZM23.8343 51.8733V51H22.961V51.8733H23.8343ZM44.8193 65.2424V51.8733H43.0726V65.2424H44.8193ZM43.946 51H37.8427V52.7467H43.946V51ZM36.9694 51.8733V65.2424H38.7161V51.8733H36.9694ZM36.9694 65.2424C36.9694 66.2262 36.9308 66.9567 36.8348 67.5078C36.739 68.0576 36.5982 68.3526 36.4509 68.528C36.1724 68.8597 35.6023 69.0772 33.8901 69.0772V70.8239C35.5202 70.8239 36.9264 70.6782 37.7887 69.6512C38.2117 69.1472 38.4324 68.514 38.5555 67.8077C38.6784 67.1028 38.7161 66.2493 38.7161 65.2424H36.9694ZM33.8901 69.0772C32.1779 69.0772 31.6078 68.8597 31.3294 68.528C31.1821 68.3526 31.0413 68.0576 30.9455 67.5078C30.8495 66.9567 30.8109 66.2262 30.8109 65.2424H29.0642C29.0642 66.2493 29.102 67.1028 29.2248 67.8077C29.3479 68.514 29.5686 69.1472 29.9916 69.6512C30.8539 70.6782 32.2601 70.8239 33.8901 70.8239V69.0772ZM30.8109 65.2424V51.8733H29.0642V65.2424H30.8109ZM29.9376 51H23.8343V52.7467H29.9376V51ZM22.961 51.8733V65.2424H24.7077V51.8733H22.961ZM22.961 65.2424C22.961 67.292 23.0585 68.9884 23.3587 70.3687C23.6616 71.7608 24.1834 72.8926 25.075 73.7484C25.9633 74.6011 27.1315 75.0964 28.567 75.3843C29.995 75.6707 31.7546 75.7647 33.8901 75.7647V74.018C31.7825 74.018 30.1636 73.9231 28.9104 73.6717C27.6649 73.4219 26.8496 73.0308 26.2846 72.4885C25.723 71.9493 25.3222 71.1774 25.0655 69.9975C24.8063 68.8056 24.7077 67.2616 24.7077 65.2424H22.961ZM33.8901 75.7647C36.0257 75.7647 37.7854 75.6707 39.2133 75.3843C40.6488 75.0964 41.8171 74.6011 42.7053 73.7484C43.5968 72.8926 44.1188 71.7608 44.4215 70.3687C44.7218 68.9884 44.8193 67.292 44.8193 65.2424H43.0726C43.0726 67.2616 42.974 68.8056 42.7148 69.9975C42.4582 71.1774 42.0573 71.9493 41.4957 72.4885C40.9308 73.0308 40.1155 73.4219 38.8699 73.6717C37.6168 73.9231 35.9978 74.018 33.8901 74.018V75.7647ZM67.6167 51.8733L68.3814 52.2953L69.0961 51H67.6167V51.8733ZM60.9322 51.8733V51H60.3975L60.1544 51.4763L60.9322 51.8733ZM56.6309 60.3016V61.175H57.1657L57.4088 60.6986L56.6309 60.3016ZM56.4565 60.3016L55.6754 60.6922L55.9168 61.175H56.4565V60.3016ZM52.2423 51.8733L53.0235 51.4828L52.7821 51H52.2423V51.8733ZM45.2672 51.8733V51H43.775L44.5058 52.3011L45.2672 51.8733ZM53.463 66.463H54.3363V66.2345L54.2245 66.0352L53.463 66.463ZM53.463 74.5426H52.5897V75.4159H53.463V74.5426ZM59.5663 74.5426V75.4159H60.4396V74.5426H59.5663ZM59.5663 66.463L58.8017 66.0411L58.693 66.2381V66.463H59.5663ZM67.6167 51H60.9322V52.7467H67.6167V51ZM60.1544 51.4763L55.8531 59.9046L57.4088 60.6986L61.7101 52.2703L60.1544 51.4763ZM56.6309 59.4283H56.4565V61.175H56.6309V59.4283ZM57.2377 59.911L53.0235 51.4828L51.4612 52.2639L55.6754 60.6922L57.2377 59.911ZM52.2423 51H45.2672V52.7467H52.2423V51ZM44.5058 52.3011L52.7016 66.8908L54.2245 66.0352L46.0287 51.4456L44.5058 52.3011ZM52.5897 66.463V74.5426H54.3363V66.463H52.5897ZM53.463 75.4159H59.5663V73.6692H53.463V75.4159ZM60.4396 74.5426V66.463H58.693V74.5426H60.4396ZM60.3309 66.885L68.3814 52.2953L66.8521 51.4514L58.8017 66.0411L60.3309 66.885ZM83.7497 74.5426V75.4159H84.6232V74.5426H83.7497ZM83.7497 57.6859V56.8126H82.8763V57.6859H83.7497ZM83.9241 57.6859L84.7807 57.5161L84.6415 56.8126H83.9241V57.6859ZM87.2664 74.5426L86.4098 74.7124L86.549 75.4159H87.2664V74.5426ZM95.4041 74.5426V75.4159H96.1008L96.2553 74.7364L95.4041 74.5426ZM99.2404 57.6859V56.8126H98.5436L98.3891 57.4921L99.2404 57.6859ZM99.4148 57.6859H100.288V56.8126H99.4148V57.6859ZM99.4148 74.5426H98.5413V75.4159H99.4148V74.5426ZM105.518 74.5426V75.4159H106.391V74.5426H105.518ZM105.518 51.8733H106.391V51H105.518V51.8733ZM94.8519 51.8733V51H94.1322L93.9945 51.7062L94.8519 51.8733ZM91.4515 69.3112V70.1845H92.1712L92.3088 69.4783L91.4515 69.3112ZM91.219 69.3112L90.3578 69.4561L90.4802 70.1845H91.219V69.3112ZM88.2836 51.8733L89.1448 51.7284L89.0224 51H88.2836V51.8733ZM77.6465 51.8733V51H76.7731V51.8733H77.6465ZM77.6465 74.5426H76.7731V75.4159H77.6465V74.5426ZM84.6232 74.5426V57.6859H82.8763V74.5426H84.6232ZM83.7497 58.5593H83.9241V56.8126H83.7497V58.5593ZM83.0675 57.8558L86.4098 74.7124L88.123 74.3727L84.7807 57.5161L83.0675 57.8558ZM87.2664 75.4159H95.4041V73.6692H87.2664V75.4159ZM96.2553 74.7364L100.092 57.8797L98.3891 57.4921L94.5528 74.3487L96.2553 74.7364ZM99.2404 58.5593H99.4148V56.8126H99.2404V58.5593ZM98.5413 57.6859V74.5426H100.288V57.6859H98.5413ZM99.4148 75.4159H105.518V73.6692H99.4148V75.4159ZM106.391 74.5426V51.8733H104.645V74.5426H106.391ZM105.518 51H94.8519V52.7467H105.518V51ZM93.9945 51.7062L90.5941 69.1441L92.3088 69.4783L95.7092 52.0405L93.9945 51.7062ZM91.4515 68.4378H91.219V70.1845H91.4515V68.4378ZM92.0801 69.1663L89.1448 51.7284L87.4224 52.0183L90.3578 69.4561L92.0801 69.1663ZM88.2836 51H77.6465V52.7467H88.2836V51ZM76.7731 51.8733V74.5426H78.5199V51.8733H76.7731ZM77.6465 75.4159H83.7497V73.6692H77.6465V75.4159ZM107.845 51.8733V51H106.971V51.8733H107.845ZM107.845 74.5426H106.971V75.4159H107.845V74.5426ZM126.416 74.5426V75.4159H127.289V74.5426H126.416ZM126.416 69.3112H127.289V68.4378H126.416V69.3112ZM113.948 69.3112H113.074V70.1845H113.948V69.3112ZM113.948 65.533V64.6596H113.074V65.533H113.948ZM124.934 65.533V66.4063H125.807V65.533H124.934ZM124.934 60.5923H125.807V59.7189H124.934V60.5923ZM113.948 60.5923H113.074V61.4656H113.948V60.5923ZM113.948 57.1047V56.2314H113.074V57.1047H113.948ZM126.416 57.1047V57.978H127.289V57.1047H126.416ZM126.416 51.8733H127.289V51H126.416V51.8733ZM106.971 51.8733V74.5426H108.718V51.8733H106.971ZM107.845 75.4159H126.416V73.6692H107.845V75.4159ZM127.289 74.5426V69.3112H125.543V74.5426H127.289ZM126.416 68.4378H113.948V70.1845H126.416V68.4378ZM114.821 69.3112V65.533H113.074V69.3112H114.821ZM113.948 66.4063H124.934V64.6596H113.948V66.4063ZM125.807 65.533V60.5923H124.06V65.533H125.807ZM124.934 59.7189H113.948V61.4656H124.934V59.7189ZM114.821 60.5923V57.1047H113.074V60.5923H114.821ZM113.948 57.978H126.416V56.2314H113.948V57.978ZM127.289 57.1047V51.8733H125.543V57.1047H127.289ZM126.416 51H107.845V52.7467H126.416V51Z" fill="white"/>
</g>
<defs>
<filter id="filter0_i_6701_3" x="0" y="51" width="127.289" height="28.7646" filterUnits="userSpaceOnUse" color-interpolation-filters="sRGB">
<feFlood flood-opacity="0" result="BackgroundImageFix"/>
<feBlend mode="normal" in="SourceGraphic" in2="BackgroundImageFix" result="shape"/>
<feColorMatrix in="SourceAlpha" type="matrix" values="0 0 0 0 0 0 0 0 0 0 0 0 0 0 0 0 0 0 127 0" result="hardAlpha"/>
<feOffset dy="4"/>
<feGaussianBlur stdDeviation="2"/>
<feComposite in2="hardAlpha" operator="arithmetic" k2="-1" k3="1"/>
<feColorMatrix type="matrix" values="0 0 0 0 0 0 0 0 0 0 0 0 0 0 0 0 0 0 0.25 0"/>
<feBlend mode="normal" in2="shape" result="effect1_innerShadow_6701_3"/>
</filter>
</defs>
</svg>
