<svg width="1376" height="486" viewBox="0 0 1376 486" fill="none" xmlns="http://www.w3.org/2000/svg">
<path d="M807.128 46.0601L781.637 216H709.241L687.436 81.6497L687.163 79.9701H685.462H683.678H681.92L681.694 81.7132L664.303 216H591.899L559.872 46.0601H609.219L626.39 180.344L626.613 182.09H628.374H630.158H631.901L632.139 180.363L650.633 46.0601H722.966L741.461 180.363L741.698 182.09H743.442H745.226H747.015L747.214 180.312L762.179 46.0601H807.128ZM871.236 177.86V179.86H873.236H966.903V216H828.406V46.0601H966.903V82.2001H873.236H871.236V84.2001V110.96V112.96H873.236H955.53V146.87H873.236H871.236V148.87V177.86ZM1046.76 182.104H1045.25L1044.84 183.56L1035.66 216H988.688L1047.3 46.0601H1120.26L1178.21 216H1128.95L1118.46 183.49L1118.02 182.104H1116.56H1046.76ZM1055.81 145.507L1054.83 148.194H1057.69H1106.08H1108.86L1107.98 145.558L1085.68 79.1038L1085.22 77.7401H1083.78H1082H1080.6L1080.12 79.053L1055.81 145.507ZM1357.26 199.56C1358.49 206.024 1360.51 211.715 1363.78 216H1316.32C1313.2 209.27 1312.38 200.499 1312.38 185.665C1312.38 175.858 1311.25 169.05 1307.71 164.768C1304.07 160.347 1298.33 159.135 1290.76 159.135H1244.82H1242.82V161.135V216H1199.99V46.0601H1301.91C1314.2 46.0601 1323.82 46.6048 1331.37 48.1186C1338.89 49.6287 1344.19 52.0727 1347.99 55.7537C1351.78 59.4288 1354.27 64.5333 1355.8 71.7583C1357.34 79.0094 1357.89 88.2456 1357.89 100.033V106.723C1357.89 116.836 1355.82 123.911 1351.2 129.117C1346.54 134.368 1339 138.034 1327.34 140.675L1327.34 144.576C1337.07 146.79 1344.01 149.535 1348.56 154.051C1353.01 158.482 1355.44 164.91 1355.44 175.184C1355.44 184.042 1355.89 192.382 1357.26 199.56ZM1242.82 125.455V127.455H1244.82H1289.87C1294.81 127.455 1298.88 127.219 1302.18 126.535C1305.49 125.848 1308.18 124.681 1310.21 122.712C1312.26 120.736 1313.45 118.141 1314.15 114.97C1314.84 111.826 1315.06 107.986 1315.06 103.378C1315.06 98.9356 1314.84 95.2151 1314.15 92.1593C1313.45 89.0723 1312.24 86.5406 1310.19 84.6116C1308.16 82.694 1305.48 81.5524 1302.17 80.878C1298.88 80.2065 1294.81 79.9701 1289.87 79.9701H1244.82H1242.82V81.9701V125.455Z" fill="white" stroke="url(#paint0_linear_6707_42)" stroke-width="4"/>
<mask id="path-2-inside-1_6707_42" fill="white">
<path d="M610.98 44.06L613.082 43.7912L612.845 41.9409H610.98V44.06ZM557.46 44.06V41.9409H554.904L555.377 44.4525L557.46 44.06ZM590.241 218L588.158 218.392L588.484 220.119H590.241V218ZM666.061 218V220.119H667.923L668.162 218.272L666.061 218ZM683.678 81.97V79.8509H681.815L681.576 81.6978L683.678 81.97ZM685.462 81.97L687.553 81.6305L687.265 79.8509H685.462V81.97ZM707.539 218L705.447 218.339L705.736 220.119H707.539V218ZM783.359 218V220.119H785.184L785.454 218.314L783.359 218ZM809.45 44.06L811.545 44.3743L811.91 41.9409H809.45V44.06ZM760.39 44.06V41.9409H758.494L758.284 43.8252L760.39 44.06ZM745.226 180.09V182.209H747.122L747.332 180.325L745.226 180.09ZM743.442 180.09L741.342 180.379L741.594 182.209H743.442V180.09ZM724.71 44.06L726.809 43.7709L726.557 41.9409H724.71V44.06ZM648.89 44.06V41.9409H647.042L646.79 43.7709L648.89 44.06ZM630.158 180.09V182.209H632.005L632.257 180.379L630.158 180.09ZM628.374 180.09L626.272 180.359L626.508 182.209H628.374V180.09ZM610.98 41.9409H557.46V46.1791H610.98V41.9409ZM555.377 44.4525L588.158 218.392L592.323 217.608L559.542 43.6675L555.377 44.4525ZM590.241 220.119H666.061V215.881H590.241V220.119ZM668.162 218.272L685.779 82.2422L681.576 81.6978L663.959 217.728L668.162 218.272ZM683.678 84.0891H685.462V79.8509H683.678V84.0891ZM683.37 82.3095L705.447 218.339L709.63 217.661L687.553 81.6305L683.37 82.3095ZM707.539 220.119H783.359V215.881H707.539V220.119ZM785.454 218.314L811.545 44.3743L807.354 43.7456L781.263 217.686L785.454 218.314ZM809.45 41.9409H760.39V46.1791H809.45V41.9409ZM758.284 43.8252L743.12 179.855L747.332 180.325L762.496 44.2948L758.284 43.8252ZM745.226 177.971H743.442V182.209H745.226V177.971ZM745.541 179.801L726.809 43.7709L722.61 44.3491L741.342 180.379L745.541 179.801ZM724.71 41.9409H648.89V46.1791H724.71V41.9409ZM646.79 43.7709L628.058 179.801L632.257 180.379L650.989 44.3491L646.79 43.7709ZM630.158 177.971H628.374V182.209H630.158V177.971ZM630.476 179.821L613.082 43.7912L608.878 44.3288L626.272 180.359L630.476 179.821ZM826.406 44.06V41.9409H824.287V44.06H826.406ZM826.406 218H824.287V220.119H826.406V218ZM968.903 218V220.119H971.022V218H968.903ZM968.903 177.86H971.022V175.741H968.903V177.86ZM873.236 177.86H871.117V179.979H873.236V177.86ZM873.236 148.87V146.751H871.117V148.87H873.236ZM957.53 148.87V150.989H959.649V148.87H957.53ZM957.53 110.96H959.649V108.841H957.53V110.96ZM873.236 110.96H871.117V113.079H873.236V110.96ZM873.236 84.2V82.0809H871.117V84.2H873.236ZM968.903 84.2V86.3191H971.022V84.2H968.903ZM968.903 44.06H971.022V41.9409H968.903V44.06ZM824.287 44.06V218H828.525V44.06H824.287ZM826.406 220.119H968.903V215.881H826.406V220.119ZM971.022 218V177.86H966.784V218H971.022ZM968.903 175.741H873.236V179.979H968.903V175.741ZM875.355 177.86V148.87H871.117V177.86H875.355ZM873.236 150.989H957.53V146.751H873.236V150.989ZM959.649 148.87V110.96H955.411V148.87H959.649ZM957.53 108.841H873.236V113.079H957.53V108.841ZM875.355 110.96V84.2H871.117V110.96H875.355ZM873.236 86.3191H968.903V82.0809H873.236V86.3191ZM971.022 84.2V44.06H966.784V84.2H971.022ZM968.903 41.9409H826.406V46.1791H968.903V41.9409ZM1121.69 44.06L1123.7 43.376L1123.21 41.9409H1121.69V44.06ZM1045.87 44.06V41.9409H1044.36L1043.87 43.3691L1045.87 44.06ZM985.883 218L983.879 217.309L982.91 220.119H985.883V218ZM1037.17 218V220.119H1038.78L1039.21 218.577L1037.17 218ZM1046.76 184.104V181.985H1045.16L1044.72 183.527L1046.76 184.104ZM1116.56 184.104L1118.58 183.454L1118.1 181.985H1116.56V184.104ZM1127.49 218L1125.47 218.65L1125.94 220.119H1127.49V218ZM1181.01 218V220.119H1183.97L1183.01 217.316L1181.01 218ZM1057.69 146.194L1055.7 145.466L1054.66 148.313H1057.69V146.194ZM1082 79.74V77.6209H1080.51L1080.01 79.0121L1082 79.74ZM1083.78 79.74L1085.79 79.0658L1085.3 77.6209H1083.78V79.74ZM1106.08 146.194V148.313H1109.03L1108.09 145.52L1106.08 146.194ZM1121.69 41.9409H1045.87V46.1791H1121.69V41.9409ZM1043.87 43.3691L983.879 217.309L987.886 218.691L1047.87 44.7509L1043.87 43.3691ZM985.883 220.119H1037.17V215.881H985.883V220.119ZM1039.21 218.577L1048.8 184.681L1044.72 183.527L1035.13 217.423L1039.21 218.577ZM1046.76 186.223H1116.56V181.985H1046.76V186.223ZM1114.54 184.754L1125.47 218.65L1129.5 217.35L1118.58 183.454L1114.54 184.754ZM1127.49 220.119H1181.01V215.881H1127.49V220.119ZM1183.01 217.316L1123.7 43.376L1119.68 44.744L1179 218.684L1183.01 217.316ZM1059.68 146.922L1083.99 80.4679L1080.01 79.0121L1055.7 145.466L1059.68 146.922ZM1082 81.8591H1083.78V77.6209H1082V81.8591ZM1081.77 80.4142L1104.07 146.868L1108.09 145.52L1085.79 79.0658L1081.77 80.4142ZM1106.08 144.075H1057.69V148.313H1106.08V144.075ZM1197.99 44.06V41.9409H1195.87V44.06H1197.99ZM1197.99 218H1195.87V220.119H1197.99V218ZM1244.82 218V220.119H1246.94V218H1244.82ZM1244.82 161.135V159.016H1242.7V161.135H1244.82ZM1315.07 218L1313.18 218.97L1313.77 220.119H1315.07V218ZM1366.36 218V220.119H1368.47V218H1366.36ZM1366.36 215.993H1368.47V215.187L1367.94 214.585L1366.36 215.993ZM1327.78 142.626L1327.31 140.559V144.692L1327.78 142.626ZM1244.82 125.455H1242.7V127.574H1244.82V125.455ZM1244.82 81.97V79.8509H1242.7V81.97H1244.82ZM1301.91 41.9409H1197.99V46.1791H1301.91V41.9409ZM1195.87 44.06V218H1200.11V44.06H1195.87ZM1197.99 220.119H1244.82V215.881H1197.99V220.119ZM1246.94 218V161.135H1242.7V218H1246.94ZM1244.82 163.254H1290.76V159.016H1244.82V163.254ZM1290.76 163.254C1298.13 163.254 1302.15 164.496 1304.54 167.39C1307.05 170.431 1308.26 175.848 1308.26 185.665H1312.5C1312.5 175.858 1311.37 169.01 1307.81 164.692C1304.12 160.227 1298.33 159.016 1290.76 159.016V163.254ZM1308.26 185.665C1308.26 201.242 1309.13 211.099 1313.18 218.97L1316.95 217.03C1313.42 210.183 1312.5 201.308 1312.5 185.665H1308.26ZM1315.07 220.119H1366.36V215.881H1315.07V220.119ZM1368.47 218V215.993H1364.24V218H1368.47ZM1367.94 214.585C1364.74 210.982 1362.61 205.617 1361.3 198.786C1360 191.982 1359.55 183.94 1359.55 175.184H1355.32C1355.32 184.045 1355.76 192.393 1357.14 199.582C1358.51 206.745 1360.84 212.976 1364.77 217.401L1367.94 214.585ZM1359.55 175.184C1359.55 164.255 1356.96 156.598 1351.46 151.13C1346.05 145.754 1338.13 142.807 1328.25 140.56L1327.31 144.692C1337.04 146.905 1343.95 149.644 1348.47 154.136C1352.9 158.536 1355.32 164.928 1355.32 175.184H1359.55ZM1328.24 144.693C1340.23 141.98 1348.77 138.056 1354.28 131.852C1359.83 125.598 1362.01 117.364 1362.01 106.723H1357.77C1357.77 116.821 1355.71 123.863 1351.11 129.038C1346.47 134.262 1338.96 137.92 1327.31 140.559L1328.24 144.693ZM1362.01 106.723V100.033H1357.77V106.723H1362.01ZM1362.01 100.033C1362.01 88.1806 1361.47 78.591 1359.83 70.9023C1358.19 63.1861 1355.42 57.2274 1350.85 52.7968C1346.29 48.3726 1340.15 45.6804 1332.18 44.0799C1324.22 42.4831 1314.26 41.9409 1301.91 41.9409V46.1791C1314.2 46.1791 1323.81 46.724 1331.34 48.2353C1338.86 49.7428 1344.13 52.1796 1347.9 55.8391C1351.67 59.4924 1354.15 64.5721 1355.69 71.783C1357.22 79.0214 1357.77 88.2474 1357.77 100.033H1362.01ZM1246.94 125.455V81.97H1242.7V125.455H1246.94ZM1244.82 84.0891H1289.87V79.8509H1244.82V84.0891ZM1289.87 84.0891C1294.73 84.0891 1298.46 84.3265 1301.35 84.914C1304.21 85.4984 1306.08 86.3986 1307.37 87.6104C1308.64 88.8101 1309.55 90.5051 1310.13 93.0686C1310.72 95.6651 1310.94 99.0142 1310.94 103.378H1315.18C1315.18 98.9333 1314.96 95.2021 1314.26 92.1331C1313.56 89.0309 1312.34 86.475 1310.27 84.5249C1308.22 82.5868 1305.51 81.4382 1302.19 80.7612C1298.89 80.0873 1294.81 79.8509 1289.87 79.8509V84.0891ZM1310.94 103.378C1310.94 107.911 1310.71 111.391 1310.12 114.088C1309.54 116.756 1308.63 118.514 1307.35 119.75C1306.06 120.994 1304.2 121.909 1301.34 122.502C1298.46 123.098 1294.73 123.336 1289.87 123.336V127.574C1294.81 127.574 1298.89 127.338 1302.2 126.652C1305.53 125.962 1308.24 124.787 1310.29 122.797C1312.36 120.8 1313.57 118.181 1314.26 114.995C1314.96 111.839 1315.18 107.988 1315.18 103.378H1310.94ZM1289.87 123.336H1244.82V127.574H1289.87V123.336Z"/>
</mask>
<path d="M610.98 44.06L613.082 43.7912L612.845 41.9409H610.98V44.06ZM557.46 44.06V41.9409H554.904L555.377 44.4525L557.46 44.06ZM590.241 218L588.158 218.392L588.484 220.119H590.241V218ZM666.061 218V220.119H667.923L668.162 218.272L666.061 218ZM683.678 81.97V79.8509H681.815L681.576 81.6978L683.678 81.97ZM685.462 81.97L687.553 81.6305L687.265 79.8509H685.462V81.97ZM707.539 218L705.447 218.339L705.736 220.119H707.539V218ZM783.359 218V220.119H785.184L785.454 218.314L783.359 218ZM809.45 44.06L811.545 44.3743L811.91 41.9409H809.45V44.06ZM760.39 44.06V41.9409H758.494L758.284 43.8252L760.39 44.06ZM745.226 180.09V182.209H747.122L747.332 180.325L745.226 180.09ZM743.442 180.09L741.342 180.379L741.594 182.209H743.442V180.09ZM724.71 44.06L726.809 43.7709L726.557 41.9409H724.71V44.06ZM648.89 44.06V41.9409H647.042L646.79 43.7709L648.89 44.06ZM630.158 180.09V182.209H632.005L632.257 180.379L630.158 180.09ZM628.374 180.09L626.272 180.359L626.508 182.209H628.374V180.09ZM610.98 41.9409H557.46V46.1791H610.98V41.9409ZM555.377 44.4525L588.158 218.392L592.323 217.608L559.542 43.6675L555.377 44.4525ZM590.241 220.119H666.061V215.881H590.241V220.119ZM668.162 218.272L685.779 82.2422L681.576 81.6978L663.959 217.728L668.162 218.272ZM683.678 84.0891H685.462V79.8509H683.678V84.0891ZM683.37 82.3095L705.447 218.339L709.63 217.661L687.553 81.6305L683.37 82.3095ZM707.539 220.119H783.359V215.881H707.539V220.119ZM785.454 218.314L811.545 44.3743L807.354 43.7456L781.263 217.686L785.454 218.314ZM809.45 41.9409H760.39V46.1791H809.45V41.9409ZM758.284 43.8252L743.12 179.855L747.332 180.325L762.496 44.2948L758.284 43.8252ZM745.226 177.971H743.442V182.209H745.226V177.971ZM745.541 179.801L726.809 43.7709L722.61 44.3491L741.342 180.379L745.541 179.801ZM724.71 41.9409H648.89V46.1791H724.71V41.9409ZM646.79 43.7709L628.058 179.801L632.257 180.379L650.989 44.3491L646.79 43.7709ZM630.158 177.971H628.374V182.209H630.158V177.971ZM630.476 179.821L613.082 43.7912L608.878 44.3288L626.272 180.359L630.476 179.821ZM826.406 44.06V41.9409H824.287V44.06H826.406ZM826.406 218H824.287V220.119H826.406V218ZM968.903 218V220.119H971.022V218H968.903ZM968.903 177.86H971.022V175.741H968.903V177.86ZM873.236 177.86H871.117V179.979H873.236V177.86ZM873.236 148.87V146.751H871.117V148.87H873.236ZM957.53 148.87V150.989H959.649V148.87H957.53ZM957.53 110.96H959.649V108.841H957.53V110.96ZM873.236 110.96H871.117V113.079H873.236V110.96ZM873.236 84.2V82.0809H871.117V84.2H873.236ZM968.903 84.2V86.3191H971.022V84.2H968.903ZM968.903 44.06H971.022V41.9409H968.903V44.06ZM824.287 44.06V218H828.525V44.06H824.287ZM826.406 220.119H968.903V215.881H826.406V220.119ZM971.022 218V177.86H966.784V218H971.022ZM968.903 175.741H873.236V179.979H968.903V175.741ZM875.355 177.86V148.87H871.117V177.86H875.355ZM873.236 150.989H957.53V146.751H873.236V150.989ZM959.649 148.87V110.96H955.411V148.87H959.649ZM957.53 108.841H873.236V113.079H957.53V108.841ZM875.355 110.96V84.2H871.117V110.96H875.355ZM873.236 86.3191H968.903V82.0809H873.236V86.3191ZM971.022 84.2V44.06H966.784V84.2H971.022ZM968.903 41.9409H826.406V46.1791H968.903V41.9409ZM1121.69 44.06L1123.7 43.376L1123.21 41.9409H1121.69V44.06ZM1045.87 44.06V41.9409H1044.36L1043.87 43.3691L1045.87 44.06ZM985.883 218L983.879 217.309L982.91 220.119H985.883V218ZM1037.17 218V220.119H1038.78L1039.21 218.577L1037.17 218ZM1046.76 184.104V181.985H1045.16L1044.72 183.527L1046.76 184.104ZM1116.56 184.104L1118.58 183.454L1118.1 181.985H1116.56V184.104ZM1127.49 218L1125.47 218.65L1125.94 220.119H1127.49V218ZM1181.01 218V220.119H1183.97L1183.01 217.316L1181.01 218ZM1057.69 146.194L1055.7 145.466L1054.66 148.313H1057.69V146.194ZM1082 79.74V77.6209H1080.51L1080.01 79.0121L1082 79.74ZM1083.78 79.74L1085.79 79.0658L1085.3 77.6209H1083.78V79.74ZM1106.08 146.194V148.313H1109.03L1108.09 145.52L1106.08 146.194ZM1121.69 41.9409H1045.87V46.1791H1121.69V41.9409ZM1043.87 43.3691L983.879 217.309L987.886 218.691L1047.87 44.7509L1043.87 43.3691ZM985.883 220.119H1037.17V215.881H985.883V220.119ZM1039.21 218.577L1048.8 184.681L1044.72 183.527L1035.13 217.423L1039.21 218.577ZM1046.76 186.223H1116.56V181.985H1046.76V186.223ZM1114.54 184.754L1125.47 218.65L1129.5 217.35L1118.58 183.454L1114.54 184.754ZM1127.49 220.119H1181.01V215.881H1127.49V220.119ZM1183.01 217.316L1123.7 43.376L1119.68 44.744L1179 218.684L1183.01 217.316ZM1059.68 146.922L1083.99 80.4679L1080.01 79.0121L1055.7 145.466L1059.68 146.922ZM1082 81.8591H1083.78V77.6209H1082V81.8591ZM1081.77 80.4142L1104.07 146.868L1108.09 145.52L1085.79 79.0658L1081.77 80.4142ZM1106.08 144.075H1057.69V148.313H1106.08V144.075ZM1197.99 44.06V41.9409H1195.87V44.06H1197.99ZM1197.99 218H1195.87V220.119H1197.99V218ZM1244.82 218V220.119H1246.94V218H1244.82ZM1244.82 161.135V159.016H1242.7V161.135H1244.82ZM1315.07 218L1313.18 218.97L1313.77 220.119H1315.07V218ZM1366.36 218V220.119H1368.47V218H1366.36ZM1366.36 215.993H1368.47V215.187L1367.94 214.585L1366.36 215.993ZM1327.78 142.626L1327.31 140.559V144.692L1327.78 142.626ZM1244.82 125.455H1242.7V127.574H1244.82V125.455ZM1244.82 81.97V79.8509H1242.7V81.97H1244.82ZM1301.91 41.9409H1197.99V46.1791H1301.91V41.9409ZM1195.87 44.06V218H1200.11V44.06H1195.87ZM1197.99 220.119H1244.82V215.881H1197.99V220.119ZM1246.94 218V161.135H1242.7V218H1246.94ZM1244.82 163.254H1290.76V159.016H1244.82V163.254ZM1290.76 163.254C1298.13 163.254 1302.15 164.496 1304.54 167.39C1307.05 170.431 1308.26 175.848 1308.26 185.665H1312.5C1312.5 175.858 1311.37 169.01 1307.81 164.692C1304.12 160.227 1298.33 159.016 1290.76 159.016V163.254ZM1308.26 185.665C1308.26 201.242 1309.13 211.099 1313.18 218.97L1316.95 217.03C1313.42 210.183 1312.5 201.308 1312.5 185.665H1308.26ZM1315.07 220.119H1366.36V215.881H1315.07V220.119ZM1368.47 218V215.993H1364.24V218H1368.47ZM1367.94 214.585C1364.74 210.982 1362.61 205.617 1361.3 198.786C1360 191.982 1359.55 183.94 1359.55 175.184H1355.32C1355.32 184.045 1355.76 192.393 1357.14 199.582C1358.51 206.745 1360.84 212.976 1364.77 217.401L1367.94 214.585ZM1359.55 175.184C1359.55 164.255 1356.96 156.598 1351.46 151.13C1346.05 145.754 1338.13 142.807 1328.25 140.56L1327.31 144.692C1337.04 146.905 1343.95 149.644 1348.47 154.136C1352.9 158.536 1355.32 164.928 1355.32 175.184H1359.55ZM1328.24 144.693C1340.23 141.98 1348.77 138.056 1354.28 131.852C1359.83 125.598 1362.01 117.364 1362.01 106.723H1357.77C1357.77 116.821 1355.71 123.863 1351.11 129.038C1346.47 134.262 1338.96 137.92 1327.31 140.559L1328.24 144.693ZM1362.01 106.723V100.033H1357.77V106.723H1362.01ZM1362.01 100.033C1362.01 88.1806 1361.47 78.591 1359.83 70.9023C1358.19 63.1861 1355.42 57.2274 1350.85 52.7968C1346.29 48.3726 1340.15 45.6804 1332.18 44.0799C1324.22 42.4831 1314.26 41.9409 1301.91 41.9409V46.1791C1314.2 46.1791 1323.81 46.724 1331.34 48.2353C1338.86 49.7428 1344.13 52.1796 1347.9 55.8391C1351.67 59.4924 1354.15 64.5721 1355.69 71.783C1357.22 79.0214 1357.77 88.2474 1357.77 100.033H1362.01ZM1246.94 125.455V81.97H1242.7V125.455H1246.94ZM1244.82 84.0891H1289.87V79.8509H1244.82V84.0891ZM1289.87 84.0891C1294.73 84.0891 1298.46 84.3265 1301.35 84.914C1304.21 85.4984 1306.08 86.3986 1307.37 87.6104C1308.64 88.8101 1309.55 90.5051 1310.13 93.0686C1310.72 95.6651 1310.94 99.0142 1310.94 103.378H1315.18C1315.18 98.9333 1314.96 95.2021 1314.26 92.1331C1313.56 89.0309 1312.34 86.475 1310.27 84.5249C1308.22 82.5868 1305.51 81.4382 1302.19 80.7612C1298.89 80.0873 1294.81 79.8509 1289.87 79.8509V84.0891ZM1310.94 103.378C1310.94 107.911 1310.71 111.391 1310.12 114.088C1309.54 116.756 1308.63 118.514 1307.35 119.75C1306.06 120.994 1304.2 121.909 1301.34 122.502C1298.46 123.098 1294.73 123.336 1289.87 123.336V127.574C1294.81 127.574 1298.89 127.338 1302.2 126.652C1305.53 125.962 1308.24 124.787 1310.29 122.797C1312.36 120.8 1313.57 118.181 1314.26 114.995C1314.96 111.839 1315.18 107.988 1315.18 103.378H1310.94ZM1289.87 123.336H1244.82V127.574H1289.87V123.336Z" fill="white" stroke="url(#paint1_linear_6707_42)" stroke-width="8" mask="url(#path-2-inside-1_6707_42)"/>
<mask id="path-3-inside-2_6707_42" fill="white">
<path d="M9.41403 274.06V271.941H7.29492V274.06H9.41403ZM9.41403 448H7.29492V450.119H9.41403V448ZM151.911 448V450.119H154.03V448H151.911ZM151.911 407.86H154.03V405.741H151.911V407.86ZM56.244 407.86H54.1249V409.979H56.244V407.86ZM56.244 378.87V376.751H54.1249V378.87H56.244ZM140.538 378.87V380.989H142.657V378.87H140.538ZM140.538 340.96H142.657V338.841H140.538V340.96ZM56.244 340.96H54.1249V343.079H56.244V340.96ZM56.244 314.2V312.081H54.1249V314.2H56.244ZM151.911 314.2V316.319H154.03V314.2H151.911ZM151.911 274.06H154.03V271.941H151.911V274.06ZM7.29492 274.06V448H11.5332V274.06H7.29492ZM9.41403 450.119H151.911V445.881H9.41403V450.119ZM154.03 448V407.86H149.792V448H154.03ZM151.911 405.741H56.244V409.979H151.911V405.741ZM58.3632 407.86V378.87H54.1249V407.86H58.3632ZM56.244 380.989H140.538V376.751H56.244V380.989ZM142.657 378.87V340.96H138.419V378.87H142.657ZM140.538 338.841H56.244V343.079H140.538V338.841ZM58.3632 340.96V314.2H54.1249V340.96H58.3632ZM56.244 316.319H151.911V312.081H56.244V316.319ZM154.03 314.2V274.06H149.792V314.2H154.03ZM151.911 271.941H9.41403V276.179H151.911V271.941ZM337.506 274.06L339.545 274.638L340.309 271.941H337.506V274.06ZM286.216 274.06V271.941H284.575L284.165 273.53L286.216 274.06ZM251.651 407.86V409.979H253.293L253.703 408.39L251.651 407.86ZM249.867 407.86L247.819 408.403L248.237 409.979H249.867V407.86ZM214.41 274.06L216.459 273.517L216.041 271.941H214.41V274.06ZM160.89 274.06V271.941H158.053L158.859 274.662L160.89 274.06ZM212.403 448L210.372 448.602L210.821 450.119H212.403V448ZM288.223 448V450.119H289.826L290.262 448.578L288.223 448ZM337.506 271.941H286.216V276.179H337.506V271.941ZM284.165 273.53L249.6 407.33L253.703 408.39L288.268 274.59L284.165 273.53ZM251.651 405.741H249.867V409.979H251.651V405.741ZM251.916 407.317L216.459 273.517L212.362 274.603L247.819 408.403L251.916 407.317ZM214.41 271.941H160.89V276.179H214.41V271.941ZM158.859 274.662L210.372 448.602L214.435 447.398L162.922 273.458L158.859 274.662ZM212.403 450.119H288.223V445.881H212.403V450.119ZM290.262 448.578L339.545 274.638L335.468 273.482L286.185 447.422L290.262 448.578ZM346.487 274.06V271.941H344.368V274.06H346.487ZM346.487 448H344.368V450.119H346.487V448ZM488.984 448V450.119H491.104V448H488.984ZM488.984 407.86H491.104V405.741H488.984V407.86ZM393.317 407.86H391.198V409.979H393.317V407.86ZM393.317 378.87V376.751H391.198V378.87H393.317ZM477.611 378.87V380.989H479.731V378.87H477.611ZM477.611 340.96H479.731V338.841H477.611V340.96ZM393.317 340.96H391.198V343.079H393.317V340.96ZM393.317 314.2V312.081H391.198V314.2H393.317ZM488.984 314.2V316.319H491.104V314.2H488.984ZM488.984 274.06H491.104V271.941H488.984V274.06ZM344.368 274.06V448H348.606V274.06H344.368ZM346.487 450.119H488.984V445.881H346.487V450.119ZM491.104 448V407.86H486.865V448H491.104ZM488.984 405.741H393.317V409.979H488.984V405.741ZM395.436 407.86V378.87H391.198V407.86H395.436ZM393.317 380.989H477.611V376.751H393.317V380.989ZM479.731 378.87V340.96H475.492V378.87H479.731ZM477.611 338.841H393.317V343.079H477.611V338.841ZM395.436 340.96V314.2H391.198V340.96H395.436ZM393.317 316.319H488.984V312.081H393.317V316.319ZM491.104 314.2V274.06H486.865V314.2H491.104ZM488.984 271.941H346.487V276.179H488.984V271.941ZM505.769 274.06V271.941H503.65V274.06H505.769ZM505.769 448H503.65V450.119H505.769V448ZM552.599 448V450.119H554.718V448H552.599ZM552.599 391.135V389.016H550.48V391.135H552.599ZM622.844 448L620.96 448.97L621.552 450.119H622.844V448ZM674.134 448V450.119H676.253V448H674.134ZM674.134 445.993H676.253V445.187L675.717 444.585L674.134 445.993ZM635.555 372.626L635.087 370.559L635.085 374.692L635.555 372.626ZM552.599 355.455H550.48V357.574H552.599V355.455ZM552.599 311.97V309.851H550.48V311.97H552.599ZM609.687 271.941H505.769V276.179H609.687V271.941ZM503.65 274.06V448H507.888V274.06H503.65ZM505.769 450.119H552.599V445.881H505.769V450.119ZM554.718 448V391.135H550.48V448H554.718ZM552.599 393.254H598.537V389.016H552.599V393.254ZM598.537 393.254C605.905 393.254 609.928 394.496 612.317 397.39C614.828 400.431 616.042 405.848 616.042 415.665H620.28C620.28 405.858 619.151 399.01 615.586 394.692C611.899 390.227 606.11 389.016 598.537 389.016V393.254ZM616.042 415.665C616.042 431.242 616.905 441.099 620.96 448.97L624.727 447.03C621.2 440.183 620.28 431.308 620.28 415.665H616.042ZM622.844 450.119H674.134V445.881H622.844V450.119ZM676.253 448V445.993H672.015V448H676.253ZM675.717 444.585C672.515 440.982 670.385 435.617 669.079 428.786C667.778 421.982 667.333 413.94 667.333 405.184H663.095C663.095 414.045 663.541 422.393 664.916 429.582C666.286 436.745 668.616 442.976 672.55 447.401L675.717 444.585ZM667.333 405.184C667.333 394.255 664.736 386.598 659.237 381.13C653.831 375.754 645.913 372.807 636.024 370.56L635.085 374.692C644.821 376.905 651.732 379.644 656.249 384.136C660.674 388.536 663.095 394.928 663.095 405.184H667.333ZM636.023 374.693C648.005 371.98 656.551 368.056 662.06 361.852C667.612 355.598 669.786 347.364 669.786 336.723H665.548C665.548 346.821 663.485 353.863 658.89 359.038C654.252 364.262 646.742 367.92 635.087 370.559L636.023 374.693ZM669.786 336.723V330.033H665.548V336.723H669.786ZM669.786 330.033C669.786 318.181 669.244 308.591 667.611 300.902C665.971 293.186 663.201 287.227 658.633 282.797C654.072 278.373 647.932 275.68 639.954 274.08C631.996 272.483 622.04 271.941 609.687 271.941V276.179C621.975 276.179 631.587 276.724 639.12 278.235C646.634 279.743 651.909 282.18 655.682 285.839C659.449 289.492 661.933 294.572 663.465 301.783C665.002 309.021 665.548 318.247 665.548 330.033H669.786ZM554.718 355.455V311.97H550.48V355.455H554.718ZM552.599 314.089H597.645V309.851H552.599V314.089ZM597.645 314.089C602.509 314.089 606.242 314.327 609.124 314.914C611.991 315.498 613.86 316.399 615.147 317.61C616.421 318.81 617.326 320.505 617.906 323.069C618.493 325.665 618.718 329.014 618.718 333.378H622.956C622.956 328.933 622.734 325.202 622.039 322.133C621.337 319.031 620.123 316.475 618.052 314.525C615.994 312.587 613.292 311.438 609.97 310.761C606.665 310.087 602.592 309.851 597.645 309.851V314.089ZM618.718 333.378C618.718 337.911 618.493 341.391 617.902 344.088C617.318 346.756 616.406 348.514 615.127 349.75C613.84 350.994 611.977 351.909 609.117 352.502C606.239 353.098 602.51 353.336 597.645 353.336V357.574C602.591 357.574 606.667 357.338 609.977 356.652C613.306 355.962 616.014 354.787 618.072 352.797C620.139 350.8 621.345 348.181 622.043 344.995C622.734 341.839 622.956 337.988 622.956 333.378H618.718ZM597.645 353.336H552.599V357.574H597.645V353.336ZM851.38 274.06L853.236 275.084L854.97 271.941H851.38V274.06ZM800.09 274.06V271.941H798.793L798.203 273.097L800.09 274.06ZM767.086 338.73V340.849H768.384L768.974 339.693L767.086 338.73ZM765.748 338.73L763.853 339.678L764.439 340.849H765.748V338.73ZM733.413 274.06L735.309 273.112L734.723 271.941H733.413V274.06ZM679.893 274.06V271.941H676.272L678.046 275.098L679.893 274.06ZM742.779 386.006H744.898V385.452L744.627 384.968L742.779 386.006ZM742.779 448H740.66V450.119H742.779V448ZM789.609 448V450.119H791.728V448H789.609ZM789.609 386.006L787.754 384.982L787.49 385.46V386.006H789.609ZM851.38 271.941H800.09V276.179H851.38V271.941ZM798.203 273.097L765.199 337.767L768.974 339.693L801.978 275.023L798.203 273.097ZM767.086 336.611H765.748V340.849H767.086V336.611ZM767.644 337.782L735.309 273.112L731.518 275.008L763.853 339.678L767.644 337.782ZM733.413 271.941H679.893V276.179H733.413V271.941ZM678.046 275.098L740.932 387.044L744.627 384.968L681.741 273.022L678.046 275.098ZM740.66 386.006V448H744.898V386.006H740.66ZM742.779 450.119H789.609V445.881H742.779V450.119ZM791.728 448V386.006H787.49V448H791.728ZM791.465 387.03L853.236 275.084L849.525 273.036L787.754 384.982L791.465 387.03ZM907.312 314.2V312.081H905.202L905.192 314.19L907.312 314.2ZM907.312 407.86L905.192 407.87L905.202 409.979H907.312V407.86ZM907.089 361.03L904.969 361.02V361.03V361.04L907.089 361.03ZM860.482 448H858.362V450.119H860.482V448ZM860.482 274.06V271.941H858.362V274.06H860.482ZM907.312 316.319H945.445V312.081H907.312V316.319ZM945.445 316.319C952.948 316.319 958.694 316.672 963.141 317.773C967.522 318.857 970.515 320.636 972.672 323.437C974.878 326.301 976.383 330.455 977.311 336.624C978.238 342.783 978.559 350.735 978.559 361.03H982.798C982.798 350.698 982.478 342.482 981.502 335.993C980.528 329.514 978.87 324.538 976.03 320.851C973.142 317.102 969.208 314.909 964.16 313.659C959.178 312.425 952.993 312.081 945.445 312.081V316.319ZM978.559 361.03C978.559 371.213 978.238 379.109 977.311 385.247C976.384 391.394 974.878 395.567 972.667 398.462C968.336 404.133 960.632 405.741 945.445 405.741V409.979C960.362 409.979 970.275 408.576 976.035 401.035C978.869 397.323 980.527 392.339 981.502 385.88C982.478 379.412 982.798 371.252 982.798 361.03H978.559ZM945.445 405.741H907.312V409.979H945.445V405.741ZM909.431 407.85L909.208 361.02L904.969 361.04L905.192 407.87L909.431 407.85ZM909.208 361.04L909.431 314.21L905.192 314.19L904.969 361.02L909.208 361.04ZM860.482 450.119H950.351V445.881H860.482V450.119ZM950.351 450.119C967.048 450.119 980.532 449.383 991.332 447.05C1002.17 444.711 1010.45 440.733 1016.6 434.142C1022.73 427.567 1026.52 418.614 1028.79 406.722C1031.06 394.842 1031.86 379.849 1031.86 361.03H1027.62C1027.62 379.787 1026.82 394.453 1024.63 405.925C1022.44 417.385 1018.88 425.477 1013.5 431.252C1008.13 437.009 1000.74 440.683 990.437 442.908C980.1 445.14 966.991 445.881 950.351 445.881V450.119ZM1031.86 361.03C1031.86 342.211 1031.06 327.218 1028.79 315.338C1026.52 303.446 1022.73 294.493 1016.6 287.918C1010.45 281.327 1002.17 277.349 991.332 275.01C980.532 272.677 967.048 271.941 950.351 271.941V276.179C966.991 276.179 980.1 276.92 990.437 279.152C1000.74 281.377 1008.13 285.051 1013.5 290.808C1018.88 296.583 1022.44 304.675 1024.63 316.135C1026.82 327.607 1027.62 342.273 1027.62 361.03H1031.86ZM950.351 271.941H860.482V276.179H950.351V271.941ZM858.362 274.06V448H862.601V274.06H858.362ZM1172.37 274.06L1174.38 273.376L1173.89 271.941H1172.37V274.06ZM1096.55 274.06V271.941H1095.04L1094.55 273.369L1096.55 274.06ZM1036.57 448L1034.56 447.309L1033.59 450.119H1036.57V448ZM1087.86 448V450.119H1089.46L1089.9 448.577L1087.86 448ZM1097.45 414.104V411.985H1095.84L1095.41 413.527L1097.45 414.104ZM1167.24 414.104L1169.26 413.454L1168.79 411.985H1167.24V414.104ZM1178.17 448L1176.15 448.65L1176.63 450.119H1178.17V448ZM1231.69 448V450.119H1234.65L1233.7 447.316L1231.69 448ZM1108.37 376.194L1106.38 375.466L1105.34 378.313H1108.37V376.194ZM1132.68 309.74V307.621H1131.2L1130.69 309.012L1132.68 309.74ZM1134.46 309.74L1136.47 309.066L1135.99 307.621H1134.46V309.74ZM1156.76 376.194V378.313H1159.71L1158.77 375.52L1156.76 376.194ZM1172.37 271.941H1096.55V276.179H1172.37V271.941ZM1094.55 273.369L1034.56 447.309L1038.57 448.691L1098.56 274.751L1094.55 273.369ZM1036.57 450.119H1087.86V445.881H1036.57V450.119ZM1089.9 448.577L1099.48 414.681L1095.41 413.527L1085.82 447.423L1089.9 448.577ZM1097.45 416.223H1167.24V411.985H1097.45V416.223ZM1165.23 414.754L1176.15 448.65L1180.19 447.35L1169.26 413.454L1165.23 414.754ZM1178.17 450.119H1231.69V445.881H1178.17V450.119ZM1233.7 447.316L1174.38 273.376L1170.37 274.744L1229.69 448.684L1233.7 447.316ZM1110.36 376.922L1134.67 310.468L1130.69 309.012L1106.38 375.466L1110.36 376.922ZM1132.68 311.859H1134.46V307.621H1132.68V311.859ZM1132.45 310.414L1154.75 376.868L1158.77 375.52L1136.47 309.066L1132.45 310.414ZM1156.76 374.075H1108.37V378.313H1156.76V374.075ZM1370.82 274.06L1372.67 275.084L1374.41 271.941H1370.82V274.06ZM1319.53 274.06V271.941H1318.23L1317.64 273.097L1319.53 274.06ZM1286.52 338.73V340.849H1287.82L1288.41 339.693L1286.52 338.73ZM1285.19 338.73L1283.29 339.678L1283.88 340.849H1285.19V338.73ZM1252.85 274.06L1254.75 273.112L1254.16 271.941H1252.85V274.06ZM1199.33 274.06V271.941H1195.71L1197.48 275.098L1199.33 274.06ZM1262.22 386.006H1264.34V385.452L1264.07 384.968L1262.22 386.006ZM1262.22 448H1260.1V450.119H1262.22V448ZM1309.05 448V450.119H1311.17V448H1309.05ZM1309.05 386.006L1307.19 384.982L1306.93 385.46V386.006H1309.05ZM1370.82 271.941H1319.53V276.179H1370.82V271.941ZM1317.64 273.097L1284.64 337.767L1288.41 339.693L1321.42 275.023L1317.64 273.097ZM1286.52 336.611H1285.19V340.849H1286.52V336.611ZM1287.08 337.782L1254.75 273.112L1250.96 275.008L1283.29 339.678L1287.08 337.782ZM1252.85 271.941H1199.33V276.179H1252.85V271.941ZM1197.48 275.098L1260.37 387.044L1264.07 384.968L1201.18 273.022L1197.48 275.098ZM1260.1 386.006V448H1264.34V386.006H1260.1ZM1262.22 450.119H1309.05V445.881H1262.22V450.119ZM1311.17 448V386.006H1306.93V448H1311.17ZM1310.9 387.03L1372.67 275.084L1368.96 273.036L1307.19 384.982L1310.9 387.03Z"/>
</mask>
<path d="M9.41403 274.06V271.941H7.29492V274.06H9.41403ZM9.41403 448H7.29492V450.119H9.41403V448ZM151.911 448V450.119H154.03V448H151.911ZM151.911 407.86H154.03V405.741H151.911V407.86ZM56.244 407.86H54.1249V409.979H56.244V407.86ZM56.244 378.87V376.751H54.1249V378.87H56.244ZM140.538 378.87V380.989H142.657V378.87H140.538ZM140.538 340.96H142.657V338.841H140.538V340.96ZM56.244 340.96H54.1249V343.079H56.244V340.96ZM56.244 314.2V312.081H54.1249V314.2H56.244ZM151.911 314.2V316.319H154.03V314.2H151.911ZM151.911 274.06H154.03V271.941H151.911V274.06ZM7.29492 274.06V448H11.5332V274.06H7.29492ZM9.41403 450.119H151.911V445.881H9.41403V450.119ZM154.03 448V407.86H149.792V448H154.03ZM151.911 405.741H56.244V409.979H151.911V405.741ZM58.3632 407.86V378.87H54.1249V407.86H58.3632ZM56.244 380.989H140.538V376.751H56.244V380.989ZM142.657 378.87V340.96H138.419V378.87H142.657ZM140.538 338.841H56.244V343.079H140.538V338.841ZM58.3632 340.96V314.2H54.1249V340.96H58.3632ZM56.244 316.319H151.911V312.081H56.244V316.319ZM154.03 314.2V274.06H149.792V314.2H154.03ZM151.911 271.941H9.41403V276.179H151.911V271.941ZM337.506 274.06L339.545 274.638L340.309 271.941H337.506V274.06ZM286.216 274.06V271.941H284.575L284.165 273.53L286.216 274.06ZM251.651 407.86V409.979H253.293L253.703 408.39L251.651 407.86ZM249.867 407.86L247.819 408.403L248.237 409.979H249.867V407.86ZM214.41 274.06L216.459 273.517L216.041 271.941H214.41V274.06ZM160.89 274.06V271.941H158.053L158.859 274.662L160.89 274.06ZM212.403 448L210.372 448.602L210.821 450.119H212.403V448ZM288.223 448V450.119H289.826L290.262 448.578L288.223 448ZM337.506 271.941H286.216V276.179H337.506V271.941ZM284.165 273.53L249.6 407.33L253.703 408.39L288.268 274.59L284.165 273.53ZM251.651 405.741H249.867V409.979H251.651V405.741ZM251.916 407.317L216.459 273.517L212.362 274.603L247.819 408.403L251.916 407.317ZM214.41 271.941H160.89V276.179H214.41V271.941ZM158.859 274.662L210.372 448.602L214.435 447.398L162.922 273.458L158.859 274.662ZM212.403 450.119H288.223V445.881H212.403V450.119ZM290.262 448.578L339.545 274.638L335.468 273.482L286.185 447.422L290.262 448.578ZM346.487 274.06V271.941H344.368V274.06H346.487ZM346.487 448H344.368V450.119H346.487V448ZM488.984 448V450.119H491.104V448H488.984ZM488.984 407.86H491.104V405.741H488.984V407.86ZM393.317 407.86H391.198V409.979H393.317V407.86ZM393.317 378.87V376.751H391.198V378.87H393.317ZM477.611 378.87V380.989H479.731V378.87H477.611ZM477.611 340.96H479.731V338.841H477.611V340.96ZM393.317 340.96H391.198V343.079H393.317V340.96ZM393.317 314.2V312.081H391.198V314.2H393.317ZM488.984 314.2V316.319H491.104V314.2H488.984ZM488.984 274.06H491.104V271.941H488.984V274.06ZM344.368 274.06V448H348.606V274.06H344.368ZM346.487 450.119H488.984V445.881H346.487V450.119ZM491.104 448V407.86H486.865V448H491.104ZM488.984 405.741H393.317V409.979H488.984V405.741ZM395.436 407.86V378.87H391.198V407.86H395.436ZM393.317 380.989H477.611V376.751H393.317V380.989ZM479.731 378.87V340.96H475.492V378.87H479.731ZM477.611 338.841H393.317V343.079H477.611V338.841ZM395.436 340.96V314.2H391.198V340.96H395.436ZM393.317 316.319H488.984V312.081H393.317V316.319ZM491.104 314.2V274.06H486.865V314.2H491.104ZM488.984 271.941H346.487V276.179H488.984V271.941ZM505.769 274.06V271.941H503.65V274.06H505.769ZM505.769 448H503.65V450.119H505.769V448ZM552.599 448V450.119H554.718V448H552.599ZM552.599 391.135V389.016H550.48V391.135H552.599ZM622.844 448L620.96 448.97L621.552 450.119H622.844V448ZM674.134 448V450.119H676.253V448H674.134ZM674.134 445.993H676.253V445.187L675.717 444.585L674.134 445.993ZM635.555 372.626L635.087 370.559L635.085 374.692L635.555 372.626ZM552.599 355.455H550.48V357.574H552.599V355.455ZM552.599 311.97V309.851H550.48V311.97H552.599ZM609.687 271.941H505.769V276.179H609.687V271.941ZM503.65 274.06V448H507.888V274.06H503.65ZM505.769 450.119H552.599V445.881H505.769V450.119ZM554.718 448V391.135H550.48V448H554.718ZM552.599 393.254H598.537V389.016H552.599V393.254ZM598.537 393.254C605.905 393.254 609.928 394.496 612.317 397.39C614.828 400.431 616.042 405.848 616.042 415.665H620.28C620.28 405.858 619.151 399.01 615.586 394.692C611.899 390.227 606.11 389.016 598.537 389.016V393.254ZM616.042 415.665C616.042 431.242 616.905 441.099 620.96 448.97L624.727 447.03C621.2 440.183 620.28 431.308 620.28 415.665H616.042ZM622.844 450.119H674.134V445.881H622.844V450.119ZM676.253 448V445.993H672.015V448H676.253ZM675.717 444.585C672.515 440.982 670.385 435.617 669.079 428.786C667.778 421.982 667.333 413.94 667.333 405.184H663.095C663.095 414.045 663.541 422.393 664.916 429.582C666.286 436.745 668.616 442.976 672.55 447.401L675.717 444.585ZM667.333 405.184C667.333 394.255 664.736 386.598 659.237 381.13C653.831 375.754 645.913 372.807 636.024 370.56L635.085 374.692C644.821 376.905 651.732 379.644 656.249 384.136C660.674 388.536 663.095 394.928 663.095 405.184H667.333ZM636.023 374.693C648.005 371.98 656.551 368.056 662.06 361.852C667.612 355.598 669.786 347.364 669.786 336.723H665.548C665.548 346.821 663.485 353.863 658.89 359.038C654.252 364.262 646.742 367.92 635.087 370.559L636.023 374.693ZM669.786 336.723V330.033H665.548V336.723H669.786ZM669.786 330.033C669.786 318.181 669.244 308.591 667.611 300.902C665.971 293.186 663.201 287.227 658.633 282.797C654.072 278.373 647.932 275.68 639.954 274.08C631.996 272.483 622.04 271.941 609.687 271.941V276.179C621.975 276.179 631.587 276.724 639.12 278.235C646.634 279.743 651.909 282.18 655.682 285.839C659.449 289.492 661.933 294.572 663.465 301.783C665.002 309.021 665.548 318.247 665.548 330.033H669.786ZM554.718 355.455V311.97H550.48V355.455H554.718ZM552.599 314.089H597.645V309.851H552.599V314.089ZM597.645 314.089C602.509 314.089 606.242 314.327 609.124 314.914C611.991 315.498 613.86 316.399 615.147 317.61C616.421 318.81 617.326 320.505 617.906 323.069C618.493 325.665 618.718 329.014 618.718 333.378H622.956C622.956 328.933 622.734 325.202 622.039 322.133C621.337 319.031 620.123 316.475 618.052 314.525C615.994 312.587 613.292 311.438 609.97 310.761C606.665 310.087 602.592 309.851 597.645 309.851V314.089ZM618.718 333.378C618.718 337.911 618.493 341.391 617.902 344.088C617.318 346.756 616.406 348.514 615.127 349.75C613.84 350.994 611.977 351.909 609.117 352.502C606.239 353.098 602.51 353.336 597.645 353.336V357.574C602.591 357.574 606.667 357.338 609.977 356.652C613.306 355.962 616.014 354.787 618.072 352.797C620.139 350.8 621.345 348.181 622.043 344.995C622.734 341.839 622.956 337.988 622.956 333.378H618.718ZM597.645 353.336H552.599V357.574H597.645V353.336ZM851.38 274.06L853.236 275.084L854.97 271.941H851.38V274.06ZM800.09 274.06V271.941H798.793L798.203 273.097L800.09 274.06ZM767.086 338.73V340.849H768.384L768.974 339.693L767.086 338.73ZM765.748 338.73L763.853 339.678L764.439 340.849H765.748V338.73ZM733.413 274.06L735.309 273.112L734.723 271.941H733.413V274.06ZM679.893 274.06V271.941H676.272L678.046 275.098L679.893 274.06ZM742.779 386.006H744.898V385.452L744.627 384.968L742.779 386.006ZM742.779 448H740.66V450.119H742.779V448ZM789.609 448V450.119H791.728V448H789.609ZM789.609 386.006L787.754 384.982L787.49 385.46V386.006H789.609ZM851.38 271.941H800.09V276.179H851.38V271.941ZM798.203 273.097L765.199 337.767L768.974 339.693L801.978 275.023L798.203 273.097ZM767.086 336.611H765.748V340.849H767.086V336.611ZM767.644 337.782L735.309 273.112L731.518 275.008L763.853 339.678L767.644 337.782ZM733.413 271.941H679.893V276.179H733.413V271.941ZM678.046 275.098L740.932 387.044L744.627 384.968L681.741 273.022L678.046 275.098ZM740.66 386.006V448H744.898V386.006H740.66ZM742.779 450.119H789.609V445.881H742.779V450.119ZM791.728 448V386.006H787.49V448H791.728ZM791.465 387.03L853.236 275.084L849.525 273.036L787.754 384.982L791.465 387.03ZM907.312 314.2V312.081H905.202L905.192 314.19L907.312 314.2ZM907.312 407.86L905.192 407.87L905.202 409.979H907.312V407.86ZM907.089 361.03L904.969 361.02V361.03V361.04L907.089 361.03ZM860.482 448H858.362V450.119H860.482V448ZM860.482 274.06V271.941H858.362V274.06H860.482ZM907.312 316.319H945.445V312.081H907.312V316.319ZM945.445 316.319C952.948 316.319 958.694 316.672 963.141 317.773C967.522 318.857 970.515 320.636 972.672 323.437C974.878 326.301 976.383 330.455 977.311 336.624C978.238 342.783 978.559 350.735 978.559 361.03H982.798C982.798 350.698 982.478 342.482 981.502 335.993C980.528 329.514 978.87 324.538 976.03 320.851C973.142 317.102 969.208 314.909 964.16 313.659C959.178 312.425 952.993 312.081 945.445 312.081V316.319ZM978.559 361.03C978.559 371.213 978.238 379.109 977.311 385.247C976.384 391.394 974.878 395.567 972.667 398.462C968.336 404.133 960.632 405.741 945.445 405.741V409.979C960.362 409.979 970.275 408.576 976.035 401.035C978.869 397.323 980.527 392.339 981.502 385.88C982.478 379.412 982.798 371.252 982.798 361.03H978.559ZM945.445 405.741H907.312V409.979H945.445V405.741ZM909.431 407.85L909.208 361.02L904.969 361.04L905.192 407.87L909.431 407.85ZM909.208 361.04L909.431 314.21L905.192 314.19L904.969 361.02L909.208 361.04ZM860.482 450.119H950.351V445.881H860.482V450.119ZM950.351 450.119C967.048 450.119 980.532 449.383 991.332 447.05C1002.17 444.711 1010.45 440.733 1016.6 434.142C1022.73 427.567 1026.52 418.614 1028.79 406.722C1031.06 394.842 1031.86 379.849 1031.86 361.03H1027.62C1027.62 379.787 1026.82 394.453 1024.63 405.925C1022.44 417.385 1018.88 425.477 1013.5 431.252C1008.13 437.009 1000.74 440.683 990.437 442.908C980.1 445.14 966.991 445.881 950.351 445.881V450.119ZM1031.86 361.03C1031.86 342.211 1031.06 327.218 1028.79 315.338C1026.52 303.446 1022.73 294.493 1016.6 287.918C1010.45 281.327 1002.17 277.349 991.332 275.01C980.532 272.677 967.048 271.941 950.351 271.941V276.179C966.991 276.179 980.1 276.92 990.437 279.152C1000.74 281.377 1008.13 285.051 1013.5 290.808C1018.88 296.583 1022.44 304.675 1024.63 316.135C1026.82 327.607 1027.62 342.273 1027.62 361.03H1031.86ZM950.351 271.941H860.482V276.179H950.351V271.941ZM858.362 274.06V448H862.601V274.06H858.362ZM1172.37 274.06L1174.38 273.376L1173.89 271.941H1172.37V274.06ZM1096.55 274.06V271.941H1095.04L1094.55 273.369L1096.55 274.06ZM1036.57 448L1034.56 447.309L1033.59 450.119H1036.57V448ZM1087.86 448V450.119H1089.46L1089.9 448.577L1087.86 448ZM1097.45 414.104V411.985H1095.84L1095.41 413.527L1097.45 414.104ZM1167.24 414.104L1169.26 413.454L1168.79 411.985H1167.24V414.104ZM1178.17 448L1176.15 448.65L1176.63 450.119H1178.17V448ZM1231.69 448V450.119H1234.65L1233.7 447.316L1231.69 448ZM1108.37 376.194L1106.38 375.466L1105.34 378.313H1108.37V376.194ZM1132.68 309.74V307.621H1131.2L1130.69 309.012L1132.68 309.74ZM1134.46 309.74L1136.47 309.066L1135.99 307.621H1134.46V309.74ZM1156.76 376.194V378.313H1159.71L1158.77 375.52L1156.76 376.194ZM1172.37 271.941H1096.55V276.179H1172.37V271.941ZM1094.55 273.369L1034.56 447.309L1038.57 448.691L1098.56 274.751L1094.55 273.369ZM1036.57 450.119H1087.86V445.881H1036.57V450.119ZM1089.9 448.577L1099.48 414.681L1095.41 413.527L1085.82 447.423L1089.9 448.577ZM1097.45 416.223H1167.24V411.985H1097.45V416.223ZM1165.23 414.754L1176.15 448.65L1180.19 447.35L1169.26 413.454L1165.23 414.754ZM1178.17 450.119H1231.69V445.881H1178.17V450.119ZM1233.7 447.316L1174.38 273.376L1170.37 274.744L1229.69 448.684L1233.7 447.316ZM1110.36 376.922L1134.67 310.468L1130.69 309.012L1106.38 375.466L1110.36 376.922ZM1132.68 311.859H1134.46V307.621H1132.68V311.859ZM1132.45 310.414L1154.75 376.868L1158.77 375.52L1136.47 309.066L1132.45 310.414ZM1156.76 374.075H1108.37V378.313H1156.76V374.075ZM1370.82 274.06L1372.67 275.084L1374.41 271.941H1370.82V274.06ZM1319.53 274.06V271.941H1318.23L1317.64 273.097L1319.53 274.06ZM1286.52 338.73V340.849H1287.82L1288.41 339.693L1286.52 338.73ZM1285.19 338.73L1283.29 339.678L1283.88 340.849H1285.19V338.73ZM1252.85 274.06L1254.75 273.112L1254.16 271.941H1252.85V274.06ZM1199.33 274.06V271.941H1195.71L1197.48 275.098L1199.33 274.06ZM1262.22 386.006H1264.34V385.452L1264.07 384.968L1262.22 386.006ZM1262.22 448H1260.1V450.119H1262.22V448ZM1309.05 448V450.119H1311.17V448H1309.05ZM1309.05 386.006L1307.19 384.982L1306.93 385.46V386.006H1309.05ZM1370.82 271.941H1319.53V276.179H1370.82V271.941ZM1317.64 273.097L1284.64 337.767L1288.41 339.693L1321.42 275.023L1317.64 273.097ZM1286.52 336.611H1285.19V340.849H1286.52V336.611ZM1287.08 337.782L1254.75 273.112L1250.96 275.008L1283.29 339.678L1287.08 337.782ZM1252.85 271.941H1199.33V276.179H1252.85V271.941ZM1197.48 275.098L1260.37 387.044L1264.07 384.968L1201.18 273.022L1197.48 275.098ZM1260.1 386.006V448H1264.34V386.006H1260.1ZM1262.22 450.119H1309.05V445.881H1262.22V450.119ZM1311.17 448V386.006H1306.93V448H1311.17ZM1310.9 387.03L1372.67 275.084L1368.96 273.036L1307.19 384.982L1310.9 387.03Z" fill="white" stroke="url(#paint2_linear_6707_42)" stroke-width="8" mask="url(#path-3-inside-2_6707_42)"/>
<path d="M503.109 61.5804L503.109 61.58C503.139 61.5456 503.163 61.5151 503.183 61.4885C503.163 61.4619 503.139 61.4314 503.109 61.3971L503.109 61.3966C502.853 61.099 502.347 60.6708 501.456 60.1558C499.673 59.1271 496.867 58.0436 493.001 56.9639C485.31 54.8159 474.051 52.85 459.986 51.1885C431.893 47.8697 393.005 45.8098 350 45.8098C306.995 45.8098 268.107 47.8697 240.014 51.1885C225.949 52.85 214.69 54.8159 206.999 56.9639C203.133 58.0436 200.327 59.1271 198.544 60.1558L503.109 61.5804ZM503.109 61.5804C502.853 61.878 502.347 62.3061 501.455 62.8213C499.673 63.8499 496.867 64.9334 493.001 66.0131C485.31 68.1612 474.051 70.1269 459.986 71.7885C431.893 75.1073 393.005 77.1672 350 77.1672C306.995 77.1672 268.107 75.1073 240.014 71.7885C225.949 70.1269 214.69 68.1612 206.999 66.0131C203.132 64.9332 200.326 63.8496 198.544 62.8208C197.652 62.3058 197.147 61.8779 196.891 61.5804L196.891 61.58M503.109 61.5804L196.891 61.58M196.891 61.58C196.861 61.5456 196.837 61.5151 196.817 61.4885C196.837 61.4619 196.861 61.4314 196.891 61.3971L196.891 61.3966M196.891 61.58L196.891 61.3966M196.891 61.3966C197.147 61.0991 197.653 60.6711 198.544 60.1563L196.891 61.3966Z" stroke="url(#paint3_linear_6707_42)" stroke-width="4"/>
<path d="M492.689 115.343L492.689 115.343C496.511 113.761 499.277 112.177 501.042 110.666C502.826 109.138 503.25 107.991 503.25 107.247C503.25 106.502 502.826 105.354 501.043 103.828L502.343 102.309L501.042 103.828C499.277 102.317 496.511 100.733 492.689 99.1497C485.067 95.993 473.872 93.0903 459.834 90.631C431.803 85.7204 392.97 82.6678 350 82.6678C307.03 82.6678 268.197 85.7204 240.166 90.631C226.128 93.0903 214.933 95.993 207.311 99.1497C203.489 100.733 200.723 102.317 198.958 103.828L198.957 103.828C197.174 105.354 196.75 106.502 196.75 107.247C196.75 107.991 197.174 109.138 198.958 110.666L492.689 115.343ZM492.689 115.343C485.067 118.5 473.872 121.403 459.834 123.862C431.803 128.773 392.97 131.826 350 131.826C307.03 131.826 268.197 128.773 240.166 123.862C226.128 121.403 214.933 118.5 207.311 115.343L207.311 115.343M492.689 115.343L207.311 115.343M207.311 115.343C203.489 113.761 200.723 112.177 198.958 110.666L207.311 115.343Z" stroke="url(#paint4_linear_6707_42)" stroke-width="4"/>
<path d="M460.112 206.244L459.587 204.314C473.574 200.512 484.695 196.033 492.254 191.175C499.937 186.237 503.25 181.377 503.25 176.982C503.25 172.587 499.937 167.727 492.254 162.788L493.335 161.106L492.254 162.788C484.695 157.93 473.574 153.452 459.587 149.649C431.652 142.055 392.906 137.325 350 137.325C307.094 137.325 268.348 142.055 240.413 149.649C226.426 153.452 215.305 157.93 207.746 162.788L207.746 162.788C200.063 167.727 196.75 172.587 196.75 176.982C196.75 181.377 200.063 186.237 207.746 191.175L460.112 206.244ZM460.112 206.244L459.587 204.314C431.652 211.909 392.906 216.639 350 216.639C307.094 216.639 268.348 211.909 240.413 204.314L240.413 204.314C226.426 200.512 215.305 196.033 207.746 191.175L460.112 206.244Z" stroke="url(#paint5_linear_6707_42)" stroke-width="4"/>
<mask id="path-7-inside-3_6707_42" fill="white">
<path d="M350 61.2899V176.747Z"/>
</mask>
<path d="M350 61.2899V176.747Z" fill="white"/>
<path d="M346 61.2899V176.747H354V61.2899H346Z" fill="url(#paint6_linear_6707_42)" mask="url(#path-7-inside-3_6707_42)"/>
<defs>
<linearGradient id="paint0_linear_6707_42" x1="961.91" y1="44.0601" x2="961.91" y2="218" gradientUnits="userSpaceOnUse">
<stop stop-color="#FF0000" stop-opacity="0.34"/>
<stop offset="0.5" stop-color="#00FF29" stop-opacity="0.45"/>
<stop offset="1" stop-color="#0500FF" stop-opacity="0.59"/>
</linearGradient>
<linearGradient id="paint1_linear_6707_42" x1="961.687" y1="41.9409" x2="961.687" y2="220.119" gradientUnits="userSpaceOnUse">
<stop stop-color="#FF0000" stop-opacity="0.34"/>
<stop offset="0.5" stop-color="#00FF29" stop-opacity="0.45"/>
<stop offset="1" stop-color="#0500FF" stop-opacity="0.59"/>
</linearGradient>
<linearGradient id="paint2_linear_6707_42" x1="690.852" y1="271.941" x2="690.852" y2="450.119" gradientUnits="userSpaceOnUse">
<stop stop-color="#FF0000" stop-opacity="0.34"/>
<stop offset="0.5" stop-color="#00FF29" stop-opacity="0.45"/>
<stop offset="1" stop-color="#0500FF" stop-opacity="0.59"/>
</linearGradient>
<linearGradient id="paint3_linear_6707_42" x1="350" y1="43.8098" x2="350" y2="79.1672" gradientUnits="userSpaceOnUse">
<stop stop-color="#FF0000" stop-opacity="0.34"/>
<stop offset="0.5" stop-color="#00FF29" stop-opacity="0.45"/>
<stop offset="1" stop-color="#0500FF" stop-opacity="0.59"/>
</linearGradient>
<linearGradient id="paint4_linear_6707_42" x1="350" y1="80.6678" x2="350" y2="133.826" gradientUnits="userSpaceOnUse">
<stop stop-color="#FF0000" stop-opacity="0.34"/>
<stop offset="0.5" stop-color="#00FF29" stop-opacity="0.45"/>
<stop offset="1" stop-color="#0500FF" stop-opacity="0.59"/>
</linearGradient>
<linearGradient id="paint5_linear_6707_42" x1="350" y1="135.325" x2="350" y2="218.639" gradientUnits="userSpaceOnUse">
<stop stop-color="#FF0000" stop-opacity="0.34"/>
<stop offset="0.5" stop-color="#00FF29" stop-opacity="0.45"/>
<stop offset="1" stop-color="#0500FF" stop-opacity="0.59"/>
</linearGradient>
<linearGradient id="paint6_linear_6707_42" x1="350.5" y1="61.2899" x2="350.5" y2="176.747" gradientUnits="userSpaceOnUse">
<stop stop-color="#FF0000" stop-opacity="0.34"/>
<stop offset="0.5" stop-color="#00FF29" stop-opacity="0.45"/>
<stop offset="1" stop-color="#0500FF" stop-opacity="0.59"/>
</linearGradient>
</defs>
</svg>
