<svg width="1376" height="365" viewBox="0 0 1376 365" fill="none" xmlns="http://www.w3.org/2000/svg">
<g clip-path="url(#clip0_6706_23)">
<path d="M101.247 168.214H1.2749V6.85413H101.247C110.648 6.85413 117.999 7.27921 123.761 8.4411C129.505 9.59942 133.513 11.4602 136.377 14.2182C139.233 16.9694 141.149 20.8048 142.342 26.2965C143.541 31.8149 143.979 38.8622 143.979 47.8901V52.3421C143.979 65.0219 142.252 72.2047 138.129 76.6309C133.99 81.0743 127.005 83.2134 115.028 84.4853L115.106 88.4697C129.407 89.4231 137.924 91.6939 142.956 96.3204C147.892 100.859 149.915 108.101 149.915 120.394V124.634C149.915 134.188 149.41 141.647 148.043 147.488C146.684 153.295 144.502 157.379 141.223 160.326C137.925 163.291 133.317 165.285 126.769 166.523C120.211 167.763 111.869 168.214 101.247 168.214ZM41.7949 132.902V134.902H43.7949H88.7389C92.6983 134.902 95.9647 134.73 98.6241 134.255C101.284 133.779 103.49 132.976 105.203 131.599C108.716 128.775 109.395 124.18 109.395 118.274C109.395 111.985 108.729 107.254 105.203 104.419C103.478 103.032 101.258 102.259 98.6037 101.813C95.9496 101.367 92.687 101.222 88.7389 101.222H43.7949H41.7949V103.222V132.902ZM41.7949 68.8781V70.8781H43.7949H86.6189C89.7829 70.8781 92.4314 70.733 94.6055 70.2996C96.7927 69.8636 98.6492 69.1076 100.088 67.7752C101.542 66.4291 102.375 64.6765 102.848 62.619C103.314 60.5942 103.459 58.1587 103.459 55.3101C103.459 52.3576 103.314 49.848 102.851 47.7699C102.382 45.6626 101.557 43.8698 100.107 42.4921C98.6678 41.1235 96.8058 40.3492 94.6118 39.9046C92.4338 39.4631 89.7818 39.3181 86.6189 39.3181H43.7949H41.7949V41.3181V68.8781Z" fill="white" stroke="url(#paint0_linear_6706_23)" stroke-width="4"/>
<path d="M219.219 135.99H217.706L217.295 137.446L208.59 168.214H164.148L219.797 6.85413H289.02L344.048 168.214H297.42L287.479 137.376L287.032 135.99H285.575H219.219ZM227.729 101.263L226.746 103.95H229.607H275.611H278.392L277.507 101.314L256.307 38.1379L255.849 36.7741H254.411H252.715H251.317L250.837 38.0871L227.729 101.263Z" fill="white" stroke="url(#paint1_linear_6706_23)" stroke-width="4"/>
<path d="M485.631 80.7683L485.638 80.7704C497.125 83.9319 503.264 87.1541 506.786 93.1335C510.417 99.2998 511.518 108.767 511.518 125.27C511.518 145.173 508.664 155.979 498.452 162.256C493.201 165.483 485.824 167.635 475.432 168.959C465.058 170.28 451.858 170.758 435.077 170.758C417.821 170.758 404.239 170.201 393.557 168.636C382.864 167.07 375.259 164.517 369.826 160.66C359.133 153.067 356.093 139.839 356.093 115.73V115.61H398.733V115.73C398.733 125.002 400.13 131.324 406.16 134.865C409.019 136.544 412.742 137.48 417.407 138.019C422.09 138.56 427.912 138.718 435.077 138.718C442.139 138.718 447.851 138.586 452.438 138.204C457.004 137.825 460.59 137.189 463.338 136.117C466.142 135.022 468.161 133.435 469.415 131.152C470.631 128.938 470.997 126.301 470.997 123.362C470.997 120.78 470.435 118.481 468.985 116.476C467.56 114.506 465.421 113.017 462.639 111.761C457.16 109.285 448.416 107.391 435.46 104.863L435.431 104.857L435.401 104.852C421.534 102.576 413.37 100.71 392.033 95.8322L390.806 95.5518C390.803 95.5512 390.801 95.5506 390.798 95.5501C376.933 92.2685 369.38 88.8474 365.052 82.4397C360.643 75.9121 359.273 65.868 359.273 48.3141C359.273 30.5336 362.98 19.9567 373.676 13.51C379.16 10.2048 386.631 7.8873 396.737 6.409C406.832 4.93223 419.428 4.31006 435.077 4.31006C451.165 4.31006 463.878 4.86733 473.916 6.43268C483.959 7.99891 491.147 10.5496 496.315 14.4068C506.518 22.0228 509.609 35.3369 509.609 59.5501V59.6701H466.969V59.5501C466.969 50.8197 466.04 44.4942 460.903 40.7372C458.411 38.9153 455.12 37.8459 450.961 37.211C446.792 36.5747 441.568 36.3501 435.077 36.3501C428.011 36.3501 422.33 36.5089 417.792 36.9421C413.275 37.3733 409.744 38.0876 407.053 39.2768C404.292 40.4974 402.382 42.2356 401.226 44.6382C400.113 46.953 399.793 49.699 399.793 52.7661C399.793 55.1374 400.24 57.3168 401.562 59.23C402.871 61.1229 404.879 62.5244 407.552 63.6679C412.793 65.9099 421.385 67.4725 434.745 69.367C459.715 74.2341 471.305 76.7652 485.631 80.7683Z" fill="white" stroke="url(#paint2_linear_6706_23)" stroke-width="4"/>
<path d="M572.826 132.054V134.054H574.826H663.774V168.214H532.306V6.85413H663.774V41.0141H574.826H572.826V43.0141V68.4541V70.4541H574.826H652.962V102.494H574.826H572.826V104.494V132.054Z" fill="white" stroke="url(#paint3_linear_6706_23)" stroke-width="4"/>
<path d="M811.833 6.85413H885.989V168.214H845.469V47.2541V45.2541H843.469H842.197H840.601L840.247 46.8103L812.617 168.214H756.496L732.435 46.8652L732.116 45.2541H730.473H729.201H727.201V47.2541V168.214H686.681V6.85413H760.582L781.713 132.386L781.994 134.054H783.685H785.381H787.029L787.344 132.437L811.833 6.85413Z" fill="white" stroke="url(#paint4_linear_6706_23)" stroke-width="4"/>
<path d="M949.482 132.054V134.054H951.482H1040.43V168.214H908.962V6.85413H1040.43V41.0141H951.482H949.482V43.0141V68.4541V70.4541H951.482H1029.62V102.494H951.482H949.482V104.494V132.054Z" fill="white" stroke="url(#paint5_linear_6706_23)" stroke-width="4"/>
<path d="M1177.82 106.614V6.85413H1216.22V168.214H1168.46L1106.72 67.4095L1106.13 66.4541H1105.01H1103.74H1101.74V68.4541V168.214H1063.34V6.85413H1113.2L1172.83 107.632L1173.41 108.614H1174.55H1175.82H1177.82V106.614Z" fill="white" stroke="url(#paint6_linear_6706_23)" stroke-width="4"/>
<path d="M1325.01 38.8941H1323.01V40.8941V168.214H1282.49V40.8941V38.8941H1280.49H1231.82V6.85413H1374.1V38.8941H1325.01Z" fill="white" stroke="url(#paint7_linear_6706_23)" stroke-width="4"/>
<mask id="path-11-inside-1_6706_23" fill="white">
<path fill-rule="evenodd" clip-rule="evenodd" d="M246.044 296.396V300.516C246.044 309.688 247.509 313.86 251.496 316.202C253.646 317.464 256.719 318.317 261.177 318.832C265.617 319.344 271.243 319.504 278.388 319.504C285.424 319.504 291.001 319.371 295.418 319.004C299.855 318.635 302.986 318.038 305.194 317.176C307.346 316.337 308.52 315.287 309.22 314.012C309.959 312.668 310.308 310.827 310.308 308.148C310.308 306.172 309.89 304.761 309.054 303.606C308.193 302.416 306.742 301.294 304.303 300.192C299.346 297.952 291.138 296.138 278.034 293.581C264.061 291.286 255.78 289.393 234.522 284.533L233.203 284.232L233.195 284.23C219.293 280.94 210.313 277.259 205.048 269.464C199.864 261.788 198.584 250.526 198.584 233.1C198.584 214.84 202.403 202.415 214.922 194.87C221.045 191.179 229.103 188.753 239.468 187.237C249.844 185.719 262.661 185.096 278.388 185.096C294.524 185.096 307.489 185.652 317.843 187.266C328.192 188.88 336.109 191.576 342.018 195.987C353.969 204.907 356.92 220.213 356.92 244.336V248.456H306.28V244.336C306.28 235.47 305.195 231.196 301.853 228.752C300.104 227.473 297.539 226.542 293.668 225.951C289.807 225.362 284.829 225.136 278.388 225.136C271.356 225.136 265.828 225.295 261.482 225.71C257.115 226.127 254.087 226.79 251.981 227.721C249.946 228.621 248.822 229.744 248.142 231.158C247.42 232.659 247.104 234.683 247.104 237.552C247.104 239.421 247.453 240.713 248.164 241.741C248.889 242.79 250.154 243.8 252.436 244.776C257.1 246.771 265.134 248.282 278.669 250.2L278.72 250.207L278.771 250.217C303.797 255.095 315.521 257.651 330.015 261.701C341.634 264.899 349.168 268.461 353.543 275.89C357.808 283.132 358.828 293.699 358.828 310.056C358.828 330.009 356.064 342.947 343.857 350.45C337.898 354.113 329.865 356.36 319.249 357.713C308.615 359.068 295.209 359.544 278.388 359.544C261.088 359.544 247.269 358.988 236.288 357.38C225.317 355.773 216.995 353.091 210.821 348.707C198.3 339.817 195.404 324.531 195.404 300.516V296.396H246.044ZM329.48 263.628C315.064 259.6 303.404 257.056 278.388 252.18C251.464 248.364 245.104 246.032 245.104 237.552C245.104 225.68 250.192 223.136 278.388 223.136C304.252 223.136 308.28 226.74 308.28 244.336V246.456H354.92V244.336C354.92 196 342.836 187.096 278.388 187.096C215.636 187.096 200.584 197.06 200.584 233.1C200.584 268.08 205.884 275.712 233.656 282.284L234.931 282.576C256.238 287.446 264.459 289.325 278.388 291.612C304.464 296.7 312.308 299.032 312.308 308.148C312.308 319.384 306.584 321.504 278.388 321.504C249.768 321.504 244.044 318.96 244.044 300.516V298.396H197.404V300.516C197.404 348.64 209.276 357.544 278.388 357.544C345.592 357.544 356.828 349.912 356.828 310.056C356.828 277.196 352.588 269.988 329.48 263.628ZM533.321 187.64V287.16C533.321 302.035 532.606 314.028 530.519 323.625C528.426 333.249 524.922 340.604 519.244 346.055C513.574 351.498 505.935 354.85 495.939 356.855C485.96 358.856 473.477 359.544 457.969 359.544C442.461 359.544 429.977 358.856 419.998 356.855C410.002 354.85 402.364 351.498 396.694 346.055C391.016 340.604 387.512 333.249 385.418 323.625C383.331 314.028 382.617 302.035 382.617 287.16V187.64H431.137V287.16C431.137 294.394 431.416 300.031 432.184 304.436C432.951 308.838 434.177 311.836 435.942 313.938C439.434 318.097 445.685 319.504 457.969 319.504C470.253 319.504 476.503 318.097 479.995 313.938C481.76 311.836 482.987 308.838 483.754 304.436C484.521 300.031 484.801 294.394 484.801 287.16V187.64H533.321ZM531.321 189.64V287.16C531.321 346.52 519.873 357.544 457.969 357.544C396.065 357.544 384.617 346.52 384.617 287.16V189.64H429.137V287.16C429.137 316.204 433.589 321.504 457.969 321.504C482.349 321.504 486.801 316.204 486.801 287.16V189.64H531.321ZM559.378 187.64H655.93C677.584 187.64 692.138 190.624 701.136 199.793C710.121 208.949 713.05 223.753 713.05 245.82V254.3C713.05 275.738 710.328 290.22 701.993 299.519C693.624 308.856 680.053 312.474 659.852 313.537L659.799 313.54H607.898V357H559.378V187.64ZM605.898 355H561.378V189.64H655.93C699.178 189.64 711.05 201.724 711.05 245.82V254.3C711.05 297.124 700.026 309.42 659.746 311.54H605.898V355ZM607.898 227.68V271.38H644.482C649.112 271.38 652.646 271.153 655.371 270.558C658.068 269.969 659.827 269.049 661.054 267.761C662.29 266.463 663.18 264.589 663.747 261.723C664.317 258.84 664.53 255.117 664.53 250.272C664.53 245.106 664.317 241.122 663.743 238.03C663.17 234.947 662.267 232.92 661.013 231.519C659.777 230.14 658.022 229.17 655.346 228.549C652.634 227.92 649.11 227.68 644.482 227.68H607.898ZM735.933 187.64H832.485C854.139 187.64 868.693 190.624 877.691 199.793C886.676 208.949 889.605 223.753 889.605 245.82V254.3C889.605 275.738 886.883 290.22 878.547 299.519C870.178 308.856 856.608 312.474 836.406 313.537L836.354 313.54H784.453V357H735.933V187.64ZM782.453 355H737.933V189.64H832.485C875.733 189.64 887.605 201.724 887.605 245.82V254.3C887.605 297.124 876.581 309.42 836.301 311.54H782.453V355ZM784.453 227.68V271.38H821.037C825.666 271.38 829.201 271.153 831.926 270.558C834.622 269.969 836.382 269.049 837.609 267.761C838.845 266.463 839.735 264.589 840.302 261.723C840.872 258.84 841.085 255.117 841.085 250.272C841.085 245.106 840.872 241.122 840.297 238.03C839.724 234.947 838.821 232.92 837.567 231.519C836.332 230.14 834.577 229.17 831.901 228.549C829.188 227.92 825.664 227.68 821.037 227.68H784.453ZM912.488 187.64H961.008V314.84H1035V357H912.488V187.64ZM1033 316.84V355H914.488V189.64H959.008V316.84H1033ZM1187.1 187.64L1126.99 296.579V357H1078.47V296.587L1017.27 187.64H1072.8L1102.95 247.943L1133.73 187.64H1187.1ZM1071.57 189.64H1020.68L1080.47 296.064V355H1124.99V296.064L1183.71 189.64H1134.95L1103.58 251.12H1102.3L1071.57 189.64ZM605.898 273.38H644.482C663.138 273.38 666.53 269.776 666.53 250.272C666.53 229.496 663.138 225.68 644.482 225.68H605.898V273.38ZM782.453 273.38H821.037C839.693 273.38 843.085 269.776 843.085 250.272C843.085 229.496 839.693 225.68 821.037 225.68H782.453V273.38Z"/>
</mask>
<path fill-rule="evenodd" clip-rule="evenodd" d="M246.044 296.396V300.516C246.044 309.688 247.509 313.86 251.496 316.202C253.646 317.464 256.719 318.317 261.177 318.832C265.617 319.344 271.243 319.504 278.388 319.504C285.424 319.504 291.001 319.371 295.418 319.004C299.855 318.635 302.986 318.038 305.194 317.176C307.346 316.337 308.52 315.287 309.22 314.012C309.959 312.668 310.308 310.827 310.308 308.148C310.308 306.172 309.89 304.761 309.054 303.606C308.193 302.416 306.742 301.294 304.303 300.192C299.346 297.952 291.138 296.138 278.034 293.581C264.061 291.286 255.78 289.393 234.522 284.533L233.203 284.232L233.195 284.23C219.293 280.94 210.313 277.259 205.048 269.464C199.864 261.788 198.584 250.526 198.584 233.1C198.584 214.84 202.403 202.415 214.922 194.87C221.045 191.179 229.103 188.753 239.468 187.237C249.844 185.719 262.661 185.096 278.388 185.096C294.524 185.096 307.489 185.652 317.843 187.266C328.192 188.88 336.109 191.576 342.018 195.987C353.969 204.907 356.92 220.213 356.92 244.336V248.456H306.28V244.336C306.28 235.47 305.195 231.196 301.853 228.752C300.104 227.473 297.539 226.542 293.668 225.951C289.807 225.362 284.829 225.136 278.388 225.136C271.356 225.136 265.828 225.295 261.482 225.71C257.115 226.127 254.087 226.79 251.981 227.721C249.946 228.621 248.822 229.744 248.142 231.158C247.42 232.659 247.104 234.683 247.104 237.552C247.104 239.421 247.453 240.713 248.164 241.741C248.889 242.79 250.154 243.8 252.436 244.776C257.1 246.771 265.134 248.282 278.669 250.2L278.72 250.207L278.771 250.217C303.797 255.095 315.521 257.651 330.015 261.701C341.634 264.899 349.168 268.461 353.543 275.89C357.808 283.132 358.828 293.699 358.828 310.056C358.828 330.009 356.064 342.947 343.857 350.45C337.898 354.113 329.865 356.36 319.249 357.713C308.615 359.068 295.209 359.544 278.388 359.544C261.088 359.544 247.269 358.988 236.288 357.38C225.317 355.773 216.995 353.091 210.821 348.707C198.3 339.817 195.404 324.531 195.404 300.516V296.396H246.044ZM329.48 263.628C315.064 259.6 303.404 257.056 278.388 252.18C251.464 248.364 245.104 246.032 245.104 237.552C245.104 225.68 250.192 223.136 278.388 223.136C304.252 223.136 308.28 226.74 308.28 244.336V246.456H354.92V244.336C354.92 196 342.836 187.096 278.388 187.096C215.636 187.096 200.584 197.06 200.584 233.1C200.584 268.08 205.884 275.712 233.656 282.284L234.931 282.576C256.238 287.446 264.459 289.325 278.388 291.612C304.464 296.7 312.308 299.032 312.308 308.148C312.308 319.384 306.584 321.504 278.388 321.504C249.768 321.504 244.044 318.96 244.044 300.516V298.396H197.404V300.516C197.404 348.64 209.276 357.544 278.388 357.544C345.592 357.544 356.828 349.912 356.828 310.056C356.828 277.196 352.588 269.988 329.48 263.628ZM533.321 187.64V287.16C533.321 302.035 532.606 314.028 530.519 323.625C528.426 333.249 524.922 340.604 519.244 346.055C513.574 351.498 505.935 354.85 495.939 356.855C485.96 358.856 473.477 359.544 457.969 359.544C442.461 359.544 429.977 358.856 419.998 356.855C410.002 354.85 402.364 351.498 396.694 346.055C391.016 340.604 387.512 333.249 385.418 323.625C383.331 314.028 382.617 302.035 382.617 287.16V187.64H431.137V287.16C431.137 294.394 431.416 300.031 432.184 304.436C432.951 308.838 434.177 311.836 435.942 313.938C439.434 318.097 445.685 319.504 457.969 319.504C470.253 319.504 476.503 318.097 479.995 313.938C481.76 311.836 482.987 308.838 483.754 304.436C484.521 300.031 484.801 294.394 484.801 287.16V187.64H533.321ZM531.321 189.64V287.16C531.321 346.52 519.873 357.544 457.969 357.544C396.065 357.544 384.617 346.52 384.617 287.16V189.64H429.137V287.16C429.137 316.204 433.589 321.504 457.969 321.504C482.349 321.504 486.801 316.204 486.801 287.16V189.64H531.321ZM559.378 187.64H655.93C677.584 187.64 692.138 190.624 701.136 199.793C710.121 208.949 713.05 223.753 713.05 245.82V254.3C713.05 275.738 710.328 290.22 701.993 299.519C693.624 308.856 680.053 312.474 659.852 313.537L659.799 313.54H607.898V357H559.378V187.64ZM605.898 355H561.378V189.64H655.93C699.178 189.64 711.05 201.724 711.05 245.82V254.3C711.05 297.124 700.026 309.42 659.746 311.54H605.898V355ZM607.898 227.68V271.38H644.482C649.112 271.38 652.646 271.153 655.371 270.558C658.068 269.969 659.827 269.049 661.054 267.761C662.29 266.463 663.18 264.589 663.747 261.723C664.317 258.84 664.53 255.117 664.53 250.272C664.53 245.106 664.317 241.122 663.743 238.03C663.17 234.947 662.267 232.92 661.013 231.519C659.777 230.14 658.022 229.17 655.346 228.549C652.634 227.92 649.11 227.68 644.482 227.68H607.898ZM735.933 187.64H832.485C854.139 187.64 868.693 190.624 877.691 199.793C886.676 208.949 889.605 223.753 889.605 245.82V254.3C889.605 275.738 886.883 290.22 878.547 299.519C870.178 308.856 856.608 312.474 836.406 313.537L836.354 313.54H784.453V357H735.933V187.64ZM782.453 355H737.933V189.64H832.485C875.733 189.64 887.605 201.724 887.605 245.82V254.3C887.605 297.124 876.581 309.42 836.301 311.54H782.453V355ZM784.453 227.68V271.38H821.037C825.666 271.38 829.201 271.153 831.926 270.558C834.622 269.969 836.382 269.049 837.609 267.761C838.845 266.463 839.735 264.589 840.302 261.723C840.872 258.84 841.085 255.117 841.085 250.272C841.085 245.106 840.872 241.122 840.297 238.03C839.724 234.947 838.821 232.92 837.567 231.519C836.332 230.14 834.577 229.17 831.901 228.549C829.188 227.92 825.664 227.68 821.037 227.68H784.453ZM912.488 187.64H961.008V314.84H1035V357H912.488V187.64ZM1033 316.84V355H914.488V189.64H959.008V316.84H1033ZM1187.1 187.64L1126.99 296.579V357H1078.47V296.587L1017.27 187.64H1072.8L1102.95 247.943L1133.73 187.64H1187.1ZM1071.57 189.64H1020.68L1080.47 296.064V355H1124.99V296.064L1183.71 189.64H1134.95L1103.58 251.12H1102.3L1071.57 189.64ZM605.898 273.38H644.482C663.138 273.38 666.53 269.776 666.53 250.272C666.53 229.496 663.138 225.68 644.482 225.68H605.898V273.38ZM782.453 273.38H821.037C839.693 273.38 843.085 269.776 843.085 250.272C843.085 229.496 839.693 225.68 821.037 225.68H782.453V273.38Z" fill="white" stroke="url(#paint8_linear_6706_23)" stroke-width="8" mask="url(#path-11-inside-1_6706_23)"/>
<path d="M1253.43 282.031H1253.27C1253.29 281.827 1253.32 281.651 1253.35 281.497C1253.45 281.043 1253.57 280.942 1253.6 280.916L1253.6 280.916C1253.64 280.873 1253.81 280.755 1254.28 280.648C1254.26 280.668 1254.24 280.689 1254.22 280.71C1253.82 281.11 1253.58 281.568 1253.43 282.031ZM1261.65 283.191C1261.65 282.469 1261.51 281.423 1260.67 280.629C1261.21 280.728 1261.45 280.843 1261.55 280.906C1261.55 280.908 1261.55 280.91 1261.56 280.912C1261.59 280.935 1261.61 280.946 1261.64 281.056C1261.71 281.252 1261.76 281.63 1261.73 282.356L1261.73 282.356L1261.73 282.368C1261.7 283.309 1261.64 283.756 1261.58 284.01C1261.63 283.748 1261.65 283.476 1261.65 283.191Z" fill="white" stroke="url(#paint9_linear_6706_23)" stroke-width="4"/>
<path d="M1267.85 288.011V292.271H1267.65V280.671H1267.85V284.411V286.011V286.411V288.011ZM1276.36 291.541L1276.82 292.271H1276.78L1276.36 291.541Z" fill="white" stroke="url(#paint10_linear_6706_23)" stroke-width="4"/>
<path d="M1286.21 281.138V281.891H1285.74C1285.94 281.65 1286.09 281.395 1286.21 281.138Z" fill="white" stroke="url(#paint11_linear_6706_23)" stroke-width="4"/>
<path d="M1300.19 285.68V286.483L1299.81 286.429C1299.92 286.272 1300.01 286.102 1300.1 285.919C1300.13 285.84 1300.16 285.76 1300.19 285.68ZM1291.75 285.318C1291.87 285.81 1292.1 286.36 1292.57 286.825C1292.11 286.745 1291.99 286.644 1291.96 286.614C1291.91 286.56 1291.61 286.185 1291.61 284.251V283.831C1291.61 284.285 1291.63 284.814 1291.75 285.318ZM1299.88 292.035C1299.96 291.911 1300.02 291.783 1300.08 291.655C1300.07 291.703 1300.06 291.747 1300.05 291.786C1299.99 291.97 1299.95 291.992 1299.93 292.001C1299.93 292.001 1299.93 292.002 1299.93 292.003C1299.92 292.012 1299.9 292.023 1299.88 292.035ZM1292.04 280.938C1292.1 280.891 1292.23 280.808 1292.51 280.724C1292.06 281.211 1291.85 281.773 1291.74 282.259C1291.63 282.77 1291.61 283.317 1291.61 283.811V283.611C1291.61 281.356 1291.94 281.025 1292.04 280.938Z" fill="white" stroke="url(#paint12_linear_6706_23)" stroke-width="4"/>
<mask id="path-16-inside-2_6706_23" fill="white">
<path fill-rule="evenodd" clip-rule="evenodd" d="M1329.1 309.467C1342.72 303.012 1350.5 294.39 1350.5 285.366C1350.5 276.342 1342.72 267.72 1329.1 261.266C1315.59 254.866 1296.82 250.866 1276 250.866C1255.18 250.866 1236.41 254.866 1222.9 261.266C1209.28 267.72 1201.5 276.342 1201.5 285.366C1201.5 294.39 1209.28 303.012 1222.9 309.467C1236.41 315.867 1255.18 319.866 1276 319.866C1296.82 319.866 1315.59 315.867 1329.1 309.467ZM1276 321.366C1317.97 321.366 1352 305.249 1352 285.366C1352 265.484 1317.97 249.366 1276 249.366C1234.03 249.366 1200 265.484 1200 285.366C1200 305.249 1234.03 321.366 1276 321.366Z"/>
</mask>
<path fill-rule="evenodd" clip-rule="evenodd" d="M1329.1 309.467C1342.72 303.012 1350.5 294.39 1350.5 285.366C1350.5 276.342 1342.72 267.72 1329.1 261.266C1315.59 254.866 1296.82 250.866 1276 250.866C1255.18 250.866 1236.41 254.866 1222.9 261.266C1209.28 267.72 1201.5 276.342 1201.5 285.366C1201.5 294.39 1209.28 303.012 1222.9 309.467C1236.41 315.867 1255.18 319.866 1276 319.866C1296.82 319.866 1315.59 315.867 1329.1 309.467ZM1276 321.366C1317.97 321.366 1352 305.249 1352 285.366C1352 265.484 1317.97 249.366 1276 249.366C1234.03 249.366 1200 265.484 1200 285.366C1200 305.249 1234.03 321.366 1276 321.366Z" fill="white"/>
<path d="M1329.1 309.467L1330.81 313.082L1330.81 313.082L1329.1 309.467ZM1329.1 261.266L1330.81 257.651L1330.81 257.651L1329.1 261.266ZM1222.9 261.266L1221.19 257.651L1221.19 257.651L1222.9 261.266ZM1222.9 309.467L1221.19 313.082L1221.19 313.082L1222.9 309.467ZM1330.81 313.082C1344.78 306.464 1354.5 296.833 1354.5 285.366H1346.5C1346.5 291.947 1340.66 299.56 1327.39 305.852L1330.81 313.082ZM1354.5 285.366C1354.5 273.899 1344.78 264.268 1330.81 257.651L1327.39 264.881C1340.66 271.172 1346.5 278.785 1346.5 285.366H1354.5ZM1330.81 257.651C1316.66 250.945 1297.28 246.866 1276 246.866V254.866C1296.36 254.866 1314.52 258.786 1327.39 264.881L1330.81 257.651ZM1276 246.866C1254.72 246.866 1235.34 250.945 1221.19 257.651L1224.61 264.881C1237.48 258.786 1255.64 254.866 1276 254.866V246.866ZM1221.19 257.651C1207.22 264.268 1197.5 273.899 1197.5 285.366H1205.5C1205.5 278.785 1211.34 271.172 1224.61 264.881L1221.19 257.651ZM1197.5 285.366C1197.5 296.833 1207.22 306.464 1221.19 313.082L1224.61 305.852C1211.34 299.56 1205.5 291.947 1205.5 285.366H1197.5ZM1221.19 313.082C1235.34 319.788 1254.72 323.866 1276 323.866V315.866C1255.64 315.866 1237.48 311.946 1224.61 305.852L1221.19 313.082ZM1276 323.866C1297.28 323.866 1316.66 319.788 1330.81 313.082L1327.39 305.852C1314.52 311.946 1296.36 315.866 1276 315.866V323.866ZM1276 325.366C1297.44 325.366 1317.05 321.257 1331.45 314.437C1345.54 307.762 1356 297.753 1356 285.366H1348C1348 292.862 1341.44 300.853 1328.03 307.207C1314.92 313.416 1296.53 317.366 1276 317.366V325.366ZM1356 285.366C1356 272.979 1345.54 262.971 1331.45 256.295C1317.05 249.475 1297.44 245.366 1276 245.366V253.366C1296.53 253.366 1314.92 257.316 1328.03 263.525C1341.44 269.879 1348 277.871 1348 285.366H1356ZM1276 245.366C1254.56 245.366 1234.95 249.475 1220.55 256.295C1206.46 262.971 1196 272.979 1196 285.366H1204C1204 277.871 1210.56 269.879 1223.97 263.525C1237.08 257.316 1255.47 253.366 1276 253.366V245.366ZM1196 285.366C1196 297.753 1206.46 307.762 1220.55 314.437C1234.95 321.257 1254.56 325.366 1276 325.366V317.366C1255.47 317.366 1237.08 313.416 1223.97 307.207C1210.56 300.853 1204 292.862 1204 285.366H1196Z" fill="url(#paint13_linear_6706_23)" mask="url(#path-16-inside-2_6706_23)"/>
<path d="M81.0491 290.671V292.271H80.8491V280.671H81.0491V282.271V284.671V286.071V286.671V288.071V290.671Z" fill="white" stroke="url(#paint14_linear_6706_23)" stroke-width="4"/>
<path d="M105.131 288.14C104.943 287.881 104.727 287.676 104.507 287.511C104.586 287.533 104.665 287.555 104.746 287.577L104.753 287.579C105.244 287.714 105.488 287.817 105.615 287.889C105.645 287.907 105.663 287.919 105.672 287.926C105.688 287.957 105.742 288.081 105.787 288.402C105.839 288.77 105.864 289.282 105.864 290.031C105.864 291.786 105.587 291.929 105.506 291.971C105.501 291.973 105.497 291.975 105.494 291.977C105.364 292.057 105.107 292.167 104.619 292.264C104.875 292.055 105.108 291.791 105.291 291.458C105.622 290.855 105.664 290.246 105.664 289.851C105.664 289.333 105.546 288.714 105.131 288.14ZM95.4977 290.931C95.6808 291.416 95.9851 291.892 96.4891 292.277C95.8281 292.154 95.511 292.002 95.3571 291.893C95.2407 291.81 95.0538 291.65 94.9351 290.931H95.4977ZM105.158 281.024C105.269 281.107 105.457 281.284 105.575 282.031H105.033C104.855 281.536 104.551 281.04 104.031 280.64C104.712 280.763 105.018 280.919 105.158 281.024ZM95.6066 281.039C95.7436 280.956 95.9572 280.862 96.2879 280.773C96.0295 281.005 95.8058 281.291 95.6383 281.639C95.3562 282.226 95.3242 282.812 95.3242 283.191C95.3242 283.642 95.4107 284.25 95.8126 284.831C95.9572 285.04 96.1211 285.214 96.292 285.36C95.9302 285.261 95.6972 285.175 95.541 285.097C95.4465 285.05 95.4011 285.017 95.3828 285.001C95.3676 284.989 95.3632 284.983 95.3591 284.977C95.3497 284.963 95.2775 284.851 95.2175 284.481C95.1558 284.101 95.1242 283.565 95.1242 282.771C95.1242 281.329 95.4154 281.154 95.5996 281.043C95.602 281.042 95.6043 281.04 95.6066 281.039Z" fill="white" stroke="url(#paint15_linear_6706_23)" stroke-width="4"/>
<path d="M115.339 280.671H115.539V282.071V292.271H115.339V282.071V280.671Z" fill="white" stroke="url(#paint16_linear_6706_23)" stroke-width="4"/>
<mask id="path-21-inside-3_6706_23" fill="white">
<path fill-rule="evenodd" clip-rule="evenodd" d="M153.098 309.467C166.724 303.012 174.5 294.39 174.5 285.366C174.5 276.342 166.724 267.72 153.098 261.266C139.587 254.866 120.815 250.866 99.9999 250.866C79.1847 250.866 60.4134 254.866 46.902 261.266C33.2762 267.72 25.5 276.342 25.5 285.366C25.5 294.39 33.2762 303.012 46.902 309.467C60.4134 315.867 79.1847 319.866 99.9999 319.866C120.815 319.866 139.587 315.867 153.098 309.467ZM99.9999 321.366C141.974 321.366 176 305.249 176 285.366C176 265.484 141.974 249.366 99.9999 249.366C58.0264 249.366 24 265.484 24 285.366C24 305.249 58.0264 321.366 99.9999 321.366Z"/>
</mask>
<path fill-rule="evenodd" clip-rule="evenodd" d="M153.098 309.467C166.724 303.012 174.5 294.39 174.5 285.366C174.5 276.342 166.724 267.72 153.098 261.266C139.587 254.866 120.815 250.866 99.9999 250.866C79.1847 250.866 60.4134 254.866 46.902 261.266C33.2762 267.72 25.5 276.342 25.5 285.366C25.5 294.39 33.2762 303.012 46.902 309.467C60.4134 315.867 79.1847 319.866 99.9999 319.866C120.815 319.866 139.587 315.867 153.098 309.467ZM99.9999 321.366C141.974 321.366 176 305.249 176 285.366C176 265.484 141.974 249.366 99.9999 249.366C58.0264 249.366 24 265.484 24 285.366C24 305.249 58.0264 321.366 99.9999 321.366Z" fill="white"/>
<path d="M153.098 309.467L154.81 313.082L154.81 313.082L153.098 309.467ZM153.098 261.266L151.386 264.881L151.386 264.881L153.098 261.266ZM46.902 261.266L48.6143 264.881L48.6143 264.881L46.902 261.266ZM46.902 309.467L45.1895 313.082L45.1897 313.082L46.902 309.467ZM154.81 313.082C168.781 306.464 178.5 296.832 178.5 285.366H170.5C170.5 291.948 164.667 299.56 151.385 305.852L154.81 313.082ZM178.5 285.366C178.5 273.9 168.781 264.268 154.81 257.651L151.386 264.881C164.667 271.172 170.5 278.784 170.5 285.366H178.5ZM154.81 257.651C140.654 250.945 121.272 246.866 99.9999 246.866V254.866C120.357 254.866 138.52 258.786 151.386 264.881L154.81 257.651ZM99.9999 246.866C78.7272 246.866 59.3461 250.945 45.1897 257.651L48.6143 264.881C61.4807 258.786 79.6422 254.866 99.9999 254.866V246.866ZM45.1897 257.651C31.219 264.268 21.5 273.9 21.5 285.366H29.5C29.5 278.784 35.3334 271.172 48.6143 264.881L45.1897 257.651ZM21.5 285.366C21.5 296.832 31.219 306.464 45.1895 313.082L48.6145 305.852C35.3334 299.56 29.5 291.948 29.5 285.366H21.5ZM45.1897 313.082C59.3462 319.788 78.7274 323.866 99.9999 323.866V315.866C79.642 315.866 61.4806 311.946 48.6143 305.852L45.1897 313.082ZM99.9999 323.866C121.272 323.866 140.654 319.788 154.81 313.082L151.386 305.852C138.52 311.946 120.358 315.866 99.9999 315.866V323.866ZM99.9999 325.366C121.444 325.366 141.054 321.257 155.452 314.437C169.546 307.761 180 297.753 180 285.366H172C172 292.862 165.441 300.854 152.028 307.207C138.92 313.416 120.53 317.366 99.9999 317.366V325.366ZM180 285.366C180 272.979 169.546 262.971 155.453 256.295C141.054 249.475 121.444 245.366 99.9999 245.366V253.366C120.53 253.366 138.92 257.316 152.028 263.525C165.441 269.879 172 277.871 172 285.366H180ZM99.9999 245.366C78.5558 245.366 58.9459 249.475 44.5475 256.295C30.4543 262.971 20 272.979 20 285.366H28C28 277.871 34.5589 269.879 47.9722 263.525C61.0805 257.316 79.4705 253.366 99.9999 253.366V245.366ZM20 285.366C20 297.753 30.4543 307.761 44.5476 314.437C58.9459 321.257 78.5558 325.366 99.9999 325.366V317.366C79.4705 317.366 61.0804 313.416 47.9722 307.207C34.5589 300.854 28 292.862 28 285.366H20Z" fill="url(#paint17_linear_6706_23)" mask="url(#path-21-inside-3_6706_23)"/>
</g>
<rect x="0.5" y="0.5" width="1375" height="364" stroke="black"/>
<defs>
<linearGradient id="paint0_linear_6706_23" x1="75.5949" y1="4.85413" x2="75.5949" y2="170.214" gradientUnits="userSpaceOnUse">
<stop stop-color="#FF0000" stop-opacity="0.34"/>
<stop offset="0.5" stop-color="#00FF29" stop-opacity="0.45"/>
<stop offset="1" stop-color="#0500FF" stop-opacity="0.59"/>
</linearGradient>
<linearGradient id="paint1_linear_6706_23" x1="254.093" y1="4.85413" x2="254.093" y2="170.214" gradientUnits="userSpaceOnUse">
<stop stop-color="#FF0000" stop-opacity="0.34"/>
<stop offset="0.5" stop-color="#00FF29" stop-opacity="0.45"/>
<stop offset="1" stop-color="#0500FF" stop-opacity="0.59"/>
</linearGradient>
<linearGradient id="paint2_linear_6706_23" x1="433.806" y1="2.31006" x2="433.806" y2="172.758" gradientUnits="userSpaceOnUse">
<stop stop-color="#FF0000" stop-opacity="0.34"/>
<stop offset="0.5" stop-color="#00FF29" stop-opacity="0.45"/>
<stop offset="1" stop-color="#0500FF" stop-opacity="0.59"/>
</linearGradient>
<linearGradient id="paint3_linear_6706_23" x1="598.04" y1="4.85413" x2="598.04" y2="170.214" gradientUnits="userSpaceOnUse">
<stop stop-color="#FF0000" stop-opacity="0.34"/>
<stop offset="0.5" stop-color="#00FF29" stop-opacity="0.45"/>
<stop offset="1" stop-color="#0500FF" stop-opacity="0.59"/>
</linearGradient>
<linearGradient id="paint4_linear_6706_23" x1="786.335" y1="4.85413" x2="786.335" y2="170.214" gradientUnits="userSpaceOnUse">
<stop stop-color="#FF0000" stop-opacity="0.34"/>
<stop offset="0.5" stop-color="#00FF29" stop-opacity="0.45"/>
<stop offset="1" stop-color="#0500FF" stop-opacity="0.59"/>
</linearGradient>
<linearGradient id="paint5_linear_6706_23" x1="974.696" y1="4.85413" x2="974.696" y2="170.214" gradientUnits="userSpaceOnUse">
<stop stop-color="#FF0000" stop-opacity="0.34"/>
<stop offset="0.5" stop-color="#00FF29" stop-opacity="0.45"/>
<stop offset="1" stop-color="#0500FF" stop-opacity="0.59"/>
</linearGradient>
<linearGradient id="paint6_linear_6706_23" x1="1139.78" y1="4.85413" x2="1139.78" y2="170.214" gradientUnits="userSpaceOnUse">
<stop stop-color="#FF0000" stop-opacity="0.34"/>
<stop offset="0.5" stop-color="#00FF29" stop-opacity="0.45"/>
<stop offset="1" stop-color="#0500FF" stop-opacity="0.59"/>
</linearGradient>
<linearGradient id="paint7_linear_6706_23" x1="1302.96" y1="4.85413" x2="1302.96" y2="170.214" gradientUnits="userSpaceOnUse">
<stop stop-color="#FF0000" stop-opacity="0.34"/>
<stop offset="0.5" stop-color="#00FF29" stop-opacity="0.45"/>
<stop offset="1" stop-color="#0500FF" stop-opacity="0.59"/>
</linearGradient>
<linearGradient id="paint8_linear_6706_23" x1="691.252" y1="185.096" x2="691.252" y2="359.544" gradientUnits="userSpaceOnUse">
<stop stop-color="#FF0000" stop-opacity="0.34"/>
<stop offset="0.5" stop-color="#00FF29" stop-opacity="0.45"/>
<stop offset="1" stop-color="#0500FF" stop-opacity="0.59"/>
</linearGradient>
<linearGradient id="paint9_linear_6706_23" x1="1257.48" y1="278.431" x2="1257.48" y2="294.271" gradientUnits="userSpaceOnUse">
<stop stop-color="#FF0000" stop-opacity="0.34"/>
<stop offset="0.5" stop-color="#00FF29" stop-opacity="0.45"/>
<stop offset="1" stop-color="#0500FF" stop-opacity="0.59"/>
</linearGradient>
<linearGradient id="paint10_linear_6706_23" x1="1273.03" y1="278.671" x2="1273.03" y2="294.271" gradientUnits="userSpaceOnUse">
<stop stop-color="#FF0000" stop-opacity="0.34"/>
<stop offset="0.5" stop-color="#00FF29" stop-opacity="0.45"/>
<stop offset="1" stop-color="#0500FF" stop-opacity="0.59"/>
</linearGradient>
<linearGradient id="paint11_linear_6706_23" x1="1284.41" y1="278.671" x2="1284.41" y2="294.271" gradientUnits="userSpaceOnUse">
<stop stop-color="#FF0000" stop-opacity="0.34"/>
<stop offset="0.5" stop-color="#00FF29" stop-opacity="0.45"/>
<stop offset="1" stop-color="#0500FF" stop-opacity="0.59"/>
</linearGradient>
<linearGradient id="paint12_linear_6706_23" x1="1295.9" y1="278.431" x2="1295.9" y2="294.431" gradientUnits="userSpaceOnUse">
<stop stop-color="#FF0000" stop-opacity="0.34"/>
<stop offset="0.5" stop-color="#00FF29" stop-opacity="0.45"/>
<stop offset="1" stop-color="#0500FF" stop-opacity="0.59"/>
</linearGradient>
<linearGradient id="paint13_linear_6706_23" x1="1276" y1="249.366" x2="1276" y2="321.366" gradientUnits="userSpaceOnUse">
<stop stop-color="#FF0000" stop-opacity="0.34"/>
<stop offset="0.5" stop-color="#00FF29" stop-opacity="0.45"/>
<stop offset="1" stop-color="#0500FF" stop-opacity="0.59"/>
</linearGradient>
<linearGradient id="paint14_linear_6706_23" x1="85.2391" y1="278.671" x2="85.2391" y2="294.271" gradientUnits="userSpaceOnUse">
<stop stop-color="#FF0000" stop-opacity="0.34"/>
<stop offset="0.5" stop-color="#00FF29" stop-opacity="0.45"/>
<stop offset="1" stop-color="#0500FF" stop-opacity="0.59"/>
</linearGradient>
<linearGradient id="paint15_linear_6706_23" x1="100.344" y1="278.431" x2="100.344" y2="294.511" gradientUnits="userSpaceOnUse">
<stop stop-color="#FF0000" stop-opacity="0.34"/>
<stop offset="0.5" stop-color="#00FF29" stop-opacity="0.45"/>
<stop offset="1" stop-color="#0500FF" stop-opacity="0.59"/>
</linearGradient>
<linearGradient id="paint16_linear_6706_23" x1="115.459" y1="278.671" x2="115.459" y2="294.271" gradientUnits="userSpaceOnUse">
<stop stop-color="#FF0000" stop-opacity="0.34"/>
<stop offset="0.5" stop-color="#00FF29" stop-opacity="0.45"/>
<stop offset="1" stop-color="#0500FF" stop-opacity="0.59"/>
</linearGradient>
<linearGradient id="paint17_linear_6706_23" x1="100" y1="249.366" x2="100" y2="321.366" gradientUnits="userSpaceOnUse">
<stop stop-color="#FF0000" stop-opacity="0.34"/>
<stop offset="0.5" stop-color="#00FF29" stop-opacity="0.45"/>
<stop offset="1" stop-color="#0500FF" stop-opacity="0.59"/>
</linearGradient>
<clipPath id="clip0_6706_23">
<rect width="1376" height="365" fill="white"/>
</clipPath>
</defs>
</svg>
